<svg xmlns="http://www.w3.org/2000/svg" width="1030" height="242" viewBox="0 0 1030 242">
  <g id="Grupo_1072822" data-name="Grupo 1072822" transform="translate(-285 -10740.873)">
    <rect id="Rect치ngulo_296850" data-name="Rect치ngulo 296850" width="1030" height="242" rx="8" transform="translate(285 10740.873)" fill="#c5f7ff" opacity="0.489"/>
    <g id="Grupo_1072718" data-name="Grupo 1072718">
      <path id="Trazado_612884" data-name="Trazado 612884" d="M10.415,16.07H5.278L4.3,19H1.187L6.479,4.781H9.194L14.517,19H11.4ZM6.069,13.7H9.624L7.837,8.375Zm23.545-1.982h-8.73V9.41h8.73Zm0,4.229h-8.73v-2.3h8.73ZM40.181,13.99V19h-2.93V4.781H42.8a6.417,6.417,0,0,1,2.817.586,4.318,4.318,0,0,1,1.87,1.665,4.643,4.643,0,0,1,.654,2.456,4.083,4.083,0,0,1-1.431,3.3,5.959,5.959,0,0,1-3.96,1.206Zm0-2.373H42.8a2.573,2.573,0,0,0,1.772-.547,1.989,1.989,0,0,0,.61-1.562,2.345,2.345,0,0,0-.615-1.689,2.3,2.3,0,0,0-1.7-.664H40.181Z" transform="translate(343.769 10799.938)" fill="#12263f"/>
      <path id="Trazado_612886" data-name="Trazado 612886" d="M17.637,11.715H8.906V9.41h8.73Zm0,4.229H8.906v-2.3h8.73ZM33.32,13.648h1.611v2.275H33.32V19H30.5V15.924h-5.83l-.127-1.777,5.928-9.365H33.32Zm-5.967,0H30.5V8.629l-.186.322Zm18.662-.527a7.2,7.2,0,0,1-1.221,4.512A4.261,4.261,0,0,1,41.221,19.2a4.291,4.291,0,0,1-3.555-1.533,6.992,6.992,0,0,1-1.26-4.395V10.65a7.109,7.109,0,0,1,1.235-4.521A4.293,4.293,0,0,1,41.2,4.586a4.3,4.3,0,0,1,3.555,1.528,6.971,6.971,0,0,1,1.26,4.39Zm-2.822-2.878a5.207,5.207,0,0,0-.483-2.576A1.634,1.634,0,0,0,41.2,6.861a1.6,1.6,0,0,0-1.47.767,4.873,4.873,0,0,0-.5,2.4v3.46a5.466,5.466,0,0,0,.474,2.586,1.612,1.612,0,0,0,1.519.846,1.585,1.585,0,0,0,1.494-.811,5.335,5.335,0,0,0,.479-2.483Zm4.99,7.37a1.421,1.421,0,0,1,.454-1.094,1.764,1.764,0,0,1,2.285,0,1.421,1.421,0,0,1,.454,1.094,1.4,1.4,0,0,1-.449,1.079,1.794,1.794,0,0,1-2.295,0A1.4,1.4,0,0,1,48.184,17.613ZM63.3,13.121a7.2,7.2,0,0,1-1.221,4.512,4.878,4.878,0,0,1-7.129.029,6.992,6.992,0,0,1-1.26-4.395V10.65a7.109,7.109,0,0,1,1.235-4.521,4.888,4.888,0,0,1,7.114-.015A6.971,6.971,0,0,1,63.3,10.5Zm-2.822-2.878A5.207,5.207,0,0,0,60,7.668a1.634,1.634,0,0,0-1.509-.806,1.6,1.6,0,0,0-1.47.767,4.873,4.873,0,0,0-.5,2.4v3.46a5.466,5.466,0,0,0,.474,2.586,1.612,1.612,0,0,0,1.519.846A1.585,1.585,0,0,0,60,16.109a5.335,5.335,0,0,0,.479-2.483Zm14.3,2.878a7.2,7.2,0,0,1-1.221,4.512,4.878,4.878,0,0,1-7.129.029,6.992,6.992,0,0,1-1.26-4.395V10.65A7.109,7.109,0,0,1,66.4,6.129a4.888,4.888,0,0,1,7.114-.015,6.971,6.971,0,0,1,1.26,4.39Zm-2.822-2.878a5.207,5.207,0,0,0-.483-2.576,1.634,1.634,0,0,0-1.509-.806,1.6,1.6,0,0,0-1.47.767,4.873,4.873,0,0,0-.5,2.4v3.46a5.466,5.466,0,0,0,.474,2.586,1.612,1.612,0,0,0,1.519.846,1.585,1.585,0,0,0,1.494-.811,5.335,5.335,0,0,0,.479-2.483Zm14.3,2.878a7.2,7.2,0,0,1-1.221,4.512,4.878,4.878,0,0,1-7.129.029,6.992,6.992,0,0,1-1.26-4.395V10.65a7.109,7.109,0,0,1,1.235-4.521,4.888,4.888,0,0,1,7.114-.015,6.971,6.971,0,0,1,1.26,4.39Zm-2.822-2.878a5.207,5.207,0,0,0-.483-2.576,1.634,1.634,0,0,0-1.509-.806,1.6,1.6,0,0,0-1.47.767,4.873,4.873,0,0,0-.5,2.4v3.46a5.466,5.466,0,0,0,.474,2.586,1.612,1.612,0,0,0,1.519.846,1.585,1.585,0,0,0,1.494-.811,5.335,5.335,0,0,0,.479-2.483Zm4.99,7.37a1.421,1.421,0,0,1,.454-1.094,1.764,1.764,0,0,1,2.285,0,1.421,1.421,0,0,1,.454,1.094,1.4,1.4,0,0,1-.449,1.079,1.794,1.794,0,0,1-2.295,0A1.4,1.4,0,0,1,88.418,17.613Zm15.117-4.492a7.2,7.2,0,0,1-1.221,4.512,4.878,4.878,0,0,1-7.129.029,6.992,6.992,0,0,1-1.26-4.395V10.65a7.109,7.109,0,0,1,1.235-4.521,4.888,4.888,0,0,1,7.114-.015,6.971,6.971,0,0,1,1.26,4.39Zm-2.822-2.878a5.207,5.207,0,0,0-.483-2.576,1.634,1.634,0,0,0-1.509-.806,1.6,1.6,0,0,0-1.47.767,4.873,4.873,0,0,0-.5,2.4v3.46a5.466,5.466,0,0,0,.474,2.586,1.612,1.612,0,0,0,1.519.846,1.585,1.585,0,0,0,1.494-.811,5.335,5.335,0,0,0,.479-2.483Zm14.3,2.878a7.2,7.2,0,0,1-1.221,4.512,4.878,4.878,0,0,1-7.129.029,6.992,6.992,0,0,1-1.26-4.395V10.65a7.109,7.109,0,0,1,1.235-4.521,4.888,4.888,0,0,1,7.114-.015,6.971,6.971,0,0,1,1.26,4.39Zm-2.822-2.878a5.207,5.207,0,0,0-.483-2.576,1.634,1.634,0,0,0-1.509-.806,1.6,1.6,0,0,0-1.47.767,4.873,4.873,0,0,0-.5,2.4v3.46a5.466,5.466,0,0,0,.474,2.586,1.612,1.612,0,0,0,1.519.846,1.585,1.585,0,0,0,1.494-.811,5.335,5.335,0,0,0,.479-2.483Zm14.3,2.878a7.2,7.2,0,0,1-1.221,4.512,4.878,4.878,0,0,1-7.129.029,6.992,6.992,0,0,1-1.26-4.395V10.65a7.109,7.109,0,0,1,1.235-4.521,4.888,4.888,0,0,1,7.114-.015,6.971,6.971,0,0,1,1.26,4.39Zm-2.822-2.878a5.207,5.207,0,0,0-.483-2.576,1.634,1.634,0,0,0-1.509-.806,1.6,1.6,0,0,0-1.47.767,4.873,4.873,0,0,0-.5,2.4v3.46a5.466,5.466,0,0,0,.474,2.586,1.612,1.612,0,0,0,1.519.846,1.585,1.585,0,0,0,1.494-.811,5.335,5.335,0,0,0,.479-2.483Z" transform="translate(549.231 10799.938)" fill="#12263f"/>
      <path id="Trazado_612888" data-name="Trazado 612888" d="M17.637,11.715H8.906V9.41h8.73Zm0,4.229H8.906v-2.3h8.73ZM33.32,13.648h1.611v2.275H33.32V19H30.5V15.924h-5.83l-.127-1.777,5.928-9.365H33.32Zm-5.967,0H30.5V8.629l-.186.322Zm18.662-.527a7.2,7.2,0,0,1-1.221,4.512A4.261,4.261,0,0,1,41.221,19.2a4.291,4.291,0,0,1-3.555-1.533,6.992,6.992,0,0,1-1.26-4.395V10.65a7.109,7.109,0,0,1,1.235-4.521A4.293,4.293,0,0,1,41.2,4.586a4.3,4.3,0,0,1,3.555,1.528,6.971,6.971,0,0,1,1.26,4.39Zm-2.822-2.878a5.207,5.207,0,0,0-.483-2.576A1.634,1.634,0,0,0,41.2,6.861a1.6,1.6,0,0,0-1.47.767,4.873,4.873,0,0,0-.5,2.4v3.46a5.466,5.466,0,0,0,.474,2.586,1.612,1.612,0,0,0,1.519.846,1.585,1.585,0,0,0,1.494-.811,5.335,5.335,0,0,0,.479-2.483Zm4.99,7.37a1.421,1.421,0,0,1,.454-1.094,1.764,1.764,0,0,1,2.285,0,1.421,1.421,0,0,1,.454,1.094,1.4,1.4,0,0,1-.449,1.079,1.794,1.794,0,0,1-2.295,0A1.4,1.4,0,0,1,48.184,17.613ZM63.3,13.121a7.2,7.2,0,0,1-1.221,4.512,4.878,4.878,0,0,1-7.129.029,6.992,6.992,0,0,1-1.26-4.395V10.65a7.109,7.109,0,0,1,1.235-4.521,4.888,4.888,0,0,1,7.114-.015A6.971,6.971,0,0,1,63.3,10.5Zm-2.822-2.878A5.207,5.207,0,0,0,60,7.668a1.634,1.634,0,0,0-1.509-.806,1.6,1.6,0,0,0-1.47.767,4.873,4.873,0,0,0-.5,2.4v3.46a5.466,5.466,0,0,0,.474,2.586,1.612,1.612,0,0,0,1.519.846A1.585,1.585,0,0,0,60,16.109a5.335,5.335,0,0,0,.479-2.483Zm14.3,2.878a7.2,7.2,0,0,1-1.221,4.512,4.878,4.878,0,0,1-7.129.029,6.992,6.992,0,0,1-1.26-4.395V10.65A7.109,7.109,0,0,1,66.4,6.129a4.888,4.888,0,0,1,7.114-.015,6.971,6.971,0,0,1,1.26,4.39Zm-2.822-2.878a5.207,5.207,0,0,0-.483-2.576,1.634,1.634,0,0,0-1.509-.806,1.6,1.6,0,0,0-1.47.767,4.873,4.873,0,0,0-.5,2.4v3.46a5.466,5.466,0,0,0,.474,2.586,1.612,1.612,0,0,0,1.519.846,1.585,1.585,0,0,0,1.494-.811,5.335,5.335,0,0,0,.479-2.483Zm14.3,2.878a7.2,7.2,0,0,1-1.221,4.512,4.878,4.878,0,0,1-7.129.029,6.992,6.992,0,0,1-1.26-4.395V10.65a7.109,7.109,0,0,1,1.235-4.521,4.888,4.888,0,0,1,7.114-.015,6.971,6.971,0,0,1,1.26,4.39Zm-2.822-2.878a5.207,5.207,0,0,0-.483-2.576,1.634,1.634,0,0,0-1.509-.806,1.6,1.6,0,0,0-1.47.767,4.873,4.873,0,0,0-.5,2.4v3.46a5.466,5.466,0,0,0,.474,2.586,1.612,1.612,0,0,0,1.519.846,1.585,1.585,0,0,0,1.494-.811,5.335,5.335,0,0,0,.479-2.483Zm4.99,7.37a1.421,1.421,0,0,1,.454-1.094,1.764,1.764,0,0,1,2.285,0,1.421,1.421,0,0,1,.454,1.094,1.4,1.4,0,0,1-.449,1.079,1.794,1.794,0,0,1-2.295,0A1.4,1.4,0,0,1,88.418,17.613Zm15.117-4.492a7.2,7.2,0,0,1-1.221,4.512,4.878,4.878,0,0,1-7.129.029,6.992,6.992,0,0,1-1.26-4.395V10.65a7.109,7.109,0,0,1,1.235-4.521,4.888,4.888,0,0,1,7.114-.015,6.971,6.971,0,0,1,1.26,4.39Zm-2.822-2.878a5.207,5.207,0,0,0-.483-2.576,1.634,1.634,0,0,0-1.509-.806,1.6,1.6,0,0,0-1.47.767,4.873,4.873,0,0,0-.5,2.4v3.46a5.466,5.466,0,0,0,.474,2.586,1.612,1.612,0,0,0,1.519.846,1.585,1.585,0,0,0,1.494-.811,5.335,5.335,0,0,0,.479-2.483Zm14.3,2.878a7.2,7.2,0,0,1-1.221,4.512,4.878,4.878,0,0,1-7.129.029,6.992,6.992,0,0,1-1.26-4.395V10.65a7.109,7.109,0,0,1,1.235-4.521,4.888,4.888,0,0,1,7.114-.015,6.971,6.971,0,0,1,1.26,4.39Zm-2.822-2.878a5.207,5.207,0,0,0-.483-2.576,1.634,1.634,0,0,0-1.509-.806,1.6,1.6,0,0,0-1.47.767,4.873,4.873,0,0,0-.5,2.4v3.46a5.466,5.466,0,0,0,.474,2.586,1.612,1.612,0,0,0,1.519.846,1.585,1.585,0,0,0,1.494-.811,5.335,5.335,0,0,0,.479-2.483Zm14.3,2.878a7.2,7.2,0,0,1-1.221,4.512,4.878,4.878,0,0,1-7.129.029,6.992,6.992,0,0,1-1.26-4.395V10.65a7.109,7.109,0,0,1,1.235-4.521,4.888,4.888,0,0,1,7.114-.015,6.971,6.971,0,0,1,1.26,4.39Zm-2.822-2.878a5.207,5.207,0,0,0-.483-2.576,1.634,1.634,0,0,0-1.509-.806,1.6,1.6,0,0,0-1.47.767,4.873,4.873,0,0,0-.5,2.4v3.46a5.466,5.466,0,0,0,.474,2.586,1.612,1.612,0,0,0,1.519.846,1.585,1.585,0,0,0,1.494-.811,5.335,5.335,0,0,0,.479-2.483Z" transform="translate(918.231 10799.938)" fill="#12263f"/>
      <path id="Trazado_612885" data-name="Trazado 612885" d="M17.79,19H14.958V8.434H17.79Zm-3-13.3a1.39,1.39,0,0,1,.425-1.045,1.6,1.6,0,0,1,1.157-.41,1.6,1.6,0,0,1,1.152.41,1.382,1.382,0,0,1,.43,1.045,1.386,1.386,0,0,1-.435,1.055,1.81,1.81,0,0,1-2.295,0A1.386,1.386,0,0,1,14.792,5.7Zm10.43,7.52a14.987,14.987,0,0,1,.6-4.258,11.236,11.236,0,0,1,1.758-3.579,6.564,6.564,0,0,1,2.52-2.163l.547,1.523A6.8,6.8,0,0,0,28.415,8a15.1,15.1,0,0,0-.8,5.156v.3a15.391,15.391,0,0,0,.791,5.176,6.93,6.93,0,0,0,2.236,3.311l-.547,1.494a6.566,6.566,0,0,1-2.476-2.1,11.048,11.048,0,0,1-1.753-3.481,14.9,14.9,0,0,1-.645-4.121ZM38.854,19H36.032V8.121L32.663,9.166V6.871l5.889-2.109h.3Zm15.41-7.959H57.79V13.59H54.264v3.984H51.579V13.59H48.044V11.041h3.535V7.223h2.686ZM67.448,19H64.616V8.434h2.832Zm-3-13.3a1.39,1.39,0,0,1,.425-1.045,1.831,1.831,0,0,1,2.31,0,1.382,1.382,0,0,1,.43,1.045,1.386,1.386,0,0,1-.435,1.055,1.81,1.81,0,0,1-2.295,0A1.386,1.386,0,0,1,64.45,5.7Zm10.186,7.744A14.221,14.221,0,0,1,74,17.691a11.531,11.531,0,0,1-1.826,3.6,6.579,6.579,0,0,1-2.549,2.148l-.547-1.494a6.867,6.867,0,0,0,2.188-3.223,14.923,14.923,0,0,0,.83-5.01V13.2a15.261,15.261,0,0,0-.8-5.146,7.158,7.158,0,0,0-2.222-3.34l.547-1.494a6.581,6.581,0,0,1,2.5,2.09,11.383,11.383,0,0,1,1.826,3.525A14.12,14.12,0,0,1,74.636,13Zm3.251-7.607.051.712a2.152,2.152,0,0,1,1.772-.826,1.788,1.788,0,0,1,1.458.575,2.684,2.684,0,0,1,.49,1.72V12H80.011V8.058a1.068,1.068,0,0,0-.228-.76,1.02,1.02,0,0,0-.758-.236,1.133,1.133,0,0,0-1.042.592V12H76.337V5.837ZM5.221,43.219a14.987,14.987,0,0,1,.6-4.258,11.236,11.236,0,0,1,1.758-3.579,6.564,6.564,0,0,1,2.52-2.163l.547,1.523A6.8,6.8,0,0,0,8.415,38a15.1,15.1,0,0,0-.8,5.156v.3a15.391,15.391,0,0,0,.791,5.176,6.93,6.93,0,0,0,2.236,3.311l-.547,1.494a6.566,6.566,0,0,1-2.476-2.1,11.048,11.048,0,0,1-1.753-3.481,14.9,14.9,0,0,1-.645-4.121ZM18.854,49H16.032V38.121l-3.369,1.045V36.871l5.889-2.109h.3Zm15.41-7.959H37.79V43.59H34.264v3.984H31.579V43.59H28.044V41.041h3.535V37.223h2.686ZM47.77,49h-2.93V34.781h2.93Zm7.393-5.557a14.221,14.221,0,0,1-.635,4.248,11.531,11.531,0,0,1-1.826,3.6,6.579,6.579,0,0,1-2.549,2.148l-.547-1.494a6.867,6.867,0,0,0,2.188-3.223,14.923,14.923,0,0,0,.83-5.01V43.2a15.261,15.261,0,0,0-.8-5.146,7.158,7.158,0,0,0-2.222-3.34l.547-1.494a6.581,6.581,0,0,1,2.5,2.09,11.383,11.383,0,0,1,1.826,3.525A14.12,14.12,0,0,1,55.163,43Zm3.251-7.607.051.712a2.152,2.152,0,0,1,1.772-.826,1.788,1.788,0,0,1,1.458.575,2.684,2.684,0,0,1,.49,1.72V42H60.539V38.058a1.068,1.068,0,0,0-.228-.76,1.02,1.02,0,0,0-.758-.236,1.133,1.133,0,0,0-1.042.592V42H56.864V35.837Zm15.939,8.212h-5.5V41.773h5.5ZM88.337,49H85.515V38.121l-3.369,1.045V36.871l5.889-2.109h.3Z" transform="translate(423.769 10785.938)" fill="#12263f"/>
      <path id="Trazado_612887" data-name="Trazado 612887" d="M19.64,13.121a7.2,7.2,0,0,1-1.221,4.512A4.261,4.261,0,0,1,14.845,19.2a4.291,4.291,0,0,1-3.555-1.533,6.992,6.992,0,0,1-1.26-4.395V10.65a7.109,7.109,0,0,1,1.235-4.521,4.293,4.293,0,0,1,3.56-1.543A4.3,4.3,0,0,1,18.38,6.114a6.971,6.971,0,0,1,1.26,4.39Zm-2.822-2.878a5.207,5.207,0,0,0-.483-2.576,1.634,1.634,0,0,0-1.509-.806,1.6,1.6,0,0,0-1.47.767,4.873,4.873,0,0,0-.5,2.4v3.46a5.466,5.466,0,0,0,.474,2.586,1.612,1.612,0,0,0,1.519.846,1.585,1.585,0,0,0,1.494-.811,5.335,5.335,0,0,0,.479-2.483Zm5.576,12.321-1.475-.771.352-.635a5.074,5.074,0,0,0,.674-2.373V16.6h2.383l-.01,1.953a5.074,5.074,0,0,1-.547,2.188A5.608,5.608,0,0,1,22.394,22.564ZM36.173,19H26.427V17.066l4.6-4.9a11.347,11.347,0,0,0,1.4-1.807,2.9,2.9,0,0,0,.454-1.465A2.172,2.172,0,0,0,32.4,7.4a1.727,1.727,0,0,0-1.367-.542,1.863,1.863,0,0,0-1.509.659,2.611,2.611,0,0,0-.552,1.733H26.144a4.661,4.661,0,0,1,.62-2.373A4.371,4.371,0,0,1,28.517,5.2a5.328,5.328,0,0,1,2.568-.61A5.045,5.045,0,0,1,34.5,5.641a3.731,3.731,0,0,1,1.216,2.979,4.781,4.781,0,0,1-.547,2.148,11.939,11.939,0,0,1-1.875,2.549L30.06,16.725h6.113ZM45.558,4.635V6.959h-.273a4.8,4.8,0,0,0-3.081,1,4.047,4.047,0,0,0-1.4,2.686,3.844,3.844,0,0,1,2.861-1.152,3.622,3.622,0,0,1,2.949,1.328,5.324,5.324,0,0,1,1.094,3.5,5.237,5.237,0,0,1-.6,2.51,4.307,4.307,0,0,1-1.7,1.748,4.937,4.937,0,0,1-2.485.625,4.611,4.611,0,0,1-3.628-1.562,6.065,6.065,0,0,1-1.382-4.17V12.447a9.128,9.128,0,0,1,.874-4.087A6.409,6.409,0,0,1,41.3,5.616a7.354,7.354,0,0,1,3.794-.981ZM42.8,11.764a2.255,2.255,0,0,0-1.24.356,2.143,2.143,0,0,0-.82.941v.858a3.8,3.8,0,0,0,.557,2.208,1.8,1.8,0,0,0,1.563.794,1.779,1.779,0,0,0,1.47-.716,2.922,2.922,0,0,0,.562-1.857,2.916,2.916,0,0,0-.566-1.871A1.846,1.846,0,0,0,42.8,11.764Zm15.84-3.2a3.307,3.307,0,0,1-.518,1.836A3.725,3.725,0,0,1,56.7,11.676a4.123,4.123,0,0,1,1.641,1.372,3.52,3.52,0,0,1,.605,2.056A3.727,3.727,0,0,1,57.657,18.1a5.229,5.229,0,0,1-3.506,1.1,5.253,5.253,0,0,1-3.516-1.1,3.718,3.718,0,0,1-1.3-2.988,3.542,3.542,0,0,1,.605-2.061,4.049,4.049,0,0,1,1.631-1.367A3.687,3.687,0,0,1,50.152,10.4a3.331,3.331,0,0,1-.513-1.836,3.685,3.685,0,0,1,1.211-2.9,5.571,5.571,0,0,1,6.577-.01A3.671,3.671,0,0,1,58.644,8.561ZM56.114,14.9a2.047,2.047,0,0,0-.537-1.484,2.149,2.149,0,0,0-2.881,0,2.044,2.044,0,0,0-.537,1.489,2.042,2.042,0,0,0,.527,1.465,2.2,2.2,0,0,0,2.905.02A2.039,2.039,0,0,0,56.114,14.9Zm-.293-6.2a1.953,1.953,0,0,0-.439-1.333,1.788,1.788,0,0,0-2.471-.015A1.942,1.942,0,0,0,52.472,8.7a2.041,2.041,0,0,0,.439,1.367,1.739,1.739,0,0,0,2.476,0A2.056,2.056,0,0,0,55.821,8.7ZM70.6,19H60.851V17.066l4.6-4.9a11.347,11.347,0,0,0,1.4-1.807,2.9,2.9,0,0,0,.454-1.465A2.172,2.172,0,0,0,66.827,7.4a1.727,1.727,0,0,0-1.367-.542,1.863,1.863,0,0,0-1.509.659A2.611,2.611,0,0,0,63.4,9.254H60.567a4.661,4.661,0,0,1,.62-2.373A4.371,4.371,0,0,1,62.941,5.2a5.328,5.328,0,0,1,2.568-.61,5.045,5.045,0,0,1,3.413,1.055,3.731,3.731,0,0,1,1.216,2.979,4.781,4.781,0,0,1-.547,2.148,11.939,11.939,0,0,1-1.875,2.549l-3.232,3.408H70.6Zm6.953-5.781a14.987,14.987,0,0,1,.6-4.258A11.236,11.236,0,0,1,79.9,5.382a6.564,6.564,0,0,1,2.52-2.163l.547,1.523A6.8,6.8,0,0,0,80.743,8a15.1,15.1,0,0,0-.8,5.156v.3a15.391,15.391,0,0,0,.791,5.176,6.93,6.93,0,0,0,2.236,3.311l-.547,1.494a6.566,6.566,0,0,1-2.476-2.1,11.048,11.048,0,0,1-1.753-3.481,14.9,14.9,0,0,1-.645-4.121ZM91.183,19H88.36V8.121L84.991,9.166V6.871L90.88,4.762h.3Zm5.469,3.564-1.475-.771.352-.635a5.074,5.074,0,0,0,.674-2.373V16.6h2.383l-.01,1.953a5.074,5.074,0,0,1-.547,2.188A5.608,5.608,0,0,1,96.651,22.564ZM110.431,19h-9.746V17.066l4.6-4.9a11.347,11.347,0,0,0,1.4-1.807,2.9,2.9,0,0,0,.454-1.465,2.172,2.172,0,0,0-.479-1.489,1.727,1.727,0,0,0-1.367-.542,1.863,1.863,0,0,0-1.509.659,2.611,2.611,0,0,0-.552,1.733H100.4a4.661,4.661,0,0,1,.62-2.373A4.371,4.371,0,0,1,102.775,5.2a5.328,5.328,0,0,1,2.568-.61,5.045,5.045,0,0,1,3.413,1.055,3.731,3.731,0,0,1,1.216,2.979,4.781,4.781,0,0,1-.547,2.148,11.939,11.939,0,0,1-1.875,2.549l-3.232,3.408h6.113Zm9.385-14.365V6.959h-.273a4.8,4.8,0,0,0-3.081,1,4.047,4.047,0,0,0-1.4,2.686,3.844,3.844,0,0,1,2.861-1.152,3.622,3.622,0,0,1,2.949,1.328,5.324,5.324,0,0,1,1.094,3.5,5.237,5.237,0,0,1-.6,2.51,4.307,4.307,0,0,1-1.7,1.748,4.937,4.937,0,0,1-2.485.625,4.611,4.611,0,0,1-3.628-1.562,6.065,6.065,0,0,1-1.382-4.17V12.447a9.128,9.128,0,0,1,.874-4.087,6.409,6.409,0,0,1,2.51-2.744,7.354,7.354,0,0,1,3.794-.981Zm-2.754,7.129a2.255,2.255,0,0,0-1.24.356,2.143,2.143,0,0,0-.82.941v.858a3.8,3.8,0,0,0,.557,2.208,1.8,1.8,0,0,0,1.563.794,1.779,1.779,0,0,0,1.47-.716,2.922,2.922,0,0,0,.562-1.857,2.916,2.916,0,0,0-.566-1.871A1.846,1.846,0,0,0,117.062,11.764Zm15.84-3.2a3.307,3.307,0,0,1-.518,1.836,3.725,3.725,0,0,1-1.426,1.279,4.123,4.123,0,0,1,1.641,1.372A3.52,3.52,0,0,1,133.2,15.1a3.727,3.727,0,0,1-1.289,2.993,6.147,6.147,0,0,1-7.021,0,3.718,3.718,0,0,1-1.3-2.988,3.542,3.542,0,0,1,.605-2.061,4.049,4.049,0,0,1,1.631-1.367A3.687,3.687,0,0,1,124.41,10.4a3.331,3.331,0,0,1-.513-1.836,3.685,3.685,0,0,1,1.211-2.9,5.571,5.571,0,0,1,6.577-.01A3.671,3.671,0,0,1,132.9,8.561ZM130.372,14.9a2.047,2.047,0,0,0-.537-1.484,2.149,2.149,0,0,0-2.881,0,2.044,2.044,0,0,0-.537,1.489,2.042,2.042,0,0,0,.527,1.465,2.2,2.2,0,0,0,2.905.02A2.039,2.039,0,0,0,130.372,14.9Zm-.293-6.2a1.953,1.953,0,0,0-.439-1.333,1.788,1.788,0,0,0-2.471-.015A1.942,1.942,0,0,0,126.73,8.7a2.041,2.041,0,0,0,.439,1.367,1.739,1.739,0,0,0,2.476,0A2.056,2.056,0,0,0,130.079,8.7ZM144.855,19h-9.746V17.066l4.6-4.9a11.347,11.347,0,0,0,1.4-1.807,2.9,2.9,0,0,0,.454-1.465,2.172,2.172,0,0,0-.479-1.489,1.727,1.727,0,0,0-1.367-.542,1.863,1.863,0,0,0-1.509.659,2.611,2.611,0,0,0-.552,1.733h-2.832a4.661,4.661,0,0,1,.62-2.373A4.371,4.371,0,0,1,137.2,5.2a5.328,5.328,0,0,1,2.568-.61,5.045,5.045,0,0,1,3.413,1.055A3.731,3.731,0,0,1,144.4,8.619a4.781,4.781,0,0,1-.547,2.148,11.939,11.939,0,0,1-1.875,2.549l-3.232,3.408h6.113Zm6.709-5.557a14.221,14.221,0,0,1-.635,4.248,11.531,11.531,0,0,1-1.826,3.6,6.579,6.579,0,0,1-2.549,2.148l-.547-1.494a6.867,6.867,0,0,0,2.188-3.223,14.923,14.923,0,0,0,.83-5.01V13.2a15.261,15.261,0,0,0-.8-5.146,7.158,7.158,0,0,0-2.222-3.34l.547-1.494a6.581,6.581,0,0,1,2.5,2.09,11.383,11.383,0,0,1,1.826,3.525,14.12,14.12,0,0,1,.679,4.17ZM158.1,8.878h.94v1.327h-.94V12h-1.646V10.206h-3.4l-.074-1.037,3.458-5.463H158.1Zm-3.48,0h1.834V5.951l-.108.188ZM29.337,43.219a14.987,14.987,0,0,1,.6-4.258,11.236,11.236,0,0,1,1.758-3.579,6.564,6.564,0,0,1,2.52-2.163l.547,1.523A6.8,6.8,0,0,0,32.53,38a15.1,15.1,0,0,0-.8,5.156v.3a15.391,15.391,0,0,0,.791,5.176,6.93,6.93,0,0,0,2.236,3.311l-.547,1.494a6.566,6.566,0,0,1-2.476-2.1,11.048,11.048,0,0,1-1.753-3.481,14.9,14.9,0,0,1-.645-4.121ZM42.97,49H40.148V38.121l-3.369,1.045V36.871l5.889-2.109h.3Zm5.469,3.564-1.475-.771.352-.635a5.074,5.074,0,0,0,.674-2.373V46.6h2.383l-.01,1.953a5.074,5.074,0,0,1-.547,2.188A5.608,5.608,0,0,1,48.439,52.564ZM62.218,49H52.472V47.066l4.6-4.9a11.347,11.347,0,0,0,1.4-1.807,2.9,2.9,0,0,0,.454-1.465,2.172,2.172,0,0,0-.479-1.489,1.727,1.727,0,0,0-1.367-.542,1.863,1.863,0,0,0-1.509.659,2.611,2.611,0,0,0-.552,1.733H52.189a4.661,4.661,0,0,1,.62-2.373A4.371,4.371,0,0,1,54.562,35.2a5.328,5.328,0,0,1,2.568-.61,5.045,5.045,0,0,1,3.413,1.055,3.731,3.731,0,0,1,1.216,2.979,4.781,4.781,0,0,1-.547,2.148,11.939,11.939,0,0,1-1.875,2.549L56.1,46.725h6.113ZM71.6,34.635v2.324h-.273a4.8,4.8,0,0,0-3.081,1,4.047,4.047,0,0,0-1.4,2.686,3.844,3.844,0,0,1,2.861-1.152,3.622,3.622,0,0,1,2.949,1.328,5.324,5.324,0,0,1,1.094,3.5,5.237,5.237,0,0,1-.6,2.51,4.307,4.307,0,0,1-1.7,1.748,4.937,4.937,0,0,1-2.485.625,4.611,4.611,0,0,1-3.628-1.562,6.065,6.065,0,0,1-1.382-4.17V42.447a9.128,9.128,0,0,1,.874-4.087,6.409,6.409,0,0,1,2.51-2.744,7.354,7.354,0,0,1,3.794-.981Zm-2.754,7.129a2.255,2.255,0,0,0-1.24.356,2.143,2.143,0,0,0-.82.941v.858a3.8,3.8,0,0,0,.557,2.208,1.8,1.8,0,0,0,1.563.794,1.779,1.779,0,0,0,1.47-.716,3.363,3.363,0,0,0,0-3.728A1.846,1.846,0,0,0,68.849,41.764Zm15.84-3.2a3.307,3.307,0,0,1-.518,1.836,3.725,3.725,0,0,1-1.426,1.279,4.124,4.124,0,0,1,1.641,1.372,3.52,3.52,0,0,1,.605,2.056A3.727,3.727,0,0,1,83.7,48.1a6.147,6.147,0,0,1-7.021,0,3.718,3.718,0,0,1-1.3-2.988,3.542,3.542,0,0,1,.605-2.061,4.049,4.049,0,0,1,1.631-1.367A3.687,3.687,0,0,1,76.2,40.4a3.331,3.331,0,0,1-.513-1.836,3.685,3.685,0,0,1,1.211-2.9,5.571,5.571,0,0,1,6.577-.01A3.671,3.671,0,0,1,84.689,38.561ZM82.159,44.9a2.047,2.047,0,0,0-.537-1.484,2.149,2.149,0,0,0-2.881,0,2.316,2.316,0,0,0-.01,2.954,2.2,2.2,0,0,0,2.905.02A2.039,2.039,0,0,0,82.159,44.9Zm-.293-6.2a1.953,1.953,0,0,0-.439-1.333,1.788,1.788,0,0,0-2.471-.015,1.942,1.942,0,0,0-.439,1.348,2.041,2.041,0,0,0,.439,1.367,1.739,1.739,0,0,0,2.476,0A2.056,2.056,0,0,0,81.866,38.7ZM96.642,49H86.9V47.066l4.6-4.9a11.347,11.347,0,0,0,1.4-1.807,2.9,2.9,0,0,0,.454-1.465,2.172,2.172,0,0,0-.479-1.489,1.727,1.727,0,0,0-1.367-.542A1.863,1.863,0,0,0,90,37.521a2.611,2.611,0,0,0-.552,1.733H86.612a4.661,4.661,0,0,1,.62-2.373A4.371,4.371,0,0,1,88.985,35.2a5.328,5.328,0,0,1,2.568-.61,5.045,5.045,0,0,1,3.413,1.055,3.731,3.731,0,0,1,1.216,2.979,4.781,4.781,0,0,1-.547,2.148,11.939,11.939,0,0,1-1.875,2.549l-3.232,3.408h6.113Zm6.709-5.557a14.221,14.221,0,0,1-.635,4.248,11.531,11.531,0,0,1-1.826,3.6,6.579,6.579,0,0,1-2.549,2.148l-.547-1.494a6.867,6.867,0,0,0,2.188-3.223,14.923,14.923,0,0,0,.83-5.01V43.2a15.261,15.261,0,0,0-.8-5.146,7.158,7.158,0,0,0-2.222-3.34l.547-1.494a6.581,6.581,0,0,1,2.5,2.09,11.383,11.383,0,0,1,1.826,3.525,14.12,14.12,0,0,1,.679,4.17Zm6.538-4.565h.94v1.327h-.94V42h-1.646V40.206h-3.4l-.074-1.037,3.458-5.463h1.663Zm-3.48,0h1.834V35.951l-.108.188Zm16.292,5.17h-5.5V41.773h5.5ZM136.684,49h-2.822V38.121l-3.369,1.045V36.871l5.889-2.109h.3Z" transform="translate(715.769 10785.938)" fill="#12263f"/>
      <path id="Trazado_585926" data-name="Trazado 585926" d="M-6338.762-12773.541h90.566" transform="translate(6763.731 23589.973)" fill="none" stroke="#12263f" stroke-width="2"/>
      <path id="Trazado_588046" data-name="Trazado 588046" d="M-6338.762-12773.541H-6171.5" transform="translate(7055.731 23589.973)" fill="none" stroke="#12263f" stroke-width="2"/>
      <text id="_" data-name=" [ " transform="translate(382.231 10838.303)" fill="#12263f" font-size="66" font-family="Roboto-Regular, Roboto"><tspan x="0" y="0" xml:space="preserve"> [ </tspan></text>
      <text id="_2" data-name=" [ " transform="translate(674.231 10838.303)" fill="#12263f" font-size="66" font-family="Roboto-Regular, Roboto"><tspan x="0" y="0" xml:space="preserve"> [ </tspan></text>
      <text id="_3" data-name="]" transform="translate(524.231 10838.303)" fill="#12263f" font-size="66" font-family="Roboto-Regular, Roboto"><tspan x="0" y="0">]</tspan></text>
      <text id="_4" data-name="]" transform="translate(890.231 10838.303)" fill="#12263f" font-size="66" font-family="Roboto-Regular, Roboto"><tspan x="0" y="0">]</tspan></text>
      <g id="Grupo_1072712" data-name="Grupo 1072712">
        <path id="Trazado_612889" data-name="Trazado 612889" d="M14.954,13.121a7.2,7.2,0,0,1-1.221,4.512A4.261,4.261,0,0,1,10.159,19.2,4.291,4.291,0,0,1,6.6,17.662a6.992,6.992,0,0,1-1.26-4.395V10.65A7.109,7.109,0,0,1,6.58,6.129a4.293,4.293,0,0,1,3.56-1.543,4.3,4.3,0,0,1,3.555,1.528,6.971,6.971,0,0,1,1.26,4.39Zm-2.822-2.878a5.207,5.207,0,0,0-.483-2.576,1.634,1.634,0,0,0-1.509-.806,1.6,1.6,0,0,0-1.47.767,4.873,4.873,0,0,0-.5,2.4v3.46a5.466,5.466,0,0,0,.474,2.586,1.612,1.612,0,0,0,1.519.846,1.585,1.585,0,0,0,1.494-.811,5.335,5.335,0,0,0,.479-2.483Zm5.576,12.321-1.475-.771.352-.635a5.074,5.074,0,0,0,.674-2.373V16.6h2.383l-.01,1.953a5.074,5.074,0,0,1-.547,2.188A5.608,5.608,0,0,1,17.708,22.564ZM29.4,4.635V6.959h-.273a4.8,4.8,0,0,0-3.081,1,4.047,4.047,0,0,0-1.4,2.686A3.844,3.844,0,0,1,27.5,9.488a3.622,3.622,0,0,1,2.949,1.328,5.324,5.324,0,0,1,1.094,3.5,5.237,5.237,0,0,1-.6,2.51,4.307,4.307,0,0,1-1.7,1.748,4.937,4.937,0,0,1-2.485.625,4.611,4.611,0,0,1-3.628-1.562,6.065,6.065,0,0,1-1.382-4.17V12.447a9.128,9.128,0,0,1,.874-4.087,6.409,6.409,0,0,1,2.51-2.744,7.354,7.354,0,0,1,3.794-.981Zm-2.754,7.129a2.255,2.255,0,0,0-1.24.356,2.143,2.143,0,0,0-.82.941v.858a3.8,3.8,0,0,0,.557,2.208,1.8,1.8,0,0,0,1.563.794,1.779,1.779,0,0,0,1.47-.716,2.922,2.922,0,0,0,.562-1.857,2.916,2.916,0,0,0-.566-1.871A1.846,1.846,0,0,0,26.644,11.764Zm13.174,1.553A3.564,3.564,0,0,1,37.239,14.4a3.811,3.811,0,0,1-3.018-1.294,5.114,5.114,0,0,1-1.133-3.491,5.447,5.447,0,0,1,.61-2.563,4.477,4.477,0,0,1,1.7-1.816,4.728,4.728,0,0,1,2.461-.649,4.522,4.522,0,0,1,2.5.7,4.623,4.623,0,0,1,1.7,2.021,7.258,7.258,0,0,1,.615,3.018v1.045a8.224,8.224,0,0,1-1.768,5.586,6.683,6.683,0,0,1-5.01,2.168l-.693.01V16.783l.625-.01Q39.515,16.607,39.817,13.316Zm-1.885-1.074a1.974,1.974,0,0,0,1.177-.352,2.349,2.349,0,0,0,.747-.85V9.879a3.881,3.881,0,0,0-.547-2.227,1.7,1.7,0,0,0-1.465-.791,1.648,1.648,0,0,0-1.4.776A3.3,3.3,0,0,0,35.9,9.586a3.212,3.212,0,0,0,.532,1.909A1.734,1.734,0,0,0,37.933,12.242Zm9.629-1.6h1.5a2.119,2.119,0,0,0,1.592-.537,1.968,1.968,0,0,0,.518-1.426,1.74,1.74,0,0,0-.513-1.338,1.987,1.987,0,0,0-1.411-.479,2.083,2.083,0,0,0-1.357.444,1.421,1.421,0,0,0-.547,1.157H44.524a3.471,3.471,0,0,1,.6-2A4,4,0,0,1,46.8,5.084a5.606,5.606,0,0,1,2.378-.5,5.316,5.316,0,0,1,3.535,1.079A3.682,3.682,0,0,1,54,8.639a2.992,2.992,0,0,1-.6,1.8,3.87,3.87,0,0,1-1.562,1.26,3.533,3.533,0,0,1,1.792,1.289,3.5,3.5,0,0,1,.591,2.031,3.743,3.743,0,0,1-1.382,3.037A5.556,5.556,0,0,1,49.183,19.2,5.268,5.268,0,0,1,45.7,18.072,3.668,3.668,0,0,1,44.349,15.1h2.822a1.635,1.635,0,0,0,.6,1.309,2.505,2.505,0,0,0,3.057-.024,1.837,1.837,0,0,0,.571-1.411q0-2.129-2.344-2.129H47.562ZM65.833,6.357,60.335,19H57.356L62.864,7.057h-7.07V4.781H65.833ZM75.3,4.635V6.959h-.273a4.8,4.8,0,0,0-3.081,1,4.047,4.047,0,0,0-1.4,2.686A3.844,3.844,0,0,1,73.4,9.488a3.622,3.622,0,0,1,2.949,1.328,5.324,5.324,0,0,1,1.094,3.5,5.237,5.237,0,0,1-.6,2.51,4.307,4.307,0,0,1-1.7,1.748,4.937,4.937,0,0,1-2.485.625,4.611,4.611,0,0,1-3.628-1.562,6.065,6.065,0,0,1-1.382-4.17V12.447a9.128,9.128,0,0,1,.874-4.087,6.409,6.409,0,0,1,2.51-2.744,7.354,7.354,0,0,1,3.794-.981Zm-2.754,7.129a2.255,2.255,0,0,0-1.24.356,2.143,2.143,0,0,0-.82.941v.858a3.8,3.8,0,0,0,.557,2.208,1.8,1.8,0,0,0,1.563.794,1.779,1.779,0,0,0,1.47-.716,2.922,2.922,0,0,0,.562-1.857,2.916,2.916,0,0,0-.566-1.871A1.846,1.846,0,0,0,72.542,11.764Zm16.143,1.357a7.2,7.2,0,0,1-1.221,4.512,4.878,4.878,0,0,1-7.129.029,6.992,6.992,0,0,1-1.26-4.395V10.65a7.109,7.109,0,0,1,1.235-4.521,4.888,4.888,0,0,1,7.114-.015,6.971,6.971,0,0,1,1.26,4.39Zm-2.822-2.878a5.207,5.207,0,0,0-.483-2.576,1.634,1.634,0,0,0-1.509-.806,1.6,1.6,0,0,0-1.47.767,4.873,4.873,0,0,0-.5,2.4v3.46a5.466,5.466,0,0,0,.474,2.586,1.612,1.612,0,0,0,1.519.846,1.585,1.585,0,0,0,1.494-.811,5.335,5.335,0,0,0,.479-2.483ZM99.856,8.561a3.307,3.307,0,0,1-.518,1.836,3.725,3.725,0,0,1-1.426,1.279,4.124,4.124,0,0,1,1.641,1.372,3.52,3.52,0,0,1,.605,2.056A3.727,3.727,0,0,1,98.87,18.1a6.147,6.147,0,0,1-7.021,0,3.718,3.718,0,0,1-1.3-2.988,3.542,3.542,0,0,1,.605-2.061,4.049,4.049,0,0,1,1.631-1.367A3.687,3.687,0,0,1,91.365,10.4a3.331,3.331,0,0,1-.513-1.836,3.685,3.685,0,0,1,1.211-2.9,5.571,5.571,0,0,1,6.577-.01A3.671,3.671,0,0,1,99.856,8.561ZM97.327,14.9a2.047,2.047,0,0,0-.537-1.484,2.149,2.149,0,0,0-2.881,0,2.044,2.044,0,0,0-.537,1.489,2.042,2.042,0,0,0,.527,1.465,2.2,2.2,0,0,0,2.905.02A2.039,2.039,0,0,0,97.327,14.9Zm-.293-6.2a1.953,1.953,0,0,0-.439-1.333,1.788,1.788,0,0,0-2.471-.015A1.942,1.942,0,0,0,93.685,8.7a2.041,2.041,0,0,0,.439,1.367,1.739,1.739,0,0,0,2.476,0A2.056,2.056,0,0,0,97.034,8.7ZM108.919,19H106.1V8.121l-3.369,1.045V6.871l5.889-2.109h.3Zm11.221-5.684a3.564,3.564,0,0,1-2.578,1.084,3.811,3.811,0,0,1-3.018-1.294,5.114,5.114,0,0,1-1.133-3.491,5.447,5.447,0,0,1,.61-2.563,4.477,4.477,0,0,1,1.7-1.816,4.728,4.728,0,0,1,2.461-.649,4.522,4.522,0,0,1,2.5.7,4.623,4.623,0,0,1,1.7,2.021A7.258,7.258,0,0,1,123,10.328v1.045a8.224,8.224,0,0,1-1.768,5.586,6.683,6.683,0,0,1-5.01,2.168l-.693.01V16.783l.625-.01Q119.837,16.607,120.14,13.316Zm-1.885-1.074a1.974,1.974,0,0,0,1.177-.352,2.349,2.349,0,0,0,.747-.85V9.879a3.881,3.881,0,0,0-.547-2.227,1.7,1.7,0,0,0-1.465-.791,1.648,1.648,0,0,0-1.4.776,3.3,3.3,0,0,0-.547,1.948,3.212,3.212,0,0,0,.532,1.909A1.734,1.734,0,0,0,118.255,12.242ZM12.239,49H9.417V38.121L6.048,39.166V36.871l5.889-2.109h.3Zm5.469,3.564-1.475-.771.352-.635a5.074,5.074,0,0,0,.674-2.373V46.6h2.383l-.01,1.953a5.074,5.074,0,0,1-.547,2.188A5.608,5.608,0,0,1,17.708,52.564Zm4.453-10.557.82-7.227H30.95v2.354H25.3l-.352,3.057a4.474,4.474,0,0,1,2.139-.537,4.1,4.1,0,0,1,3.184,1.26,5.032,5.032,0,0,1,1.152,3.525,5.155,5.155,0,0,1-.581,2.466,4.1,4.1,0,0,1-1.665,1.689,5.2,5.2,0,0,1-2.559.6,5.52,5.52,0,0,1-2.393-.522,4.244,4.244,0,0,1-1.743-1.47,4.006,4.006,0,0,1-.679-2.158h2.793a2.086,2.086,0,0,0,.62,1.382,1.966,1.966,0,0,0,1.392.493,1.735,1.735,0,0,0,1.475-.688,3.189,3.189,0,0,0,.518-1.948,2.637,2.637,0,0,0-.6-1.855,2.186,2.186,0,0,0-1.689-.645,2.443,2.443,0,0,0-1.631.527l-.273.254Zm20.322-3.447a3.307,3.307,0,0,1-.518,1.836,3.725,3.725,0,0,1-1.426,1.279,4.123,4.123,0,0,1,1.641,1.372,3.52,3.52,0,0,1,.605,2.056A3.727,3.727,0,0,1,41.5,48.1a5.229,5.229,0,0,1-3.506,1.1,5.253,5.253,0,0,1-3.516-1.1,3.718,3.718,0,0,1-1.3-2.988,3.542,3.542,0,0,1,.605-2.061,4.049,4.049,0,0,1,1.631-1.367A3.687,3.687,0,0,1,33.992,40.4a3.331,3.331,0,0,1-.513-1.836,3.685,3.685,0,0,1,1.211-2.9,4.768,4.768,0,0,1,3.291-1.079,4.8,4.8,0,0,1,3.286,1.069A3.671,3.671,0,0,1,42.483,38.561ZM39.954,44.9a2.047,2.047,0,0,0-.537-1.484,2.149,2.149,0,0,0-2.881,0,2.316,2.316,0,0,0-.01,2.954,2.2,2.2,0,0,0,2.905.02A2.039,2.039,0,0,0,39.954,44.9Zm-.293-6.2a1.953,1.953,0,0,0-.439-1.333,1.788,1.788,0,0,0-2.471-.015,1.942,1.942,0,0,0-.439,1.348,2.041,2.041,0,0,0,.439,1.367,1.739,1.739,0,0,0,2.476,0A2.056,2.056,0,0,0,39.661,38.7Zm12.686-4.062v2.324h-.273a4.8,4.8,0,0,0-3.081,1,4.047,4.047,0,0,0-1.4,2.686,3.844,3.844,0,0,1,2.861-1.152A3.622,3.622,0,0,1,53.4,40.816a5.324,5.324,0,0,1,1.094,3.5,5.237,5.237,0,0,1-.6,2.51,4.307,4.307,0,0,1-1.7,1.748,4.937,4.937,0,0,1-2.485.625,4.611,4.611,0,0,1-3.628-1.562,6.065,6.065,0,0,1-1.382-4.17V42.447a9.128,9.128,0,0,1,.874-4.087,6.409,6.409,0,0,1,2.51-2.744,7.354,7.354,0,0,1,3.794-.981Zm-2.754,7.129a2.255,2.255,0,0,0-1.24.356,2.143,2.143,0,0,0-.82.941v.858a3.8,3.8,0,0,0,.557,2.208,1.8,1.8,0,0,0,1.563.794,1.779,1.779,0,0,0,1.47-.716,3.363,3.363,0,0,0,0-3.728A1.846,1.846,0,0,0,49.593,41.764Zm16.24-5.407L60.335,49H57.356l5.508-11.943h-7.07V34.781H65.833ZM77.386,49H67.64V47.066l4.6-4.9a11.347,11.347,0,0,0,1.4-1.807,2.9,2.9,0,0,0,.454-1.465,2.172,2.172,0,0,0-.479-1.489,1.727,1.727,0,0,0-1.367-.542,1.863,1.863,0,0,0-1.509.659,2.611,2.611,0,0,0-.552,1.733H67.356a4.661,4.661,0,0,1,.62-2.373A4.371,4.371,0,0,1,69.729,35.2a5.328,5.328,0,0,1,2.568-.61,5.045,5.045,0,0,1,3.413,1.055,3.731,3.731,0,0,1,1.216,2.979,4.781,4.781,0,0,1-.547,2.148A11.939,11.939,0,0,1,74.5,43.316l-3.232,3.408h6.113Zm8.33-5.684A3.564,3.564,0,0,1,83.138,44.4a3.811,3.811,0,0,1-3.018-1.294,5.114,5.114,0,0,1-1.133-3.491,5.447,5.447,0,0,1,.61-2.563,4.477,4.477,0,0,1,1.7-1.816,4.728,4.728,0,0,1,2.461-.649,4.522,4.522,0,0,1,2.5.7,4.623,4.623,0,0,1,1.7,2.021,7.258,7.258,0,0,1,.615,3.018v1.045a8.224,8.224,0,0,1-1.768,5.586,6.683,6.683,0,0,1-5.01,2.168l-.693.01V46.783l.625-.01Q85.413,46.607,85.716,43.316Zm-1.885-1.074a1.974,1.974,0,0,0,1.177-.352,2.349,2.349,0,0,0,.747-.85V39.879a3.881,3.881,0,0,0-.547-2.227,1.7,1.7,0,0,0-1.465-.791,1.648,1.648,0,0,0-1.4.776,3.3,3.3,0,0,0-.547,1.948,3.212,3.212,0,0,0,.532,1.909A1.734,1.734,0,0,0,83.831,42.242Zm9.629-1.6h1.5a2.119,2.119,0,0,0,1.592-.537,1.968,1.968,0,0,0,.518-1.426,1.74,1.74,0,0,0-.513-1.338,1.987,1.987,0,0,0-1.411-.479,2.083,2.083,0,0,0-1.357.444,1.421,1.421,0,0,0-.547,1.157H90.423a3.471,3.471,0,0,1,.6-2,4,4,0,0,1,1.68-1.382,5.606,5.606,0,0,1,2.378-.5,5.316,5.316,0,0,1,3.535,1.079A3.682,3.682,0,0,1,99.9,38.639a2.992,2.992,0,0,1-.6,1.8,3.87,3.87,0,0,1-1.562,1.26,3.533,3.533,0,0,1,1.792,1.289,3.5,3.5,0,0,1,.591,2.031,3.743,3.743,0,0,1-1.382,3.037A5.556,5.556,0,0,1,95.081,49.2,5.268,5.268,0,0,1,91.6,48.072,3.668,3.668,0,0,1,90.247,45.1h2.822a1.635,1.635,0,0,0,.6,1.309,2.505,2.505,0,0,0,3.057-.024,1.837,1.837,0,0,0,.571-1.411q0-2.129-2.344-2.129H93.46Zm18.271-4.284L106.233,49h-2.979l5.508-11.943h-7.07V34.781h10.039Zm11.074,2.2a3.307,3.307,0,0,1-.518,1.836,3.725,3.725,0,0,1-1.426,1.279,4.124,4.124,0,0,1,1.641,1.372,3.52,3.52,0,0,1,.605,2.056,3.727,3.727,0,0,1-1.289,2.993,6.147,6.147,0,0,1-7.021,0,3.718,3.718,0,0,1-1.3-2.988,3.542,3.542,0,0,1,.605-2.061,4.049,4.049,0,0,1,1.631-1.367,3.687,3.687,0,0,1-1.421-1.279,3.331,3.331,0,0,1-.513-1.836,3.685,3.685,0,0,1,1.211-2.9,5.571,5.571,0,0,1,6.577-.01A3.671,3.671,0,0,1,122.806,38.561ZM120.276,44.9a2.047,2.047,0,0,0-.537-1.484,2.149,2.149,0,0,0-2.881,0,2.316,2.316,0,0,0-.01,2.954,2.2,2.2,0,0,0,2.905.02A2.039,2.039,0,0,0,120.276,44.9Zm-.293-6.2a1.953,1.953,0,0,0-.439-1.333,1.788,1.788,0,0,0-2.471-.015,1.942,1.942,0,0,0-.439,1.348,2.041,2.041,0,0,0,.439,1.367,1.739,1.739,0,0,0,2.476,0A2.056,2.056,0,0,0,119.983,38.7Z" transform="translate(1094.335 10785.938)" fill="#12263f"/>
        <path id="Trazado_588047" data-name="Trazado 588047" d="M-6338.762-12773.541h135.846" transform="translate(7429.993 23589.973)" fill="none" stroke="#12263f" stroke-width="2"/>
        <text id="_5" data-name=" [ " transform="translate(1047.231 10838.303)" fill="#12263f" font-size="66" font-family="Roboto-Regular, Roboto"><tspan x="0" y="0" xml:space="preserve"> [ </tspan></text>
        <text id="_6" data-name="]" transform="translate(1238.231 10838.303)" fill="#12263f" font-size="66" font-family="Roboto-Regular, Roboto"><tspan x="0" y="0">]</tspan></text>
      </g>
      <g id="Grupo_877096" data-name="Grupo 877096" transform="translate(29 -452.312)">
        <rect id="Rect치ngulo_296858" data-name="Rect치ngulo 296858" width="482" height="51" transform="translate(530 11341)" fill="#3ae3fe"/>
        <path id="Trazado_612890" data-name="Trazado 612890" d="M18.536,16.07H13.4L12.422,19H9.307L14.6,4.781h2.715L22.637,19H19.522ZM14.19,13.7h3.555L15.958,8.375Zm23.545-1.982H29V9.41h8.73Zm0,4.229H29v-2.3h8.73Zm15.684-2.295H55.03v2.275H53.418V19H50.6V15.924h-5.83l-.127-1.777,5.928-9.365h2.852Zm-5.967,0H50.6V8.629l-.186.322Zm18.662-.527a7.2,7.2,0,0,1-1.221,4.512,4.878,4.878,0,0,1-7.129.029,6.992,6.992,0,0,1-1.26-4.395V10.65A7.109,7.109,0,0,1,57.74,6.129a4.888,4.888,0,0,1,7.114-.015,6.971,6.971,0,0,1,1.26,4.39Zm-2.822-2.878a5.207,5.207,0,0,0-.483-2.576A1.634,1.634,0,0,0,61.3,6.861a1.6,1.6,0,0,0-1.47.767,4.873,4.873,0,0,0-.5,2.4v3.46a5.466,5.466,0,0,0,.474,2.586,1.612,1.612,0,0,0,1.519.846,1.585,1.585,0,0,0,1.494-.811,5.335,5.335,0,0,0,.479-2.483ZM69.961,4h3.076L70.333,7.027H68.038Zm14.258,9.121A7.2,7.2,0,0,1,83,17.633a4.878,4.878,0,0,1-7.129.029,6.992,6.992,0,0,1-1.26-4.395V10.65a7.109,7.109,0,0,1,1.235-4.521,4.888,4.888,0,0,1,7.114-.015,6.971,6.971,0,0,1,1.26,4.39ZM81.4,10.244a5.207,5.207,0,0,0-.483-2.576A1.634,1.634,0,0,0,79.4,6.861a1.6,1.6,0,0,0-1.47.767,4.873,4.873,0,0,0-.5,2.4v3.46a5.466,5.466,0,0,0,.474,2.586,1.612,1.612,0,0,0,1.519.846,1.585,1.585,0,0,0,1.494-.811,5.335,5.335,0,0,0,.479-2.483Zm14.3,2.878a7.2,7.2,0,0,1-1.221,4.512,4.878,4.878,0,0,1-7.129.029,6.992,6.992,0,0,1-1.26-4.395V10.65A7.109,7.109,0,0,1,87.32,6.129a4.888,4.888,0,0,1,7.114-.015,6.971,6.971,0,0,1,1.26,4.39Zm-2.822-2.878a5.207,5.207,0,0,0-.483-2.576,1.634,1.634,0,0,0-1.509-.806,1.6,1.6,0,0,0-1.47.767,4.873,4.873,0,0,0-.5,2.4v3.46a5.466,5.466,0,0,0,.474,2.586,1.612,1.612,0,0,0,1.519.846,1.585,1.585,0,0,0,1.494-.811,5.335,5.335,0,0,0,.479-2.483Zm14.3,2.878a7.2,7.2,0,0,1-1.221,4.512,4.878,4.878,0,0,1-7.129.029,6.992,6.992,0,0,1-1.26-4.395V10.65a7.109,7.109,0,0,1,1.235-4.521,4.888,4.888,0,0,1,7.114-.015,6.971,6.971,0,0,1,1.26,4.39Zm-2.822-2.878a5.207,5.207,0,0,0-.483-2.576,1.634,1.634,0,0,0-1.509-.806,1.6,1.6,0,0,0-1.47.767,4.873,4.873,0,0,0-.5,2.4v3.46a5.466,5.466,0,0,0,.474,2.586,1.612,1.612,0,0,0,1.519.846,1.585,1.585,0,0,0,1.494-.811,5.335,5.335,0,0,0,.479-2.483Zm4.99,7.37a1.421,1.421,0,0,1,.454-1.094,1.764,1.764,0,0,1,2.285,0,1.421,1.421,0,0,1,.454,1.094,1.4,1.4,0,0,1-.449,1.079,1.794,1.794,0,0,1-2.295,0A1.4,1.4,0,0,1,109.336,17.613Zm15.117-4.492a7.2,7.2,0,0,1-1.221,4.512,4.878,4.878,0,0,1-7.129.029,6.992,6.992,0,0,1-1.26-4.395V10.65a7.109,7.109,0,0,1,1.235-4.521,4.888,4.888,0,0,1,7.114-.015,6.971,6.971,0,0,1,1.26,4.39Zm-2.822-2.878a5.207,5.207,0,0,0-.483-2.576,1.634,1.634,0,0,0-1.509-.806,1.6,1.6,0,0,0-1.47.767,4.873,4.873,0,0,0-.5,2.4v3.46a5.466,5.466,0,0,0,.474,2.586,1.612,1.612,0,0,0,1.519.846,1.585,1.585,0,0,0,1.494-.811,5.335,5.335,0,0,0,.479-2.483Zm14.3,2.878a7.2,7.2,0,0,1-1.221,4.512,4.878,4.878,0,0,1-7.129.029,6.992,6.992,0,0,1-1.26-4.395V10.65a7.109,7.109,0,0,1,1.235-4.521,4.888,4.888,0,0,1,7.114-.015,6.971,6.971,0,0,1,1.26,4.39Zm-2.822-2.878a5.207,5.207,0,0,0-.483-2.576,1.634,1.634,0,0,0-1.509-.806,1.6,1.6,0,0,0-1.47.767,4.873,4.873,0,0,0-.5,2.4v3.46a5.466,5.466,0,0,0,.474,2.586,1.612,1.612,0,0,0,1.519.846,1.585,1.585,0,0,0,1.494-.811,5.335,5.335,0,0,0,.479-2.483Zm14.3,2.878a7.2,7.2,0,0,1-1.221,4.512,4.878,4.878,0,0,1-7.129.029,6.992,6.992,0,0,1-1.26-4.395V10.65a7.109,7.109,0,0,1,1.235-4.521,4.888,4.888,0,0,1,7.114-.015,6.971,6.971,0,0,1,1.26,4.39Zm-2.822-2.878a5.207,5.207,0,0,0-.483-2.576,1.634,1.634,0,0,0-1.509-.806,1.6,1.6,0,0,0-1.47.767,4.873,4.873,0,0,0-.5,2.4v3.46a5.466,5.466,0,0,0,.474,2.586,1.612,1.612,0,0,0,1.519.846,1.585,1.585,0,0,0,1.494-.811,5.335,5.335,0,0,0,.479-2.483Zm9.951,2.975a14.987,14.987,0,0,1,.6-4.258,11.236,11.236,0,0,1,1.758-3.579,6.564,6.564,0,0,1,2.52-2.163l.547,1.523A6.8,6.8,0,0,0,157.725,8a15.1,15.1,0,0,0-.8,5.156v.3a15.391,15.391,0,0,0,.791,5.176,6.93,6.93,0,0,0,2.236,3.311l-.547,1.494a6.566,6.566,0,0,1-2.476-2.1,11.048,11.048,0,0,1-1.753-3.481,14.9,14.9,0,0,1-.645-4.121Zm16.348-.1a7.2,7.2,0,0,1-1.221,4.512,4.878,4.878,0,0,1-7.129.029,6.992,6.992,0,0,1-1.26-4.395V10.65a7.109,7.109,0,0,1,1.235-4.521,4.888,4.888,0,0,1,7.114-.015,6.971,6.971,0,0,1,1.26,4.39Zm-2.822-2.878a5.207,5.207,0,0,0-.483-2.576,1.634,1.634,0,0,0-1.509-.806,1.6,1.6,0,0,0-1.47.767,4.873,4.873,0,0,0-.5,2.4v3.46a5.466,5.466,0,0,0,.474,2.586,1.612,1.612,0,0,0,1.519.846,1.585,1.585,0,0,0,1.494-.811,5.335,5.335,0,0,0,.479-2.483Zm5.576,12.321-1.475-.771.352-.635a5.074,5.074,0,0,0,.674-2.373V16.6h2.383l-.01,1.953a5.074,5.074,0,0,1-.547,2.188A5.608,5.608,0,0,1,173.633,22.564Zm12.383-8.916h1.611v2.275h-1.611V19h-2.822V15.924h-5.83l-.127-1.777,5.928-9.365h2.852Zm-5.967,0h3.145V8.629l-.186.322Zm11.963-3.008h1.5a2.119,2.119,0,0,0,1.592-.537,1.968,1.968,0,0,0,.518-1.426,1.74,1.74,0,0,0-.513-1.338,1.987,1.987,0,0,0-1.411-.479,2.083,2.083,0,0,0-1.357.444,1.421,1.421,0,0,0-.547,1.157h-2.822a3.471,3.471,0,0,1,.6-2,4,4,0,0,1,1.68-1.382,5.606,5.606,0,0,1,2.378-.5,5.316,5.316,0,0,1,3.535,1.079,3.682,3.682,0,0,1,1.279,2.974,2.992,2.992,0,0,1-.6,1.8,3.87,3.87,0,0,1-1.562,1.26,3.533,3.533,0,0,1,1.792,1.289,3.5,3.5,0,0,1,.591,2.031,3.743,3.743,0,0,1-1.382,3.037,5.556,5.556,0,0,1-3.657,1.143,5.268,5.268,0,0,1-3.481-1.123A3.668,3.668,0,0,1,188.8,15.1h2.822a1.635,1.635,0,0,0,.6,1.309,2.505,2.505,0,0,0,3.057-.024,1.837,1.837,0,0,0,.571-1.411q0-2.129-2.344-2.129h-1.494Zm18.271-4.284L204.786,19h-2.979l5.508-11.943h-7.07V4.781h10.039ZM221.836,19H212.09V17.066l4.6-4.9a11.347,11.347,0,0,0,1.4-1.807,2.9,2.9,0,0,0,.454-1.465,2.172,2.172,0,0,0-.479-1.489,1.727,1.727,0,0,0-1.367-.542,1.863,1.863,0,0,0-1.509.659,2.611,2.611,0,0,0-.552,1.733h-2.832a4.661,4.661,0,0,1,.62-2.373A4.371,4.371,0,0,1,214.18,5.2a5.328,5.328,0,0,1,2.568-.61,5.045,5.045,0,0,1,3.413,1.055,3.731,3.731,0,0,1,1.216,2.979,4.781,4.781,0,0,1-.547,2.148,11.939,11.939,0,0,1-1.875,2.549l-3.232,3.408h6.113Zm11.475,0h-9.746V17.066l4.6-4.9a11.347,11.347,0,0,0,1.4-1.807,2.9,2.9,0,0,0,.454-1.465,2.172,2.172,0,0,0-.479-1.489,1.727,1.727,0,0,0-1.367-.542,1.863,1.863,0,0,0-1.509.659,2.611,2.611,0,0,0-.552,1.733h-2.832a4.661,4.661,0,0,1,.62-2.373A4.371,4.371,0,0,1,225.655,5.2a5.328,5.328,0,0,1,2.568-.61,5.045,5.045,0,0,1,3.413,1.055,3.731,3.731,0,0,1,1.216,2.979,4.781,4.781,0,0,1-.547,2.148,11.939,11.939,0,0,1-1.875,2.549L227.2,16.725h6.113ZM242.7,4.635V6.959h-.273a4.8,4.8,0,0,0-3.081,1,4.047,4.047,0,0,0-1.4,2.686A3.844,3.844,0,0,1,240.8,9.488a3.622,3.622,0,0,1,2.949,1.328,5.324,5.324,0,0,1,1.094,3.5,5.237,5.237,0,0,1-.6,2.51,4.307,4.307,0,0,1-1.7,1.748,4.937,4.937,0,0,1-2.485.625,4.611,4.611,0,0,1-3.628-1.562,6.065,6.065,0,0,1-1.382-4.17V12.447a9.127,9.127,0,0,1,.874-4.087,6.409,6.409,0,0,1,2.51-2.744,7.354,7.354,0,0,1,3.794-.981Zm-2.754,7.129a2.255,2.255,0,0,0-1.24.356,2.143,2.143,0,0,0-.82.941v.858a3.8,3.8,0,0,0,.557,2.208A1.8,1.8,0,0,0,240,16.92a1.779,1.779,0,0,0,1.47-.716,2.922,2.922,0,0,0,.562-1.857,2.916,2.916,0,0,0-.566-1.871A1.846,1.846,0,0,0,239.942,11.764Zm13.174,1.553a3.564,3.564,0,0,1-2.578,1.084,3.811,3.811,0,0,1-3.018-1.294,5.114,5.114,0,0,1-1.133-3.491A5.447,5.447,0,0,1,247,7.052a4.477,4.477,0,0,1,1.7-1.816,4.728,4.728,0,0,1,2.461-.649,4.522,4.522,0,0,1,2.5.7,4.623,4.623,0,0,1,1.7,2.021,7.258,7.258,0,0,1,.615,3.018v1.045a8.224,8.224,0,0,1-1.768,5.586,6.683,6.683,0,0,1-5.01,2.168l-.693.01V16.783l.625-.01Q252.813,16.607,253.116,13.316Zm-1.885-1.074a1.974,1.974,0,0,0,1.177-.352,2.349,2.349,0,0,0,.747-.85V9.879a3.881,3.881,0,0,0-.547-2.227,1.7,1.7,0,0,0-1.465-.791,1.648,1.648,0,0,0-1.4.776,3.3,3.3,0,0,0-.547,1.948,3.212,3.212,0,0,0,.532,1.909A1.734,1.734,0,0,0,251.231,12.242Zm9.629-1.6h1.5a2.119,2.119,0,0,0,1.592-.537,1.968,1.968,0,0,0,.518-1.426,1.74,1.74,0,0,0-.513-1.338,1.987,1.987,0,0,0-1.411-.479,2.083,2.083,0,0,0-1.357.444,1.421,1.421,0,0,0-.547,1.157h-2.822a3.471,3.471,0,0,1,.6-2,4,4,0,0,1,1.68-1.382,5.606,5.606,0,0,1,2.378-.5,5.316,5.316,0,0,1,3.535,1.079A3.682,3.682,0,0,1,267.3,8.639a2.992,2.992,0,0,1-.6,1.8,3.87,3.87,0,0,1-1.562,1.26,3.533,3.533,0,0,1,1.792,1.289,3.5,3.5,0,0,1,.591,2.031,3.743,3.743,0,0,1-1.382,3.037,5.556,5.556,0,0,1-3.657,1.143A5.268,5.268,0,0,1,259,18.072a3.668,3.668,0,0,1-1.353-2.969h2.822a1.635,1.635,0,0,0,.6,1.309,2.505,2.505,0,0,0,3.057-.024,1.837,1.837,0,0,0,.571-1.411q0-2.129-2.344-2.129H260.86ZM279.209,19h-9.746V17.066l4.6-4.9a11.348,11.348,0,0,0,1.4-1.807,2.9,2.9,0,0,0,.454-1.465A2.172,2.172,0,0,0,275.44,7.4a1.727,1.727,0,0,0-1.367-.542,1.863,1.863,0,0,0-1.509.659,2.611,2.611,0,0,0-.552,1.733H269.18a4.661,4.661,0,0,1,.62-2.373A4.371,4.371,0,0,1,271.553,5.2a5.328,5.328,0,0,1,2.568-.61,5.045,5.045,0,0,1,3.413,1.055,3.731,3.731,0,0,1,1.216,2.979,4.781,4.781,0,0,1-.547,2.148,11.94,11.94,0,0,1-1.875,2.549L273.1,16.725h6.113Zm6.709-5.557a14.221,14.221,0,0,1-.635,4.248,11.531,11.531,0,0,1-1.826,3.6,6.58,6.58,0,0,1-2.549,2.148l-.547-1.494a6.867,6.867,0,0,0,2.188-3.223,14.924,14.924,0,0,0,.83-5.01V13.2a15.26,15.26,0,0,0-.8-5.146,7.158,7.158,0,0,0-2.222-3.34l.547-1.494a6.582,6.582,0,0,1,2.5,2.09,11.383,11.383,0,0,1,1.826,3.525,14.12,14.12,0,0,1,.679,4.17Zm11.162-1.729h-8.73V9.41h8.73Zm0,4.229h-8.73v-2.3h8.73Zm14.082-.684a1.787,1.787,0,0,0-.444-1.274,4.028,4.028,0,0,0-1.509-.874,17.8,17.8,0,0,1-1.836-.8,5.849,5.849,0,0,1-1.323-.908,3.649,3.649,0,0,1-.859-1.206,4.048,4.048,0,0,1-.308-1.65,3.662,3.662,0,0,1,1.055-2.705,4.451,4.451,0,0,1,2.8-1.23V2.525H310.3V4.645a4.078,4.078,0,0,1,2.705,1.44,4.746,4.746,0,0,1,.977,3.1h-2.822a2.694,2.694,0,0,0-.483-1.753,1.6,1.6,0,0,0-1.294-.581,1.646,1.646,0,0,0-1.24.454,1.729,1.729,0,0,0-.439,1.255,1.652,1.652,0,0,0,.43,1.191,4.735,4.735,0,0,0,1.6.918,17.735,17.735,0,0,1,1.919.884,5.539,5.539,0,0,1,1.27.938,3.631,3.631,0,0,1,.791,1.191,4.1,4.1,0,0,1,.273,1.558,3.646,3.646,0,0,1-1.035,2.7,4.54,4.54,0,0,1-2.852,1.221V21.1h-1.553V19.166a4.7,4.7,0,0,1-3.1-1.421,4.58,4.58,0,0,1-1.1-3.208h2.822a2.6,2.6,0,0,0,.552,1.782,2.013,2.013,0,0,0,1.587.62,1.938,1.938,0,0,0,1.357-.454A1.577,1.577,0,0,0,311.163,15.26ZM322.745,19h-2.822V8.121l-3.369,1.045V6.871l5.889-2.109h.3ZM337.032,6.357,331.534,19h-2.979l5.508-11.943h-7.07V4.781h10.039ZM340.782,4h3.076l-2.705,3.027h-2.295Zm13.037,9.648h1.611v2.275h-1.611V19H351V15.924h-5.83l-.127-1.777,5.928-9.365h2.852Zm-5.967,0H351V8.629l-.186.322Zm18.359-5.088a3.307,3.307,0,0,1-.518,1.836,3.725,3.725,0,0,1-1.426,1.279,4.124,4.124,0,0,1,1.641,1.372,3.52,3.52,0,0,1,.605,2.056,3.727,3.727,0,0,1-1.289,2.993,6.147,6.147,0,0,1-7.021,0,3.718,3.718,0,0,1-1.3-2.988,3.542,3.542,0,0,1,.605-2.061,4.049,4.049,0,0,1,1.631-1.367A3.687,3.687,0,0,1,357.72,10.4a3.331,3.331,0,0,1-.513-1.836,3.685,3.685,0,0,1,1.211-2.9A5.571,5.571,0,0,1,365,5.655,3.671,3.671,0,0,1,366.211,8.561ZM363.682,14.9a2.047,2.047,0,0,0-.537-1.484,2.149,2.149,0,0,0-2.881,0,2.044,2.044,0,0,0-.537,1.489,2.042,2.042,0,0,0,.527,1.465,2.2,2.2,0,0,0,2.905.02A2.039,2.039,0,0,0,363.682,14.9Zm-.293-6.2a1.953,1.953,0,0,0-.439-1.333,1.788,1.788,0,0,0-2.471-.015A1.942,1.942,0,0,0,360.04,8.7a2.041,2.041,0,0,0,.439,1.367,1.739,1.739,0,0,0,2.476,0A2.056,2.056,0,0,0,363.389,8.7Zm11.631,4.619a3.564,3.564,0,0,1-2.578,1.084,3.812,3.812,0,0,1-3.018-1.294,5.114,5.114,0,0,1-1.133-3.491,5.447,5.447,0,0,1,.61-2.563,4.477,4.477,0,0,1,1.7-1.816,4.728,4.728,0,0,1,2.461-.649,4.522,4.522,0,0,1,2.5.7,4.623,4.623,0,0,1,1.7,2.021,7.258,7.258,0,0,1,.615,3.018v1.045a8.224,8.224,0,0,1-1.768,5.586,6.683,6.683,0,0,1-5.01,2.168l-.693.01V16.783l.625-.01Q374.717,16.607,375.02,13.316Zm-1.885-1.074a1.974,1.974,0,0,0,1.177-.352,2.349,2.349,0,0,0,.747-.85V9.879a3.881,3.881,0,0,0-.547-2.227,1.7,1.7,0,0,0-1.465-.791,1.648,1.648,0,0,0-1.4.776,3.3,3.3,0,0,0-.547,1.948,3.212,3.212,0,0,0,.532,1.909A1.734,1.734,0,0,0,373.135,12.242Zm7.021,5.371a1.421,1.421,0,0,1,.454-1.094,1.764,1.764,0,0,1,2.285,0,1.421,1.421,0,0,1,.454,1.094,1.4,1.4,0,0,1-.449,1.079,1.794,1.794,0,0,1-2.295,0A1.4,1.4,0,0,1,380.157,17.613Zm15.117-4.492a7.2,7.2,0,0,1-1.221,4.512,4.878,4.878,0,0,1-7.129.029,6.992,6.992,0,0,1-1.26-4.395V10.65A7.108,7.108,0,0,1,386.9,6.129a4.888,4.888,0,0,1,7.114-.015,6.971,6.971,0,0,1,1.26,4.39Zm-2.822-2.878a5.207,5.207,0,0,0-.483-2.576,1.634,1.634,0,0,0-1.509-.806,1.6,1.6,0,0,0-1.47.767,4.873,4.873,0,0,0-.5,2.4v3.46a5.465,5.465,0,0,0,.474,2.586,1.612,1.612,0,0,0,1.519.846,1.585,1.585,0,0,0,1.494-.811,5.335,5.335,0,0,0,.479-2.483Zm14.395-3.887L401.348,19H398.37l5.508-11.943h-7.07V4.781h10.039Zm11.475,0L412.823,19h-2.979l5.508-11.943h-7.07V4.781h10.039Zm2.656,16.208-1.475-.771.352-.635a5.074,5.074,0,0,0,.674-2.373V16.6h2.383l-.01,1.953a5.074,5.074,0,0,1-.547,2.188A5.608,5.608,0,0,1,420.977,22.564Zm6.9-11.924h1.5a2.119,2.119,0,0,0,1.592-.537,1.968,1.968,0,0,0,.518-1.426,1.74,1.74,0,0,0-.513-1.338,1.987,1.987,0,0,0-1.411-.479,2.083,2.083,0,0,0-1.357.444,1.421,1.421,0,0,0-.547,1.157h-2.822a3.471,3.471,0,0,1,.6-2,4,4,0,0,1,1.68-1.382,5.606,5.606,0,0,1,2.378-.5,5.316,5.316,0,0,1,3.535,1.079,3.682,3.682,0,0,1,1.279,2.974,2.992,2.992,0,0,1-.6,1.8,3.87,3.87,0,0,1-1.562,1.26,3.533,3.533,0,0,1,1.792,1.289,3.5,3.5,0,0,1,.591,2.031,3.743,3.743,0,0,1-1.382,3.037A5.556,5.556,0,0,1,429.5,19.2a5.268,5.268,0,0,1-3.481-1.123,3.668,3.668,0,0,1-1.353-2.969h2.822a1.635,1.635,0,0,0,.6,1.309,2.505,2.505,0,0,0,3.057-.024,1.837,1.837,0,0,0,.571-1.411q0-2.129-2.344-2.129h-1.494ZM443.34,19h-2.822V8.121l-3.369,1.045V6.871l5.889-2.109h.3Z" transform="translate(544.5 11353.5)" fill="#12263f"/>
      </g>
    </g>
  </g>
</svg>
