<svg xmlns="http://www.w3.org/2000/svg" width="1030" height="242" viewBox="0 0 1030 242">
  <g id="Grupo_877110" data-name="Grupo 877110" transform="translate(-285 -11401.143)">
    <path id="Trazado_588534" data-name="Trazado 588534" d="M8,0H1022a8,8,0,0,1,8,8V234a8,8,0,0,1-8,8H8a8,8,0,0,1-8-8V8A8,8,0,0,1,8,0Z" transform="translate(285 11401.143)" fill="#c5f7ff" opacity="0.489"/>
    <g id="Grupo_876085" data-name="Grupo 876085" transform="translate(-89.769 -962.357)">
      <text id="A_P" data-name="A = P" transform="translate(433.537 12436.635)" fill="#12263f" font-size="20" font-family="Roboto-Bold, Roboto" font-weight="700"><tspan x="1.118" y="21">A = P</tspan></text>
      <text id="_40.000.000" data-name="= 40.000.000" transform="translate(639 12436.635)" fill="#12263f" font-size="20" font-family="Roboto-Bold, Roboto" font-weight="700"><tspan x="7.578" y="21">= 40.000.000</tspan></text>
      <text id="_40.000.000-2" data-name="= 40.000.000" transform="translate(1008 12436.635)" fill="#12263f" font-size="20" font-family="Roboto-Bold, Roboto" font-weight="700"><tspan x="7.578" y="21">= 40.000.000</tspan></text>
      <text id="i_1_i_n_1_i_n_-_1" data-name="i (1 + i)n     
(1 + i)n - 1" transform="translate(513.537 12422.635)" fill="#12263f" font-size="20" font-family="Roboto-Bold, Roboto" font-weight="700"><tspan x="13.727" y="21">i (1 + i)</tspan><tspan y="21" font-size="11.666" baseline-shift="6.666000209254424">n</tspan><tspan y="21" xml:space="preserve">     </tspan><tspan x="4.274" y="51">(1 + i)</tspan><tspan y="51" font-size="11.666" baseline-shift="6.666000209254424">n</tspan><tspan y="51" xml:space="preserve"> - 1</tspan></text>
      <text id="_0_2682_1_2682_4_1_2682_4_-_1" data-name="0,2682 (1,2682)4     
(1,2682)4 - 1" transform="translate(805.537 12422.635)" fill="#12263f" font-size="20" font-family="Roboto-Bold, Roboto" font-weight="700"><tspan x="9.103" y="21">0,2682 (1,2682)</tspan><tspan y="21" font-size="11.666" baseline-shift="6.666000209254424">4</tspan><tspan y="21" xml:space="preserve">     </tspan><tspan x="28.126" y="51">(1,2682)</tspan><tspan y="51" font-size="11.666" baseline-shift="6.666000209254424">4</tspan><tspan y="51" xml:space="preserve"> - 1</tspan></text>
      <text id="_0_693760819_1_586729378" data-name="0,693760819     
1,586729378" transform="translate(1184.104 12422.635)" fill="#12263f" font-size="20" font-family="Roboto-Bold, Roboto" font-weight="700"><tspan x="4.417" y="21" xml:space="preserve">0,693760819     </tspan><tspan x="4.417" y="51">1,586729378</tspan></text>
      <path id="Trazado_585926" data-name="Trazado 585926" d="M-6338.762-12773.541h90.566" transform="translate(6853.5 25226.67)" fill="none" stroke="#12263f" stroke-width="2"/>
      <path id="Trazado_588046" data-name="Trazado 588046" d="M-6338.762-12773.541H-6171.5" transform="translate(7145.5 25226.67)" fill="none" stroke="#12263f" stroke-width="2"/>
      <path id="Trazado_588047" data-name="Trazado 588047" d="M-6338.762-12773.541h135.846" transform="translate(7519.762 25226.67)" fill="none" stroke="#12263f" stroke-width="2"/>
      <text id="_" data-name=" [ " transform="translate(472 12475)" fill="#12263f" font-size="66" font-family="Roboto-Regular, Roboto"><tspan x="0" y="0" xml:space="preserve"> [ </tspan></text>
      <text id="_2" data-name=" [ " transform="translate(764 12475)" fill="#12263f" font-size="66" font-family="Roboto-Regular, Roboto"><tspan x="0" y="0" xml:space="preserve"> [ </tspan></text>
      <text id="_3" data-name=" [ " transform="translate(1137 12475)" fill="#12263f" font-size="66" font-family="Roboto-Regular, Roboto"><tspan x="0" y="0" xml:space="preserve"> [ </tspan></text>
      <text id="_4" data-name="]" transform="translate(614 12475)" fill="#12263f" font-size="66" font-family="Roboto-Regular, Roboto"><tspan x="0" y="0">]</tspan></text>
      <text id="_5" data-name="]" transform="translate(980 12475)" fill="#12263f" font-size="66" font-family="Roboto-Regular, Roboto"><tspan x="0" y="0">]</tspan></text>
      <text id="_6" data-name="]" transform="translate(1328 12475)" fill="#12263f" font-size="66" font-family="Roboto-Regular, Roboto"><tspan x="0" y="0">]</tspan></text>
    </g>
    <g id="Grupo_877096" data-name="Grupo 877096" transform="translate(29 208.643)">
      <rect id="Rectángulo_296858" data-name="Rectángulo 296858" width="482" height="51" transform="translate(530 11341)" fill="#fcc15a"/>
      <text id="A_40_000.000_0_437226932_17_489.077_31" data-name="A = 40´000.000 (0,437226932)= $17´489.077,31" transform="translate(544.5 11353.5)" fill="#12263f" font-size="20" font-family="Roboto-Bold, Roboto" font-weight="700"><tspan x="-218.877" y="21">A = 40´000.000 (0,437226932)= $17´489.077,31</tspan></text>
    </g>
  </g>
</svg>
