<svg xmlns="http://www.w3.org/2000/svg" xmlns:xlink="http://www.w3.org/1999/xlink" width="667.542" height="529.604" viewBox="0 0 667.542 529.604">
  <defs>
    <filter id="Elipse_180" x="505" y="5.268" width="162.542" height="162.542" filterUnits="userSpaceOnUse">
      <feOffset dx="5" dy="5" input="SourceAlpha"/>
      <feGaussianBlur stdDeviation="12.5" result="blur"/>
      <feFlood flood-opacity="0.161"/>
      <feComposite operator="in" in2="blur"/>
      <feComposite in="SourceGraphic"/>
    </filter>
    <filter id="Elipse_180-2" x="0" y="5.268" width="162.542" height="162.542" filterUnits="userSpaceOnUse">
      <feOffset dx="5" dy="5" input="SourceAlpha"/>
      <feGaussianBlur stdDeviation="12.5" result="blur-2"/>
      <feFlood flood-opacity="0.161"/>
      <feComposite operator="in" in2="blur-2"/>
      <feComposite in="SourceGraphic"/>
    </filter>
    <filter id="Elipse_180-3" x="252.5" y="367.062" width="162.542" height="162.542" filterUnits="userSpaceOnUse">
      <feOffset dx="5" dy="5" input="SourceAlpha"/>
      <feGaussianBlur stdDeviation="12.5" result="blur-3"/>
      <feFlood flood-opacity="0.161"/>
      <feComposite operator="in" in2="blur-3"/>
      <feComposite in="SourceGraphic"/>
    </filter>
  </defs>
  <g id="Grupo_1072817" data-name="Grupo 1072817" transform="translate(-471.229 -797)">
    <g id="Grupo_875552" data-name="Grupo 875552" transform="translate(260.969 -164.979)">
      <path id="Trazado_583429" data-name="Trazado 583429" d="M847.588-226.659c-103.852,3.744-185,90.957-181.255,194.808s90.957,185,194.806,181.252,185-90.954,181.255-194.806S951.438-230.4,847.588-226.659Zm12.458,345.727A157.785,157.785,0,0,1,696.67-32.944a157.784,157.784,0,0,1,152.012-163.38,157.787,157.787,0,0,1,163.38,152.012A157.79,157.79,0,0,1,860.047,119.068Z" transform="translate(-318.782 1188.764)" fill="#e8e8e8"/>
      <g id="Grupo_845437" data-name="Grupo 845437" transform="translate(290.647 963.998)">
        <path id="Trazado_583434" data-name="Trazado 583434" d="M715.843-47.824a95.941,95.941,0,0,1-48-12.932,96.045,96.045,0,0,1-34.937-131.1A96.292,96.292,0,0,1,716-239.723a95.916,95.916,0,0,1,48,12.93,95.321,95.321,0,0,1,44.62,58.315,95.306,95.306,0,0,1-9.683,72.786A96.3,96.3,0,0,1,715.843-47.824Z" transform="translate(-620.003 239.723)" fill="#fff"/>
        <path id="Trazado_583435" data-name="Trazado 583435" d="M710.892-61.506a87.186,87.186,0,0,1-43.628-11.756A87.305,87.305,0,0,1,635.5-192.431a87.541,87.541,0,0,1,75.542-43.515,87.186,87.186,0,0,1,43.628,11.756,86.645,86.645,0,0,1,40.559,53.009,86.632,86.632,0,0,1-8.8,66.163A87.538,87.538,0,0,1,710.892-61.506Z" transform="translate(-615.052 244.674)" fill="#0c5e46"/>
        <circle id="Elipse_7376" data-name="Elipse 7376" cx="69.556" cy="69.556" r="69.556" transform="translate(10.795 46.65) rotate(-14.923)" fill="#f6f6f6"/>
        <path id="Trazado_612803" data-name="Trazado 612803" d="M36.883,12.656H32.773L31.992,15H29.5L33.734,3.625h2.172L40.164,15H37.672Zm-3.477-1.9H36.25L34.82,6.5Zm9.375-4.211.07.977a2.951,2.951,0,0,1,2.43-1.133,2.453,2.453,0,0,1,2,.789,3.682,3.682,0,0,1,.672,2.359V15H45.7V9.594a1.465,1.465,0,0,0-.312-1.043,1.4,1.4,0,0,0-1.039-.324,1.553,1.553,0,0,0-1.43.813V15H40.656V6.547ZM54.563,15a2.507,2.507,0,0,1-.227-.758,2.732,2.732,0,0,1-2.133.914,3,3,0,0,1-2.059-.719,2.312,2.312,0,0,1-.816-1.812,2.389,2.389,0,0,1,1-2.062A4.915,4.915,0,0,1,53.2,9.836h1.039V9.352a1.393,1.393,0,0,0-.3-.937,1.183,1.183,0,0,0-.949-.352,1.345,1.345,0,0,0-.895.273.929.929,0,0,0-.324.75H49.516a2.268,2.268,0,0,1,.453-1.359,3,3,0,0,1,1.281-.98,4.669,4.669,0,0,1,1.859-.355,3.689,3.689,0,0,1,2.48.785,2.747,2.747,0,0,1,.918,2.207v3.664a4.041,4.041,0,0,0,.336,1.82V15ZM52.7,13.43a1.945,1.945,0,0,0,.922-.223,1.462,1.462,0,0,0,.625-.6V11.156H53.4q-1.7,0-1.8,1.172l-.008.133a.9.9,0,0,0,.3.7A1.153,1.153,0,0,0,52.7,13.43ZM53.555,3h2.461L53.852,5.422H52.016Zm7.07,12H58.359V3h2.266Zm4.242,0H62.6V6.547h2.266Zm-2.4-10.641a1.112,1.112,0,0,1,.34-.836,1.465,1.465,0,0,1,1.848,0A1.105,1.105,0,0,1,65,4.359a1.108,1.108,0,0,1-.348.844,1.448,1.448,0,0,1-1.836,0A1.108,1.108,0,0,1,62.469,4.359Zm8.836,8.3a.727.727,0,0,0-.41-.652,4.659,4.659,0,0,0-1.316-.426q-3.016-.633-3.016-2.562A2.323,2.323,0,0,1,67.5,7.145a3.766,3.766,0,0,1,2.441-.754,4.053,4.053,0,0,1,2.574.758,2.388,2.388,0,0,1,.965,1.969H71.219a1.092,1.092,0,0,0-.312-.8A1.322,1.322,0,0,0,69.93,8a1.351,1.351,0,0,0-.883.258.814.814,0,0,0-.312.656.7.7,0,0,0,.355.605,3.657,3.657,0,0,0,1.2.4,9.8,9.8,0,0,1,1.422.379A2.336,2.336,0,0,1,73.5,12.57a2.2,2.2,0,0,1-.992,1.871,4.28,4.28,0,0,1-2.562.715,4.47,4.47,0,0,1-1.887-.379,3.166,3.166,0,0,1-1.293-1.039,2.414,2.414,0,0,1-.469-1.426h2.141a1.179,1.179,0,0,0,.445.922,1.766,1.766,0,0,0,1.109.32,1.635,1.635,0,0,0,.98-.246A.766.766,0,0,0,71.3,12.664ZM77.336,15H75.07V6.547h2.266Zm-2.4-10.641a1.112,1.112,0,0,1,.34-.836,1.465,1.465,0,0,1,1.848,0,1.105,1.105,0,0,1,.344.836,1.108,1.108,0,0,1-.348.844,1.448,1.448,0,0,1-1.836,0A1.108,1.108,0,0,1,74.938,4.359Zm8.836,8.3a.727.727,0,0,0-.41-.652,4.659,4.659,0,0,0-1.316-.426q-3.016-.633-3.016-2.562a2.323,2.323,0,0,1,.934-1.879,3.766,3.766,0,0,1,2.441-.754,4.053,4.053,0,0,1,2.574.758,2.388,2.388,0,0,1,.965,1.969H83.688a1.092,1.092,0,0,0-.312-.8A1.322,1.322,0,0,0,82.4,8a1.351,1.351,0,0,0-.883.258.814.814,0,0,0-.312.656.7.7,0,0,0,.355.605,3.657,3.657,0,0,0,1.2.4,9.8,9.8,0,0,1,1.422.379,2.336,2.336,0,0,1,1.789,2.273,2.2,2.2,0,0,1-.992,1.871,4.28,4.28,0,0,1-2.562.715,4.47,4.47,0,0,1-1.887-.379,3.166,3.166,0,0,1-1.293-1.039,2.414,2.414,0,0,1-.469-1.426h2.141a1.179,1.179,0,0,0,.445.922,1.766,1.766,0,0,0,1.109.32,1.635,1.635,0,0,0,.98-.246A.766.766,0,0,0,83.773,12.664ZM35.2,36.242l1.57-5.7h2.359L36.273,39H34.117l-2.852-8.453h2.359Zm8.711,2.914a4.15,4.15,0,0,1-3.027-1.141,4.054,4.054,0,0,1-1.168-3.039v-.219A5.106,5.106,0,0,1,40.2,32.48,3.612,3.612,0,0,1,41.6,30.934a3.914,3.914,0,0,1,2.059-.543,3.508,3.508,0,0,1,2.73,1.094,4.444,4.444,0,0,1,1,3.1v.922H42a2.1,2.1,0,0,0,.66,1.328,2,2,0,0,0,1.395.5,2.437,2.437,0,0,0,2.039-.945L47.2,37.633a3.389,3.389,0,0,1-1.375,1.121A4.511,4.511,0,0,1,43.906,39.156Zm-.258-6.945a1.411,1.411,0,0,0-1.09.455,2.357,2.357,0,0,0-.535,1.3h3.141v-.181a1.681,1.681,0,0,0-.406-1.165A1.456,1.456,0,0,0,43.648,32.211Zm9.766.453A6.134,6.134,0,0,0,52.6,32.6a1.654,1.654,0,0,0-1.68.867V39H48.664V30.547H50.8l.063,1.008a2.092,2.092,0,0,1,1.883-1.164,2.366,2.366,0,0,1,.7.1Zm4.18-4.2v2.078h1.445V32.2H57.594v4.219a1.007,1.007,0,0,0,.18.672.9.9,0,0,0,.688.2,3.6,3.6,0,0,0,.664-.055v1.711a4.648,4.648,0,0,1-1.367.2,2.156,2.156,0,0,1-2.422-2.4V32.2H54.1V30.547h1.234V28.469ZM62.68,39H60.414V30.547H62.68Zm-2.4-10.641a1.112,1.112,0,0,1,.34-.836,1.465,1.465,0,0,1,1.848,0,1.193,1.193,0,0,1,0,1.68,1.448,1.448,0,0,1-1.836,0A1.108,1.108,0,0,1,60.281,28.359Zm7.773,8.977a1.481,1.481,0,0,0,1.016-.344,1.2,1.2,0,0,0,.406-.914h2.117a2.9,2.9,0,0,1-.469,1.574,3.093,3.093,0,0,1-1.262,1.109,3.949,3.949,0,0,1-1.77.395A3.67,3.67,0,0,1,65.234,38a4.56,4.56,0,0,1-1.047-3.184v-.148a4.508,4.508,0,0,1,1.039-3.117,3.627,3.627,0,0,1,2.852-1.164,3.555,3.555,0,0,1,2.543.9,3.2,3.2,0,0,1,.973,2.4H69.477a1.551,1.551,0,0,0-.406-1.072,1.51,1.51,0,0,0-2.223.163,3.333,3.333,0,0,0-.4,1.866v.235a3.375,3.375,0,0,0,.4,1.878A1.377,1.377,0,0,0,68.055,37.336ZM77.781,39a2.507,2.507,0,0,1-.227-.758,2.732,2.732,0,0,1-2.133.914,3,3,0,0,1-2.059-.719,2.312,2.312,0,0,1-.816-1.812,2.389,2.389,0,0,1,1-2.062,4.915,4.915,0,0,1,2.879-.727h1.039v-.484a1.393,1.393,0,0,0-.3-.937,1.183,1.183,0,0,0-.949-.352,1.345,1.345,0,0,0-.895.273.929.929,0,0,0-.324.75H72.734a2.268,2.268,0,0,1,.453-1.359,3,3,0,0,1,1.281-.98,4.669,4.669,0,0,1,1.859-.355,3.689,3.689,0,0,1,2.48.785,2.747,2.747,0,0,1,.918,2.207v3.664a4.041,4.041,0,0,0,.336,1.82V39Zm-1.867-1.57a1.945,1.945,0,0,0,.922-.223,1.462,1.462,0,0,0,.625-.6V35.156h-.844q-1.7,0-1.8,1.172l-.008.133a.9.9,0,0,0,.3.7A1.153,1.153,0,0,0,75.914,37.43ZM83.844,39H81.578V27h2.266Z" transform="translate(37.917 73.449)" fill="#12263f"/>
      </g>
      <g id="Grupo_845440" data-name="Grupo 845440" transform="translate(395.726 1192.775)">
        <path id="Trazado_583443" data-name="Trazado 583443" d="M887.866,58.2a95.9,95.9,0,0,1-48.341-13.129,96.047,96.047,0,0,1-34.4-131.239,96.343,96.343,0,0,1,82.9-47.534,95.888,95.888,0,0,1,48.341,13.129A96.047,96.047,0,0,1,970.766,10.67,96.344,96.344,0,0,1,887.866,58.2Z" transform="translate(-748.088 152.021)" fill="#fff"/>
        <path id="Trazado_583444" data-name="Trazado 583444" d="M882.915,44.521a87.142,87.142,0,0,1-43.934-11.934,87.308,87.308,0,0,1-31.274-119.3,87.586,87.586,0,0,1,75.362-43.208,87.143,87.143,0,0,1,43.936,11.934,87.308,87.308,0,0,1,31.274,119.3A87.59,87.59,0,0,1,882.915,44.521Z" transform="translate(-743.137 156.973)" fill="#3ae3fe"/>
        <circle id="Elipse_7379" data-name="Elipse 7379" cx="69.556" cy="69.556" r="69.556" transform="matrix(0.975, -0.223, 0.223, 0.975, 56.561, 61.949)" fill="#fff"/>
        <path id="Trazado_612808" data-name="Trazado 612808" d="M16.914,12.656H12.8L12.023,15H9.531L13.766,3.625h2.172L20.2,15H17.7Zm-3.477-1.9h2.844L14.852,6.5Zm14.906.094a5.07,5.07,0,0,1-.887,3.129,2.843,2.843,0,0,1-2.395,1.176,2.633,2.633,0,0,1-2.07-.891V18.25H20.734V6.547h2.094l.078.828a2.654,2.654,0,0,1,2.141-.984,2.862,2.862,0,0,1,2.43,1.156,5.207,5.207,0,0,1,.867,3.188Zm-2.258-.164a3.327,3.327,0,0,0-.418-1.82,1.361,1.361,0,0,0-1.215-.641,1.478,1.478,0,0,0-1.461.813V12.5a1.5,1.5,0,0,0,1.477.836Q26.086,13.336,26.086,10.688ZM32.125,15H29.859V3h2.266Zm4.242,0H34.1V6.547h2.266Zm-2.4-10.641a1.112,1.112,0,0,1,.34-.836,1.465,1.465,0,0,1,1.848,0,1.105,1.105,0,0,1,.344.836,1.108,1.108,0,0,1-.348.844,1.448,1.448,0,0,1-1.836,0A1.108,1.108,0,0,1,33.969,4.359Zm7.773,8.977a1.481,1.481,0,0,0,1.016-.344,1.2,1.2,0,0,0,.406-.914h2.117a2.9,2.9,0,0,1-.469,1.574,3.093,3.093,0,0,1-1.262,1.109,3.949,3.949,0,0,1-1.77.395A3.67,3.67,0,0,1,38.922,14a4.56,4.56,0,0,1-1.047-3.184v-.148a4.508,4.508,0,0,1,1.039-3.117,3.627,3.627,0,0,1,2.852-1.164,3.555,3.555,0,0,1,2.543.9,3.2,3.2,0,0,1,.973,2.4H43.164a1.551,1.551,0,0,0-.406-1.072,1.51,1.51,0,0,0-2.223.163,3.333,3.333,0,0,0-.4,1.866v.235a3.375,3.375,0,0,0,.4,1.878A1.377,1.377,0,0,0,41.742,13.336ZM51.469,15a2.507,2.507,0,0,1-.227-.758,2.732,2.732,0,0,1-2.133.914,3,3,0,0,1-2.059-.719,2.312,2.312,0,0,1-.816-1.812,2.389,2.389,0,0,1,1-2.062,4.915,4.915,0,0,1,2.879-.727h1.039V9.352a1.393,1.393,0,0,0-.3-.937,1.183,1.183,0,0,0-.949-.352A1.345,1.345,0,0,0,49,8.336a.929.929,0,0,0-.324.75H46.422a2.268,2.268,0,0,1,.453-1.359,3,3,0,0,1,1.281-.98,4.669,4.669,0,0,1,1.859-.355,3.689,3.689,0,0,1,2.48.785,2.747,2.747,0,0,1,.918,2.207v3.664a4.041,4.041,0,0,0,.336,1.82V15ZM49.6,13.43a1.945,1.945,0,0,0,.922-.223,1.462,1.462,0,0,0,.625-.6V11.156H50.3q-1.7,0-1.8,1.172l-.008.133a.9.9,0,0,0,.3.7A1.153,1.153,0,0,0,49.6,13.43Zm9.063-.094a1.481,1.481,0,0,0,1.016-.344,1.2,1.2,0,0,0,.406-.914H62.2a2.9,2.9,0,0,1-.469,1.574,3.093,3.093,0,0,1-1.262,1.109,3.949,3.949,0,0,1-1.77.395A3.67,3.67,0,0,1,55.844,14,4.56,4.56,0,0,1,54.8,10.82v-.148a4.508,4.508,0,0,1,1.039-3.117,3.627,3.627,0,0,1,2.852-1.164,3.555,3.555,0,0,1,2.543.9A3.2,3.2,0,0,1,62.2,9.7H60.086a1.551,1.551,0,0,0-.406-1.072,1.51,1.51,0,0,0-2.223.163,3.333,3.333,0,0,0-.4,1.866v.235a3.375,3.375,0,0,0,.4,1.878A1.377,1.377,0,0,0,58.664,13.336ZM65.875,15H63.609V6.547h2.266Zm-2.4-10.641a1.112,1.112,0,0,1,.34-.836,1.465,1.465,0,0,1,1.848,0,1.105,1.105,0,0,1,.344.836,1.108,1.108,0,0,1-.348.844,1.448,1.448,0,0,1-1.836,0A1.108,1.108,0,0,1,63.477,4.359ZM67.383,10.7a5.013,5.013,0,0,1,.484-2.242A3.546,3.546,0,0,1,69.262,6.93a4.069,4.069,0,0,1,2.113-.539,3.849,3.849,0,0,1,2.793,1.047,4.2,4.2,0,0,1,1.207,2.844l.016.578A4.418,4.418,0,0,1,74.3,13.98a4.209,4.209,0,0,1-5.832,0,4.5,4.5,0,0,1-1.09-3.187Zm2.258.16a3.16,3.16,0,0,0,.453,1.843,1.628,1.628,0,0,0,2.578.008,3.457,3.457,0,0,0,.461-2.015,3.128,3.128,0,0,0-.461-1.831,1.5,1.5,0,0,0-1.3-.649,1.474,1.474,0,0,0-1.281.646A3.516,3.516,0,0,0,69.641,10.856ZM71.82,3h2.461L72.117,5.422H70.281Zm7.039,3.547.07.977a2.951,2.951,0,0,1,2.43-1.133,2.453,2.453,0,0,1,2,.789,3.682,3.682,0,0,1,.672,2.359V15H81.773V9.594a1.465,1.465,0,0,0-.312-1.043,1.4,1.4,0,0,0-1.039-.324,1.553,1.553,0,0,0-1.43.813V15H76.734V6.547Zm10.516,4.164a5.094,5.094,0,0,1,.887-3.148,2.877,2.877,0,0,1,2.426-1.172,2.589,2.589,0,0,1,2.039.922V3h2.266V15H94.953l-.109-.9a2.657,2.657,0,0,1-2.172,1.055,2.869,2.869,0,0,1-2.395-1.176A5.258,5.258,0,0,1,89.375,10.711Zm2.258.168a3.337,3.337,0,0,0,.414,1.823,1.349,1.349,0,0,0,1.2.634,1.511,1.511,0,0,0,1.477-.884V9.111a1.489,1.489,0,0,0-1.461-.884Q91.633,8.227,91.633,10.879Zm11,4.277a4.15,4.15,0,0,1-3.027-1.141,4.054,4.054,0,0,1-1.168-3.039v-.219A5.106,5.106,0,0,1,98.93,8.48a3.612,3.612,0,0,1,1.395-1.547,3.914,3.914,0,0,1,2.059-.543,3.508,3.508,0,0,1,2.73,1.094,4.444,4.444,0,0,1,1,3.1v.922h-5.383a2.1,2.1,0,0,0,.66,1.328,2,2,0,0,0,1.395.5,2.437,2.437,0,0,0,2.039-.945l1.109,1.242a3.389,3.389,0,0,1-1.375,1.121A4.511,4.511,0,0,1,102.633,15.156Zm-.258-6.945a1.411,1.411,0,0,0-1.09.455,2.357,2.357,0,0,0-.535,1.3h3.141V9.788a1.681,1.681,0,0,0-.406-1.165A1.456,1.456,0,0,0,102.375,8.211ZM19.246,39H16.98V30.547h2.266Zm-2.4-10.641a1.112,1.112,0,0,1,.34-.836,1.465,1.465,0,0,1,1.848,0,1.193,1.193,0,0,1,0,1.68,1.448,1.448,0,0,1-1.836,0A1.108,1.108,0,0,1,16.848,28.359Zm6.336,2.188.07.977a2.951,2.951,0,0,1,2.43-1.133,2.453,2.453,0,0,1,2,.789,3.682,3.682,0,0,1,.672,2.359V39H26.1V33.594a1.465,1.465,0,0,0-.312-1.043,1.4,1.4,0,0,0-1.039-.324,1.553,1.553,0,0,0-1.43.813V39H21.059V30.547Zm6.531,4.164a5.094,5.094,0,0,1,.887-3.148,2.877,2.877,0,0,1,2.426-1.172,2.589,2.589,0,0,1,2.039.922V27h2.266V39H35.293l-.109-.9a2.657,2.657,0,0,1-2.172,1.055,2.869,2.869,0,0,1-2.395-1.176A5.258,5.258,0,0,1,29.715,34.711Zm2.258.168a3.337,3.337,0,0,0,.414,1.823,1.349,1.349,0,0,0,1.2.634,1.511,1.511,0,0,0,1.477-.884V33.111a1.489,1.489,0,0,0-1.461-.884Q31.973,32.227,31.973,34.879ZM41.465,39H39.2V30.547h2.266Zm-2.4-10.641a1.112,1.112,0,0,1,.34-.836,1.465,1.465,0,0,1,1.848,0,1.193,1.193,0,0,1,0,1.68,1.448,1.448,0,0,1-1.836,0A1.108,1.108,0,0,1,39.066,28.359Zm7.773,8.977a1.481,1.481,0,0,0,1.016-.344,1.2,1.2,0,0,0,.406-.914h2.117a2.9,2.9,0,0,1-.469,1.574,3.093,3.093,0,0,1-1.262,1.109,3.949,3.949,0,0,1-1.77.395A3.67,3.67,0,0,1,44.02,38a4.56,4.56,0,0,1-1.047-3.184v-.148a4.508,4.508,0,0,1,1.039-3.117,3.627,3.627,0,0,1,2.852-1.164,3.555,3.555,0,0,1,2.543.9,3.2,3.2,0,0,1,.973,2.4H48.262a1.551,1.551,0,0,0-.406-1.072,1.51,1.51,0,0,0-2.223.163,3.333,3.333,0,0,0-.4,1.866v.235a3.375,3.375,0,0,0,.4,1.878A1.377,1.377,0,0,0,46.84,37.336ZM56.566,39a2.507,2.507,0,0,1-.227-.758,2.732,2.732,0,0,1-2.133.914,3,3,0,0,1-2.059-.719,2.312,2.312,0,0,1-.816-1.812,2.389,2.389,0,0,1,1-2.062,4.915,4.915,0,0,1,2.879-.727h1.039v-.484a1.393,1.393,0,0,0-.3-.937A1.183,1.183,0,0,0,55,32.063a1.345,1.345,0,0,0-.895.273.929.929,0,0,0-.324.75H51.52a2.268,2.268,0,0,1,.453-1.359,3,3,0,0,1,1.281-.98,4.669,4.669,0,0,1,1.859-.355,3.689,3.689,0,0,1,2.48.785,2.747,2.747,0,0,1,.918,2.207v3.664a4.041,4.041,0,0,0,.336,1.82V39ZM54.7,37.43a1.945,1.945,0,0,0,.922-.223,1.462,1.462,0,0,0,.625-.6V35.156H55.4q-1.7,0-1.8,1.172l-.008.133a.9.9,0,0,0,.3.7A1.153,1.153,0,0,0,54.7,37.43Zm5.2-2.719a5.094,5.094,0,0,1,.887-3.148,2.877,2.877,0,0,1,2.426-1.172,2.589,2.589,0,0,1,2.039.922V27h2.266V39H65.473l-.109-.9a2.657,2.657,0,0,1-2.172,1.055A2.869,2.869,0,0,1,60.8,37.98,5.258,5.258,0,0,1,59.895,34.711Zm2.258.168a3.337,3.337,0,0,0,.414,1.823,1.349,1.349,0,0,0,1.2.634,1.511,1.511,0,0,0,1.477-.884V33.111a1.489,1.489,0,0,0-1.461-.884Q62.152,32.227,62.152,34.879ZM68.91,34.7a5.013,5.013,0,0,1,.484-2.242,3.546,3.546,0,0,1,1.395-1.523,4.069,4.069,0,0,1,2.113-.539A3.849,3.849,0,0,1,75.7,31.438,4.2,4.2,0,0,1,76.9,34.281l.016.578a4.418,4.418,0,0,1-1.086,3.121,4.209,4.209,0,0,1-5.832,0A4.5,4.5,0,0,1,68.91,34.8Zm2.258.16a3.16,3.16,0,0,0,.453,1.843,1.628,1.628,0,0,0,2.578.008,3.457,3.457,0,0,0,.461-2.015A3.128,3.128,0,0,0,74.2,32.86a1.5,1.5,0,0,0-1.3-.649,1.474,1.474,0,0,0-1.281.646A3.516,3.516,0,0,0,71.168,34.856Zm11.891-2.192a6.134,6.134,0,0,0-.812-.062,1.654,1.654,0,0,0-1.68.867V39H78.309V30.547h2.133l.063,1.008a2.092,2.092,0,0,1,1.883-1.164,2.366,2.366,0,0,1,.7.1Zm4.828,6.492a4.15,4.15,0,0,1-3.027-1.141,4.054,4.054,0,0,1-1.168-3.039v-.219a5.106,5.106,0,0,1,.492-2.277,3.612,3.612,0,0,1,1.395-1.547,3.914,3.914,0,0,1,2.059-.543,3.508,3.508,0,0,1,2.73,1.094,4.444,4.444,0,0,1,1,3.1v.922H85.98a2.1,2.1,0,0,0,.66,1.328,2,2,0,0,0,1.395.5,2.437,2.437,0,0,0,2.039-.945l1.109,1.242a3.389,3.389,0,0,1-1.375,1.121A4.511,4.511,0,0,1,87.887,39.156Zm-.258-6.945a1.411,1.411,0,0,0-1.09.455,2.357,2.357,0,0,0-.535,1.3h3.141v-.181a1.681,1.681,0,0,0-.406-1.165A1.456,1.456,0,0,0,87.629,32.211Zm9.594,4.453a.727.727,0,0,0-.41-.652,4.659,4.659,0,0,0-1.316-.426q-3.016-.633-3.016-2.562a2.323,2.323,0,0,1,.934-1.879,3.766,3.766,0,0,1,2.441-.754,4.053,4.053,0,0,1,2.574.758,2.388,2.388,0,0,1,.965,1.969H97.137a1.092,1.092,0,0,0-.312-.8A1.322,1.322,0,0,0,95.848,32a1.351,1.351,0,0,0-.883.258.814.814,0,0,0-.312.656.7.7,0,0,0,.355.605,3.657,3.657,0,0,0,1.2.4,9.8,9.8,0,0,1,1.422.379,2.336,2.336,0,0,1,1.789,2.273,2.2,2.2,0,0,1-.992,1.871,4.28,4.28,0,0,1-2.562.715,4.47,4.47,0,0,1-1.887-.379,3.166,3.166,0,0,1-1.293-1.039,2.414,2.414,0,0,1-.469-1.426h2.141a1.179,1.179,0,0,0,.445.922,1.766,1.766,0,0,0,1.109.32,1.635,1.635,0,0,0,.98-.246A.766.766,0,0,0,97.223,36.664ZM21.121,58.7a5.053,5.053,0,0,1,.887-3.148,2.9,2.9,0,0,1,2.434-1.156,2.6,2.6,0,0,1,2.164,1.039l.148-.883h1.984v11.7H26.473V62.273a2.6,2.6,0,0,1-2.047.883,2.878,2.878,0,0,1-2.406-1.172A5.3,5.3,0,0,1,21.121,58.7Zm2.258.16A3.315,3.315,0,0,0,23.8,60.7a1.363,1.363,0,0,0,1.2.634,1.518,1.518,0,0,0,1.469-.829v-3.5a1.506,1.506,0,0,0-1.453-.8,1.38,1.38,0,0,0-1.211.634A3.661,3.661,0,0,0,23.379,58.856Zm12.2,3.285a2.831,2.831,0,0,1-2.312,1.016,2.67,2.67,0,0,1-2.074-.781,3.335,3.335,0,0,1-.73-2.289V54.547h2.258v5.467q0,1.322,1.2,1.322a1.63,1.63,0,0,0,1.578-.8V54.547h2.266V63H35.637Zm7.781,1.016a4.15,4.15,0,0,1-3.027-1.141,4.054,4.054,0,0,1-1.168-3.039v-.219a5.106,5.106,0,0,1,.492-2.277,3.612,3.612,0,0,1,1.395-1.547,3.914,3.914,0,0,1,2.059-.543,3.508,3.508,0,0,1,2.73,1.094,4.444,4.444,0,0,1,1,3.1v.922H41.449a2.1,2.1,0,0,0,.66,1.328,2,2,0,0,0,1.395.5,2.437,2.437,0,0,0,2.039-.945l1.109,1.242a3.389,3.389,0,0,1-1.375,1.121A4.511,4.511,0,0,1,43.355,63.156ZM43.1,56.211a1.411,1.411,0,0,0-1.09.455,2.357,2.357,0,0,0-.535,1.3h3.141v-.181a1.681,1.681,0,0,0-.406-1.165A1.456,1.456,0,0,0,43.1,56.211Zm12.164,4.031,1.57-5.7h2.359L56.34,63H54.184l-2.852-8.453h2.359ZM64.965,63a2.507,2.507,0,0,1-.227-.758,2.732,2.732,0,0,1-2.133.914,3,3,0,0,1-2.059-.719,2.312,2.312,0,0,1-.816-1.812,2.389,2.389,0,0,1,1-2.062,4.915,4.915,0,0,1,2.879-.727h1.039v-.484a1.393,1.393,0,0,0-.3-.937,1.183,1.183,0,0,0-.949-.352,1.345,1.345,0,0,0-.895.273.929.929,0,0,0-.324.75H59.918a2.268,2.268,0,0,1,.453-1.359,3,3,0,0,1,1.281-.98,4.669,4.669,0,0,1,1.859-.355,3.689,3.689,0,0,1,2.48.785,2.747,2.747,0,0,1,.918,2.207v3.664a4.041,4.041,0,0,0,.336,1.82V63ZM63.1,61.43a1.945,1.945,0,0,0,.922-.223,1.462,1.462,0,0,0,.625-.6V59.156H63.8q-1.7,0-1.8,1.172l-.008.133a.9.9,0,0,0,.3.7A1.153,1.153,0,0,0,63.1,61.43Zm10.3-4.766a6.134,6.134,0,0,0-.812-.062,1.654,1.654,0,0,0-1.68.867V63H68.645V54.547h2.133l.063,1.008a2.092,2.092,0,0,1,1.883-1.164,2.366,2.366,0,0,1,.7.1ZM76.863,63H74.6V54.547h2.266Zm-2.4-10.641a1.112,1.112,0,0,1,.34-.836,1.465,1.465,0,0,1,1.848,0,1.193,1.193,0,0,1,0,1.68,1.448,1.448,0,0,1-1.836,0A1.108,1.108,0,0,1,74.465,52.359ZM83.621,63a2.507,2.507,0,0,1-.227-.758,2.732,2.732,0,0,1-2.133.914,3,3,0,0,1-2.059-.719,2.312,2.312,0,0,1-.816-1.812,2.389,2.389,0,0,1,1-2.062,4.915,4.915,0,0,1,2.879-.727H83.3v-.484a1.393,1.393,0,0,0-.3-.937,1.183,1.183,0,0,0-.949-.352,1.345,1.345,0,0,0-.895.273.929.929,0,0,0-.324.75H78.574a2.268,2.268,0,0,1,.453-1.359,3,3,0,0,1,1.281-.98,4.669,4.669,0,0,1,1.859-.355,3.689,3.689,0,0,1,2.48.785,2.747,2.747,0,0,1,.918,2.207v3.664a4.041,4.041,0,0,0,.336,1.82V63Zm-1.867-1.57a1.945,1.945,0,0,0,.922-.223,1.462,1.462,0,0,0,.625-.6V59.156h-.844q-1.7,0-1.8,1.172l-.008.133a.9.9,0,0,0,.3.7A1.153,1.153,0,0,0,81.754,61.43Zm7.625-6.883.07.977a2.951,2.951,0,0,1,2.43-1.133,2.453,2.453,0,0,1,2,.789,3.682,3.682,0,0,1,.672,2.359V63H92.293V57.594a1.465,1.465,0,0,0-.312-1.043,1.4,1.4,0,0,0-1.039-.324,1.553,1.553,0,0,0-1.43.813V63H87.254V54.547Z" transform="translate(81.856 79.774)" fill="#12263f"/>
      </g>
      <g id="Grupo_845441" data-name="Grupo 845441" transform="translate(550.748 963.996)">
        <path id="Trazado_583446" data-name="Trazado 583446" d="M891.23-42.665a96.182,96.182,0,0,1-83.481-48.546,95.309,95.309,0,0,1-9.093-72.86,95.3,95.3,0,0,1,45.093-57.949,95.958,95.958,0,0,1,47.328-12.546,96.19,96.19,0,0,1,83.481,48.544,95.316,95.316,0,0,1,9.091,72.862,95.289,95.289,0,0,1-45.091,57.949A95.957,95.957,0,0,1,891.23-42.665Z" transform="translate(-750.463 234.566)" fill="#fff"/>
        <path id="Trazado_583447" data-name="Trazado 583447" d="M886.276-56.345a87.438,87.438,0,0,1-75.892-44.13,86.629,86.629,0,0,1-8.266-66.232,86.629,86.629,0,0,1,40.989-52.676,87.221,87.221,0,0,1,43.016-11.407,87.442,87.442,0,0,1,75.894,44.13,86.65,86.65,0,0,1,8.264,66.232,86.636,86.636,0,0,1-40.99,52.676A87.228,87.228,0,0,1,886.276-56.345Z" transform="translate(-745.509 239.518)" fill="#e1efe3"/>
        <circle id="Elipse_7380" data-name="Elipse 7380" cx="69.556" cy="69.556" r="69.556" transform="translate(55.172 144.557) rotate(-74.613)" fill="#fff"/>
        <path id="Trazado_612804" data-name="Trazado 612804" d="M36.883,12.656H32.773L31.992,15H29.5L33.734,3.625h2.172L40.164,15H37.672Zm-3.477-1.9H36.25L34.82,6.5Zm9.375-4.211.07.977a2.951,2.951,0,0,1,2.43-1.133,2.453,2.453,0,0,1,2,.789,3.682,3.682,0,0,1,.672,2.359V15H45.7V9.594a1.465,1.465,0,0,0-.312-1.043,1.4,1.4,0,0,0-1.039-.324,1.553,1.553,0,0,0-1.43.813V15H40.656V6.547ZM54.563,15a2.507,2.507,0,0,1-.227-.758,2.732,2.732,0,0,1-2.133.914,3,3,0,0,1-2.059-.719,2.312,2.312,0,0,1-.816-1.812,2.389,2.389,0,0,1,1-2.062A4.915,4.915,0,0,1,53.2,9.836h1.039V9.352a1.393,1.393,0,0,0-.3-.937,1.183,1.183,0,0,0-.949-.352,1.345,1.345,0,0,0-.895.273.929.929,0,0,0-.324.75H49.516a2.268,2.268,0,0,1,.453-1.359,3,3,0,0,1,1.281-.98,4.669,4.669,0,0,1,1.859-.355,3.689,3.689,0,0,1,2.48.785,2.747,2.747,0,0,1,.918,2.207v3.664a4.041,4.041,0,0,0,.336,1.82V15ZM52.7,13.43a1.945,1.945,0,0,0,.922-.223,1.462,1.462,0,0,0,.625-.6V11.156H53.4q-1.7,0-1.8,1.172l-.008.133a.9.9,0,0,0,.3.7A1.153,1.153,0,0,0,52.7,13.43ZM53.555,3h2.461L53.852,5.422H52.016Zm7.07,12H58.359V3h2.266Zm4.242,0H62.6V6.547h2.266Zm-2.4-10.641a1.112,1.112,0,0,1,.34-.836,1.465,1.465,0,0,1,1.848,0A1.105,1.105,0,0,1,65,4.359a1.108,1.108,0,0,1-.348.844,1.448,1.448,0,0,1-1.836,0A1.108,1.108,0,0,1,62.469,4.359Zm8.836,8.3a.727.727,0,0,0-.41-.652,4.659,4.659,0,0,0-1.316-.426q-3.016-.633-3.016-2.562A2.323,2.323,0,0,1,67.5,7.145a3.766,3.766,0,0,1,2.441-.754,4.053,4.053,0,0,1,2.574.758,2.388,2.388,0,0,1,.965,1.969H71.219a1.092,1.092,0,0,0-.312-.8A1.322,1.322,0,0,0,69.93,8a1.351,1.351,0,0,0-.883.258.814.814,0,0,0-.312.656.7.7,0,0,0,.355.605,3.657,3.657,0,0,0,1.2.4,9.8,9.8,0,0,1,1.422.379A2.336,2.336,0,0,1,73.5,12.57a2.2,2.2,0,0,1-.992,1.871,4.28,4.28,0,0,1-2.562.715,4.47,4.47,0,0,1-1.887-.379,3.166,3.166,0,0,1-1.293-1.039,2.414,2.414,0,0,1-.469-1.426h2.141a1.179,1.179,0,0,0,.445.922,1.766,1.766,0,0,0,1.109.32,1.635,1.635,0,0,0,.98-.246A.766.766,0,0,0,71.3,12.664ZM77.336,15H75.07V6.547h2.266Zm-2.4-10.641a1.112,1.112,0,0,1,.34-.836,1.465,1.465,0,0,1,1.848,0,1.105,1.105,0,0,1,.344.836,1.108,1.108,0,0,1-.348.844,1.448,1.448,0,0,1-1.836,0A1.108,1.108,0,0,1,74.938,4.359Zm8.836,8.3a.727.727,0,0,0-.41-.652,4.659,4.659,0,0,0-1.316-.426q-3.016-.633-3.016-2.562a2.323,2.323,0,0,1,.934-1.879,3.766,3.766,0,0,1,2.441-.754,4.053,4.053,0,0,1,2.574.758,2.388,2.388,0,0,1,.965,1.969H83.688a1.092,1.092,0,0,0-.312-.8A1.322,1.322,0,0,0,82.4,8a1.351,1.351,0,0,0-.883.258.814.814,0,0,0-.312.656.7.7,0,0,0,.355.605,3.657,3.657,0,0,0,1.2.4,9.8,9.8,0,0,1,1.422.379,2.336,2.336,0,0,1,1.789,2.273,2.2,2.2,0,0,1-.992,1.871,4.28,4.28,0,0,1-2.562.715,4.47,4.47,0,0,1-1.887-.379,3.166,3.166,0,0,1-1.293-1.039,2.414,2.414,0,0,1-.469-1.426h2.141a1.179,1.179,0,0,0,.445.922,1.766,1.766,0,0,0,1.109.32,1.635,1.635,0,0,0,.98-.246A.766.766,0,0,0,83.773,12.664Zm-58.867,18.8a2.818,2.818,0,0,1,2.258-1.078q2.75,0,2.789,3.2V39H27.7V33.648a1.57,1.57,0,0,0-.312-1.074,1.34,1.34,0,0,0-1.039-.348,1.537,1.537,0,0,0-1.437.766V39H22.648V27h2.258ZM31.3,34.7a5.013,5.013,0,0,1,.484-2.242,3.546,3.546,0,0,1,1.395-1.523,4.069,4.069,0,0,1,2.113-.539,3.849,3.849,0,0,1,2.793,1.047A4.2,4.2,0,0,1,39.3,34.281l.016.578a4.418,4.418,0,0,1-1.086,3.121,4.209,4.209,0,0,1-5.832,0A4.5,4.5,0,0,1,31.3,34.8Zm2.258.16a3.16,3.16,0,0,0,.453,1.843,1.628,1.628,0,0,0,2.578.008,3.457,3.457,0,0,0,.461-2.015,3.128,3.128,0,0,0-.461-1.831,1.5,1.5,0,0,0-1.3-.649,1.474,1.474,0,0,0-1.281.646A3.516,3.516,0,0,0,33.563,34.856Zm11.891-2.192a6.134,6.134,0,0,0-.812-.062,1.654,1.654,0,0,0-1.68.867V39H40.7V30.547h2.133l.063,1.008a2.092,2.092,0,0,1,1.883-1.164,2.366,2.366,0,0,1,.7.1ZM48.922,39H46.656V30.547h2.266Zm-2.4-10.641a1.112,1.112,0,0,1,.34-.836,1.465,1.465,0,0,1,1.848,0,1.193,1.193,0,0,1,0,1.68,1.448,1.448,0,0,1-1.836,0A1.108,1.108,0,0,1,46.523,28.359Zm6.852,8.82h4.133V39H50.492V37.625l3.977-5.258H50.609v-1.82h6.773v1.33Zm5.07-2.484a5.013,5.013,0,0,1,.484-2.242,3.546,3.546,0,0,1,1.395-1.523,4.069,4.069,0,0,1,2.113-.539,3.849,3.849,0,0,1,2.793,1.047,4.2,4.2,0,0,1,1.207,2.844l.016.578a4.418,4.418,0,0,1-1.086,3.121,4.209,4.209,0,0,1-5.832,0,4.5,4.5,0,0,1-1.09-3.187Zm2.258.16a3.16,3.16,0,0,0,.453,1.843,1.628,1.628,0,0,0,2.578.008,3.457,3.457,0,0,0,.461-2.015,3.128,3.128,0,0,0-.461-1.831,1.5,1.5,0,0,0-1.3-.649,1.474,1.474,0,0,0-1.281.646A3.516,3.516,0,0,0,60.7,34.856Zm9.219-4.309.07.977a2.951,2.951,0,0,1,2.43-1.133,2.453,2.453,0,0,1,2,.789,3.682,3.682,0,0,1,.672,2.359V39H72.836V33.594a1.465,1.465,0,0,0-.312-1.043,1.4,1.4,0,0,0-1.039-.324,1.553,1.553,0,0,0-1.43.813V39H67.8V30.547Zm9.586-2.078v2.078h1.445V32.2H79.508v4.219a1.007,1.007,0,0,0,.18.672.9.9,0,0,0,.688.2,3.6,3.6,0,0,0,.664-.055v1.711a4.648,4.648,0,0,1-1.367.2,2.156,2.156,0,0,1-2.422-2.4V32.2H76.016V30.547H77.25V28.469ZM87.109,39a2.507,2.507,0,0,1-.227-.758,2.732,2.732,0,0,1-2.133.914,3,3,0,0,1-2.059-.719,2.312,2.312,0,0,1-.816-1.812,2.389,2.389,0,0,1,1-2.062,4.915,4.915,0,0,1,2.879-.727h1.039v-.484a1.393,1.393,0,0,0-.3-.937,1.183,1.183,0,0,0-.949-.352,1.345,1.345,0,0,0-.895.273.929.929,0,0,0-.324.75H82.063a2.268,2.268,0,0,1,.453-1.359,3,3,0,0,1,1.281-.98,4.669,4.669,0,0,1,1.859-.355,3.689,3.689,0,0,1,2.48.785,2.747,2.747,0,0,1,.918,2.207v3.664a4.041,4.041,0,0,0,.336,1.82V39Zm-1.867-1.57a1.945,1.945,0,0,0,.922-.223,1.462,1.462,0,0,0,.625-.6V35.156h-.844q-1.7,0-1.8,1.172l-.008.133a.9.9,0,0,0,.3.7A1.153,1.153,0,0,0,85.242,37.43ZM93.172,39H90.906V27h2.266Z" transform="translate(82.69 73.449)" fill="#12263f"/>
      </g>
      <path id="Trazado_583448" data-name="Trazado 583448" d="M657.148-169.127a33.4,33.4,0,0,1-16.712-4.5,33.442,33.442,0,0,1-12.165-45.648,33.533,33.533,0,0,1,28.937-16.668,33.4,33.4,0,0,1,16.712,4.5,33.189,33.189,0,0,1,15.536,20.3,33.184,33.184,0,0,1-3.372,25.344A33.532,33.532,0,0,1,657.148-169.127Z" transform="translate(-203.597 1314.483)" fill="#0c5e46"/>
      <path id="Trazado_583449" data-name="Trazado 583449" d="M657.148-169.127a33.4,33.4,0,0,1-16.712-4.5,33.442,33.442,0,0,1-12.165-45.648,33.533,33.533,0,0,1,28.937-16.668,33.4,33.4,0,0,1,16.712,4.5,33.189,33.189,0,0,1,15.536,20.3,33.184,33.184,0,0,1-3.372,25.344A33.532,33.532,0,0,1,657.148-169.127Z" transform="translate(-33.597 1314.483)" fill="#e1efe3"/>
      <path id="Trazado_583450" data-name="Trazado 583450" d="M657.148-169.127a33.4,33.4,0,0,1-16.712-4.5,33.442,33.442,0,0,1-12.165-45.648,33.533,33.533,0,0,1,28.937-16.668,33.4,33.4,0,0,1,16.712,4.5,33.189,33.189,0,0,1,15.536,20.3,33.184,33.184,0,0,1-3.372,25.344A33.532,33.532,0,0,1,657.148-169.127Z" transform="translate(-121.606 1422.483)" fill="#3ae3fe"/>
      <path id="Trazado_612806" data-name="Trazado 612806" d="M16.818,19H14V8.121L10.627,9.166V6.871l5.889-2.109h.3Z" transform="translate(439.092 1098.446)" fill="#fff"/>
      <path id="Trazado_612805" data-name="Trazado 612805" d="M19.709,19H9.963V17.066l4.6-4.9a11.347,11.347,0,0,0,1.4-1.807,2.9,2.9,0,0,0,.454-1.465A2.172,2.172,0,0,0,15.939,7.4a1.727,1.727,0,0,0-1.367-.542,1.863,1.863,0,0,0-1.509.659,2.611,2.611,0,0,0-.552,1.733H9.68a4.661,4.661,0,0,1,.62-2.373A4.371,4.371,0,0,1,12.053,5.2a5.328,5.328,0,0,1,2.568-.61,5.045,5.045,0,0,1,3.413,1.055A3.731,3.731,0,0,1,19.25,8.619a4.781,4.781,0,0,1-.547,2.148,11.939,11.939,0,0,1-1.875,2.549L13.6,16.725h6.113Z" transform="translate(609.091 1098.446)" fill="#12263f"/>
      <path id="Trazado_612807" data-name="Trazado 612807" d="M12.834,10.641h1.5A2.119,2.119,0,0,0,15.93,10.1a1.968,1.968,0,0,0,.518-1.426,1.74,1.74,0,0,0-.513-1.338,1.987,1.987,0,0,0-1.411-.479,2.083,2.083,0,0,0-1.357.444,1.421,1.421,0,0,0-.547,1.157H9.8a3.471,3.471,0,0,1,.6-2,4,4,0,0,1,1.68-1.382,5.606,5.606,0,0,1,2.378-.5A5.316,5.316,0,0,1,17.99,5.665,3.682,3.682,0,0,1,19.27,8.639a2.992,2.992,0,0,1-.6,1.8,3.87,3.87,0,0,1-1.562,1.26A3.533,3.533,0,0,1,18.9,12.984a3.5,3.5,0,0,1,.591,2.031,3.743,3.743,0,0,1-1.382,3.037A5.556,5.556,0,0,1,14.455,19.2a5.268,5.268,0,0,1-3.481-1.123A3.668,3.668,0,0,1,9.621,15.1h2.822a1.635,1.635,0,0,0,.6,1.309,2.213,2.213,0,0,0,1.479.508,2.224,2.224,0,0,0,1.577-.532,1.837,1.837,0,0,0,.571-1.411q0-2.129-2.344-2.129H12.834Z" transform="translate(521.082 1206.447)" fill="#12263f"/>
    </g>
    <g id="Grupo_1072808" data-name="Grupo 1072808">
      <g id="Grupo_1072798" data-name="Grupo 1072798" transform="translate(505 29)">
        <g id="Grupo_1072794" data-name="Grupo 1072794" transform="translate(495 799)">
          <g id="Grupo_1015374" data-name="Grupo 1015374" transform="translate(0 0)">
            <g id="Grupo_1015448" data-name="Grupo 1015448" transform="translate(0 0)">
              <g id="Grupo_1014855" data-name="Grupo 1014855" transform="translate(0 0)">
                <path id="Unión_12" data-name="Unión 12" d="M52.5,0C81.495,0,105,23.1,105,51.6s-23.505,51.6-52.5,51.6S0,80.1,0,51.6,23.505,0,52.5,0Z" fill="#e1efe3"/>
                <path id="Trazado_608395" data-name="Trazado 608395" d="M43.975,0A44.2,44.2,0,0,1,87.949,44.423,44.2,44.2,0,0,1,43.975,88.847,44.2,44.2,0,0,1,0,44.423,44.2,44.2,0,0,1,43.975,0Z" transform="translate(8.974 6.282)" fill="#fef5e5"/>
              </g>
            </g>
          </g>
        </g>
        <g id="Grupo_1072795" data-name="Grupo 1072795" transform="translate(503.729 805.769)">
          <g id="Grupo_875625" data-name="Grupo 875625" transform="translate(0 0)">
            <g transform="matrix(1, 0, 0, 1, -537.5, -37.77)" filter="url(#Elipse_180)">
              <circle id="Elipse_180-4" data-name="Elipse 180" cx="43.771" cy="43.771" r="43.771" transform="translate(537.5 37.77)" fill="#fff"/>
            </g>
          </g>
        </g>
      </g>
      <g id="computer" transform="translate(1026.029 853.132)">
        <path id="Trazado_612735" data-name="Trazado 612735" d="M54.176,16.765V41.471H3V16.765A1.77,1.77,0,0,1,4.765,15H52.412A1.77,1.77,0,0,1,54.176,16.765Z" transform="translate(-2.118 -3.529)" fill="#57a4ff"/>
        <path id="Trazado_612736" data-name="Trazado 612736" d="M54.176,16.765V41.471H3V37.941H40.059A10.588,10.588,0,0,0,50.647,27.353V16.765A1.77,1.77,0,0,0,48.882,15h3.529A1.77,1.77,0,0,1,54.176,16.765Z" transform="translate(-2.118 -3.529)" fill="#2488ff"/>
        <path id="Trazado_612737" data-name="Trazado 612737" d="M53,27h3.529V39.353H53Z" transform="translate(-8 -4.941)" fill="#ff7956"/>
        <path id="Trazado_612738" data-name="Trazado 612738" d="M45,29h3.529V39.588H45Z" transform="translate(-7.059 -5.176)" fill="#ffde55"/>
        <path id="Trazado_612739" data-name="Trazado 612739" d="M41.176,60.529H20L22.647,57H38.529Z" transform="translate(-4.118 -8.471)" fill="#c6c5ca"/>
        <path id="Trazado_612740" data-name="Trazado 612740" d="M37,33h3.529v7.059H37Z" transform="translate(-6.118 -5.647)" fill="#00ddc2"/>
        <path id="Trazado_612741" data-name="Trazado 612741" d="M38.353,6.176a7.909,7.909,0,0,1,1.588,4.765,7.29,7.29,0,0,1-.053.882H32V3a7.934,7.934,0,0,1,6.353,3.176Z" transform="translate(-5.529 -2.118)" fill="#ff7956"/>
        <path id="Trazado_612742" data-name="Trazado 612742" d="M25.488,16.712A7.939,7.939,0,0,1,30.941,3v8.824h7.888a7.439,7.439,0,0,1-.406,1.765,7.935,7.935,0,0,1-12.935,3.124Z" transform="translate(-4.471 -2.118)" fill="#ffde55"/>
        <path id="Trazado_612743" data-name="Trazado 612743" d="M38.829,15.706a7.439,7.439,0,0,1-.406,1.765A7.939,7.939,0,0,1,23,14.824a8.2,8.2,0,0,1,.106-1.324,8.105,8.105,0,0,0,.353,1.324,7.8,7.8,0,0,0,2.029,3.124,7.928,7.928,0,0,0,12.556-2.241Z" transform="translate(-4.471 -3.353)" fill="#2488ff"/>
        <path id="Trazado_612744" data-name="Trazado 612744" d="M37.353,56.294H25L25.882,51H36.471Z" transform="translate(-4.706 -7.765)" fill="#57a4ff"/>
        <path id="Trazado_612745" data-name="Trazado 612745" d="M54.176,45v3.529a1.77,1.77,0,0,1-1.765,1.765H4.765A1.77,1.77,0,0,1,3,48.529V45Z" transform="translate(-2.118 -7.059)" fill="#c6c5ca"/>
        <path id="Trazado_612746" data-name="Trazado 612746" d="M26,51H36.588v2.647H26Z" transform="translate(-4.824 -7.765)" fill="#2488ff"/>
        <path id="Trazado_612747" data-name="Trazado 612747" d="M11.412,23.412h4.412A4.412,4.412,0,1,1,11.412,19Z" transform="translate(-2.588 -4)" fill="#ffde55"/>
        <path id="Trazado_612748" data-name="Trazado 612748" d="M37,33h3.529v7.059H37Z" transform="translate(-6.118 -5.647)" fill="#00d7df"/>
        <path id="Trazado_612749" data-name="Trazado 612749" d="M53,27h3.529v1.765H53Z" transform="translate(-8 -4.941)" fill="#ff5023"/>
        <path id="Trazado_612750" data-name="Trazado 612750" d="M45,29h3.529v1.765H45Z" transform="translate(-7.059 -5.176)" fill="#ebbf00"/>
        <path id="Trazado_612751" data-name="Trazado 612751" d="M37,33h3.529v1.765H37Z" transform="translate(-6.118 -5.647)" fill="#009698"/>
        <path id="Trazado_612752" data-name="Trazado 612752" d="M52.294,12.588H37.118a9,9,0,0,0,.176-1.765,8.792,8.792,0,0,0-1.279-4.553L39.35,3.765h6.768V2H39.059a.868.868,0,0,0-.529.176L34.956,4.859a8.786,8.786,0,0,0-12.971,0L18.412,2.176A.868.868,0,0,0,17.882,2H10.824V3.765h6.768l3.335,2.506a8.792,8.792,0,0,0-1.279,4.553,9,9,0,0,0,.176,1.765H4.647A2.655,2.655,0,0,0,2,15.235V43.471a2.655,2.655,0,0,0,2.647,2.647H22.294v3.529H19.647a.9.9,0,0,0-.706.353l-2.647,3.529A.882.882,0,0,0,17,54.941H39.941a.882.882,0,0,0,.706-1.412L38,50a.9.9,0,0,0-.706-.353H34.647V46.118H52.294a2.655,2.655,0,0,0,2.647-2.647V15.235a2.655,2.655,0,0,0-2.647-2.647ZM29.353,3.826a7.039,7.039,0,0,1,4.182,2.091L31.471,7.471l1.059,1.412,2.065-1.553a7.01,7.01,0,0,1,.935,3.494H29.353Zm-7.006,3.5,2.065,1.553,1.059-1.412L23.406,5.918a7.039,7.039,0,0,1,4.182-2.091v7.879a.882.882,0,0,0,.882.882H35.3A7.054,7.054,0,1,1,22.347,7.329ZM36.853,51.412l1.324,1.765H18.765l1.324-1.765ZM24.059,49.647V46.118h8.824v3.529Zm29.118-6.176a.882.882,0,0,1-.882.882H4.647a.882.882,0,0,1-.882-.882V40.824H53.176Zm0-4.412H3.765V15.235a.882.882,0,0,1,.882-.882H20.388a8.816,8.816,0,0,0,16.165,0H52.294a.882.882,0,0,1,.882.882Z" transform="translate(-2 -2)"/>
        <path id="Trazado_612753" data-name="Trazado 612753" d="M54,2h3.529V3.765H54Z" transform="translate(-8.118 -2)"/>
        <path id="Trazado_612754" data-name="Trazado 612754" d="M44,6h1.765V7.765H44Z" transform="translate(-6.941 -2.471)"/>
        <path id="Trazado_612755" data-name="Trazado 612755" d="M48,6h8.824V7.765H48Z" transform="translate(-7.412 -2.471)"/>
        <path id="Trazado_612756" data-name="Trazado 612756" d="M44,10h7.059v1.765H44Z" transform="translate(-6.941 -2.941)"/>
        <path id="Trazado_612757" data-name="Trazado 612757" d="M54,10h3.529v1.765H54Z" transform="translate(-8.118 -2.941)"/>
        <path id="Trazado_612758" data-name="Trazado 612758" d="M6,2H9.529V3.765H6Z" transform="translate(-2.471 -2)"/>
        <path id="Trazado_612759" data-name="Trazado 612759" d="M18,6h1.765V7.765H18Z" transform="translate(-3.882 -2.471)"/>
        <path id="Trazado_612760" data-name="Trazado 612760" d="M6,6h8.824V7.765H6Z" transform="translate(-2.471 -2.471)"/>
        <path id="Trazado_612761" data-name="Trazado 612761" d="M12,10h7.059v1.765H12Z" transform="translate(-3.176 -2.941)"/>
        <path id="Trazado_612762" data-name="Trazado 612762" d="M6,10H9.529v1.765H6Z" transform="translate(-2.471 -2.941)"/>
        <path id="Trazado_612763" data-name="Trazado 612763" d="M6,32h4.412v1.765H6Z" transform="translate(-2.471 -5.529)"/>
        <path id="Trazado_612764" data-name="Trazado 612764" d="M13,32H29.765v1.765H13Z" transform="translate(-3.294 -5.529)"/>
        <path id="Trazado_612765" data-name="Trazado 612765" d="M6,36H20.118v1.765H6Z" transform="translate(-2.471 -6)"/>
        <path id="Trazado_612766" data-name="Trazado 612766" d="M24,36h7.059v1.765H24Z" transform="translate(-4.588 -6)"/>
        <path id="Trazado_612767" data-name="Trazado 612767" d="M6,40h8.824v1.765H6Z" transform="translate(-2.471 -6.471)"/>
        <path id="Trazado_612768" data-name="Trazado 612768" d="M18,40H30.353v1.765H18Z" transform="translate(-3.882 -6.471)"/>
        <path id="Trazado_612769" data-name="Trazado 612769" d="M36.882,40.824h3.529a.882.882,0,0,0,.882-.882V32.882A.882.882,0,0,0,40.412,32H36.882a.882.882,0,0,0-.882.882v7.059A.882.882,0,0,0,36.882,40.824Zm.882-7.059h1.765v5.294H37.765Z" transform="translate(-6 -5.529)"/>
        <path id="Trazado_612770" data-name="Trazado 612770" d="M48.412,28H44.882a.882.882,0,0,0-.882.882V39.471a.882.882,0,0,0,.882.882h3.529a.882.882,0,0,0,.882-.882V28.882A.882.882,0,0,0,48.412,28Zm-.882,10.588H45.765V29.765h1.765Z" transform="translate(-6.941 -5.059)"/>
        <path id="Trazado_612771" data-name="Trazado 612771" d="M56.412,26H52.882a.882.882,0,0,0-.882.882V39.235a.882.882,0,0,0,.882.882h3.529a.882.882,0,0,0,.882-.882V26.882A.882.882,0,0,0,56.412,26Zm-.882,12.353H53.765V27.765h1.765Z" transform="translate(-7.882 -4.824)"/>
        <path id="Trazado_612772" data-name="Trazado 612772" d="M11.294,28.588a5.3,5.3,0,0,0,5.294-5.294.882.882,0,0,0-.882-.882H12.176V18.882A.882.882,0,0,0,11.294,18a5.294,5.294,0,0,0,0,10.588Zm-.882-8.712v3.418a.882.882,0,0,0,.882.882h3.417a3.529,3.529,0,1,1-4.3-4.3Z" transform="translate(-2.471 -3.882)"/>
        <path id="Trazado_612773" data-name="Trazado 612773" d="M20,24h1.765v1.765H20Z" transform="translate(-4.118 -4.588)"/>
        <path id="Trazado_612774" data-name="Trazado 612774" d="M24,24h7.059v1.765H24Z" transform="translate(-4.588 -4.588)"/>
        <path id="Trazado_612775" data-name="Trazado 612775" d="M20,28H30.588v1.765H20Z" transform="translate(-4.118 -5.059)"/>
        <path id="Trazado_612776" data-name="Trazado 612776" d="M41.206,28.1l1.516-3.041h4.749a.882.882,0,0,0,.679-.318L52.3,19.765h3.116V18H51.882a.882.882,0,0,0-.679.318l-4.147,4.976h-4.88a.882.882,0,0,0-.794.488l-1.516,3.041H36v1.765h4.412a.882.882,0,0,0,.794-.488Z" transform="translate(-6 -3.882)"/>
      </g>
    </g>
    <g id="Grupo_1072807" data-name="Grupo 1072807">
      <g id="Grupo_1072796" data-name="Grupo 1072796" transform="translate(0 29)">
        <g id="Grupo_1072794-2" data-name="Grupo 1072794" transform="translate(495 799)">
          <g id="Grupo_1015374-2" data-name="Grupo 1015374" transform="translate(0 0)">
            <g id="Grupo_1015448-2" data-name="Grupo 1015448" transform="translate(0 0)">
              <g id="Grupo_1014855-2" data-name="Grupo 1014855" transform="translate(0 0)">
                <path id="Unión_12-2" data-name="Unión 12" d="M52.5,0C81.495,0,105,23.1,105,51.6s-23.505,51.6-52.5,51.6S0,80.1,0,51.6,23.505,0,52.5,0Z" fill="#0c5e46"/>
                <path id="Trazado_608395-2" data-name="Trazado 608395" d="M43.975,0A44.2,44.2,0,0,1,87.949,44.423,44.2,44.2,0,0,1,43.975,88.847,44.2,44.2,0,0,1,0,44.423,44.2,44.2,0,0,1,43.975,0Z" transform="translate(8.974 6.282)" fill="#fef5e5"/>
              </g>
            </g>
          </g>
        </g>
        <g id="Grupo_1072795-2" data-name="Grupo 1072795" transform="translate(503.729 805.769)">
          <g id="Grupo_875625-2" data-name="Grupo 875625" transform="translate(0 0)">
            <g transform="matrix(1, 0, 0, 1, -32.5, -37.77)" filter="url(#Elipse_180-2)">
              <circle id="Elipse_180-5" data-name="Elipse 180" cx="43.771" cy="43.771" r="43.771" transform="translate(32.5 37.77)" fill="#fff"/>
            </g>
          </g>
        </g>
      </g>
      <g id="layer1" transform="translate(521.56 850.383)">
        <path id="path7762-9" d="M1.348,57.2,1.323,9.583,10.076.837c5.238,0,25.18-.069,32.09-.032a1.915,1.915,0,0,1,1.945,1.945V50.39c0,4.862,0,6.807-3.951,6.807Z" transform="translate(1.592 0.177)" fill="#e4eff8"/>
        <path id="path7860-2" d="M41.181.8V4.676c0,42.789-26.257,41.817-32.092,41.817H1.328l.006,10.7H40.147c3.951,0,3.951-1.945,3.951-6.807V2.74A1.913,1.913,0,0,0,42.153.8c-.2,0-.749,0-.972,0Z" transform="translate(1.605 0.185)" fill="#c4dcf0"/>
        <path id="path7766-2" d="M16.278,27.673c0-3.172-6.488-6.343-6.488-13.743A11.313,11.313,0,0,1,21.234,2.381a11.764,11.764,0,0,1,11.9,11.629c0,7.4-6.939,10.491-6.939,13.663Z" transform="translate(24.244 4.425)" fill="#ffca28"/>
        <path id="path7764-4" d="M1.323,9.548,10.075.8v8.75Z" transform="translate(1.591 0.189)" fill="#549ad4"/>
        <path id="path7797-7" d="M15.291,2.516a11.3,11.3,0,0,1,9.725,11.413,9.48,9.48,0,0,1-.988,4.754,15.116,15.116,0,0,1-12.656,7.05,3.757,3.757,0,0,1,.682,1.939c2.158-.007,4.315,0,6.473,0,1.3,0,2.593,0,3.89,0,0-2.577,4.284-5.155,5.89-10a11.784,11.784,0,0,0,.6-3.744c0-.092-.011-.182-.013-.273A11.35,11.35,0,0,0,17.236,2.381a12.936,12.936,0,0,0-1.945.135Z" transform="translate(28.48 4.424)" fill="#ecb200"/>
        <path id="path7805-7" d="M21.233,2.381A11.313,11.313,0,0,0,9.79,13.93c0,7.4,6.488,10.572,6.488,13.744h1.945c0-3.172-6.488-6.344-6.488-13.744a11.3,11.3,0,0,1,10.458-11.5c-.317-.025-.636-.047-.959-.047Z" transform="translate(24.244 4.425)" fill="#f5f9fb"/>
        <path id="path7808-5" d="M21.366,9.263V15.1a1.94,1.94,0,0,1-1.945,1.944H13.587A1.94,1.94,0,0,1,11.642,15.1V9.263Z" transform="translate(29.199 22.835)" fill="#e4eff8"/>
        <path id="path7812-4" d="M13.587,17.041h5.835A1.941,1.941,0,0,0,21.366,15.1V9.263H19.254c-1.082,6.623-7.613,5.83-7.613,5.83a1.942,1.942,0,0,0,1.945,1.948Z" transform="translate(29.199 22.835)" fill="#c4dcf0"/>
        <path id="path7819-8" d="M11.642,9.263V15.1a1.941,1.941,0,0,0,1.945,1.945h1.945A1.941,1.941,0,0,1,13.587,15.1V9.263Z" transform="translate(29.199 22.835)" fill="#f5f9fb"/>
        <path id="path7822-1" d="M18.006,11.377v1.945a1.941,1.941,0,0,1-1.945,1.945H14.116a1.941,1.941,0,0,1-1.945-1.945V11.377Z" transform="translate(30.615 28.493)" fill="#ffca28"/>
        <path id="path7824-2" d="M12.211,13.716a1.94,1.94,0,0,0,1.905,1.552h1.945a1.941,1.941,0,0,0,1.945-1.945V11.377h-.051a7.568,7.568,0,0,1-5.784,1.948,1.971,1.971,0,0,0,.04.39Z" transform="translate(30.615 28.493)" fill="#ecb200"/>
        <path id="path7829-8" d="M.794,13.758v4.862a3.881,3.881,0,0,0,3.89,3.89H41.638a3.881,3.881,0,0,1-3.89-3.89V13.758Z" transform="translate(0.176 34.864)" fill="#549ad4"/>
        <path id="path7849-9" d="M34.424,13.758c-1.563,5.835-8.752,6.807-21.394,6.807-4.153,0-10.026.076-12.084.04a3.865,3.865,0,0,0,3.331,1.905H41.231a3.881,3.881,0,0,1-3.89-3.89V13.758Z" transform="translate(0.582 34.864)" fill="#3588cb"/>
        <path id="path7834-3" d="M11.506,10.22l-4.032,3.9,7.786,9.708a3.68,3.68,0,0,0,5.244.458,3.565,3.565,0,0,0,.317-5.225Z" transform="translate(18.049 25.396)" fill="#ffd1b5"/>
        <path id="path7841-6" d="M9.622,10.22l-1.444,1.4,7.843,7.446a3.565,3.565,0,0,1-.317,5.225,3.627,3.627,0,0,1-.953.572,3.7,3.7,0,0,0,3.869-.572,3.565,3.565,0,0,0,.317-5.225Z" transform="translate(19.933 25.396)" fill="#ffb98d"/>
        <path id="path7844-8" d="M11.506,10.22l-4.032,3.9.568.708A11.67,11.67,0,0,0,12.961,11.6Z" transform="translate(18.049 25.396)" fill="#ffb98d"/>
        <path id="path7865-0" d="M25.985,16.962a11.67,11.67,0,1,1-11.67-11.67A11.67,11.67,0,0,1,25.985,16.962Z" transform="translate(5.131 12.211)" fill="#549ad4"/>
        <path id="ellipse7867-2" d="M19.263,14.129A7.779,7.779,0,1,1,11.484,6.35a7.779,7.779,0,0,1,7.779,7.779Z" transform="translate(7.963 15.044)" fill="#e4eff8"/>
        <path id="ellipse7871-1" d="M11.483,6.35A7.778,7.778,0,0,0,7.059,20.525,7.772,7.772,0,0,1,17.853,9.68a7.779,7.779,0,0,0-6.37-3.33Z" transform="translate(7.964 15.043)" fill="#c4dcf0"/>
        <path id="path7874-0" d="M8.653,6.617H4.763v6.805h3.89Z" transform="translate(10.795 15.758)" fill="#ffd1b5"/>
        <path id="rect7878-5" d="M6.879,4.5h3.89V19.084H6.879Z" transform="translate(16.458 10.097)" fill="#ffd1b5"/>
        <path id="path7887-1" d="M16.432,6.011c-3.221,4.461-9.531,7.083-11.67,7.083v1.953h11.67Z" transform="translate(10.794 14.135)" fill="#ffb98d"/>
        <path id="rect7876-1" d="M5.821,5.295h3.89V16.961H5.821Z" transform="translate(13.626 12.22)" fill="#ffca28"/>
        <path id="rect7891-0" d="M9.711,7.031a22.6,22.6,0,0,1-3.89,2.217v3.069h3.89Z" transform="translate(13.626 16.864)" fill="#ecb200"/>
        <path id="path7715-8" d="M0,3.89A7.78,7.78,0,0,0,6.738,0" transform="translate(45.703 14.586) rotate(180)" fill="none" stroke="#333" stroke-linecap="round" stroke-linejoin="round" stroke-width="0.529"/>
        <path id="path7717-5" d="M1.945.96a.972.972,0,1,0,0,.012" transform="translate(38.896 19.448) rotate(180)" fill="#333"/>
        <path id="path7857-0" d="M.794,13.758v4.862a3.881,3.881,0,0,0,3.89,3.89H6.629a3.881,3.881,0,0,1-3.89-3.89V13.758Z" transform="translate(0.176 34.864)" fill="#f5f9fb"/>
        <g id="Grupo_1072799" data-name="Grupo 1072799" transform="translate(0 0)">
          <path id="path917" d="M19.734,5.984a11.677,11.677,0,0,1-16.4,16.4,11.68,11.68,0,1,0,16.4-16.4Z" transform="translate(6.973 14.062)" fill="#3588cb"/>
          <path id="path912" d="M14.338,5.3a11.688,11.688,0,0,0,0,23.376c.328,0,.652-.021.974-.048a11.68,11.68,0,0,1,0-23.279c-.322-.027-.646-.049-.974-.049Z" transform="translate(5.142 12.233)" fill="#f5f9fb"/>
          <path id="path846" d="M2.5,48.259h-1a.973.973,0,0,0-.97.97v4.876A4.876,4.876,0,0,0,5.4,58.971H42.412a4.876,4.876,0,0,0,4.868-4.866V45.331a2.937,2.937,0,0,0,2.926-2.918V41.272a2.939,2.939,0,0,0,1.948-2.749v-.97a.973.973,0,0,0,0-1.946V33.658a.974.974,0,0,0,.169-1.933,6.778,6.778,0,0,1,.586-.887c.6-.788,1.472-1.709,2.367-2.789A13.892,13.892,0,0,0,58.971,19,12.74,12.74,0,0,0,47.282,6.438V3.466A2.943,2.943,0,0,0,44.372.54C35.452.5,21.9.57,12.431.576a.974.974,0,0,0-.9.259L2.765,9.6a.994.994,0,0,0-.283.711ZM44.355,2.488a.909.909,0,0,1,.985.978V6.4A12.326,12.326,0,0,0,33.646,18.919,14.509,14.509,0,0,0,37.1,27.978C37.933,29.068,38.74,30,39.3,30.8a6.42,6.42,0,0,1,.633,1.071.974.974,0,0,0,.525,1.792v1.948a.973.973,0,0,0,0,1.946v.97a2.936,2.936,0,0,0,1.948,2.751v1.14a2.931,2.931,0,0,0,2.918,2.918v8.774a2.918,2.918,0,1,1-5.836,0V51.259c.1-.071.194-.145.287-.224a4.541,4.541,0,0,0,.352-6.681L31.122,35.8A12.657,12.657,0,0,0,28.778,20.62V15.158a.974.974,0,0,0-.978-.978H23.9a.974.974,0,0,0-.97.978V17.1H20.086v-.006a12.657,12.657,0,1,0,5.536,23.991l5.758,7.176H4.447l-.021-37H12.22a.974.974,0,0,0,.97-.97V2.522c5.882-.006,24.553-.069,31.164-.034ZM11.242,3.869V9.312H5.8Zm5.846,2.509a.974.974,0,1,0,0,1.948H34.617a.974.974,0,1,0,0-1.948Zm28.99,1.948A10.794,10.794,0,0,1,57.021,19c0,3.4-1.563,5.774-3.249,7.809-.843,1.018-1.715,1.929-2.416,2.846a6.431,6.431,0,0,0-1.145,2.056H47.279V26.266l2.639-2.646a.974.974,0,0,0-1.381-1.374l-2.228,2.23-2.237-2.23A.971.971,0,1,0,42.7,23.62l2.631,2.639v5.45H41.958a6.715,6.715,0,0,0-1.063-2.034c-.655-.924-1.462-1.849-2.25-2.876a12.442,12.442,0,0,1-3.049-7.88A10.308,10.308,0,0,1,46.078,8.327Zm.228,1.95a8.766,8.766,0,0,0-7.592,4.377.977.977,0,0,0,1.691.978,6.807,6.807,0,0,1,5.9-3.407.974.974,0,1,0,0-1.948Zm-29.218.006a.975.975,0,1,0,0,1.95H31.7a.975.975,0,0,0,0-1.95Zm7.794,5.846H26.83V28.79H24.882V16.128Zm13.634,1.937a.974.974,0,1,0,.974.974A.974.974,0,0,0,38.516,18.065Zm-17.532.984h1.948V28.79H20.984V19.048Zm7.794,4.541a10.716,10.716,0,1,1-9.742-4.5v2.89H16.108a.925.925,0,0,0-.628.224,8.789,8.789,0,0,0,5.977,16.195,8.748,8.748,0,0,0,7.318-8.532c.006-2.076,0-4.187,0-6.272Zm-11.69.333h1.948V28.79H17.088Zm-1.95,1.01V29.76a.974.974,0,0,0,.97.978H26.76A6.821,6.821,0,0,1,13.593,32.06a6.892,6.892,0,0,1,1.545-7.128ZM42.41,33.658H50.2v1.948H42.41ZM30.041,37.465l8.753,8.3a2.606,2.606,0,0,1-.287,3.79,2.7,2.7,0,0,1-3.854-.331l-7.339-9.147a12.581,12.581,0,0,0,2.728-2.61Zm12.369.089H50.2v.968a.953.953,0,0,1-.978.972H43.381a.947.947,0,0,1-.97-.972Zm1.948,3.888h3.9v.97a.951.951,0,0,1-.978.97h-1.95a.945.945,0,0,1-.97-.97ZM2.478,50.207H32.944a4.627,4.627,0,0,0,4.6,1.876v2.022a4.833,4.833,0,0,0,.984,2.918H5.4a2.888,2.888,0,0,1-2.918-2.918Z" transform="translate(-0.53 -0.53)" fill="#333"/>
        </g>
      </g>
    </g>
    <g id="Grupo_1072806" data-name="Grupo 1072806">
      <g id="Grupo_1072797" data-name="Grupo 1072797" transform="translate(252.5 390.794)">
        <g id="Grupo_1072794-3" data-name="Grupo 1072794" transform="translate(495 799)">
          <g id="Grupo_1015374-3" data-name="Grupo 1015374" transform="translate(0 0)">
            <g id="Grupo_1015448-3" data-name="Grupo 1015448" transform="translate(0 0)">
              <g id="Grupo_1014855-3" data-name="Grupo 1014855" transform="translate(0 0)">
                <path id="Unión_12-3" data-name="Unión 12" d="M52.5,0C81.495,0,105,23.1,105,51.6s-23.505,51.6-52.5,51.6S0,80.1,0,51.6,23.505,0,52.5,0Z" fill="#3ae3fe"/>
                <path id="Trazado_608395-3" data-name="Trazado 608395" d="M43.975,0A44.2,44.2,0,0,1,87.949,44.423,44.2,44.2,0,0,1,43.975,88.847,44.2,44.2,0,0,1,0,44.423,44.2,44.2,0,0,1,43.975,0Z" transform="translate(8.974 6.282)" fill="#fef5e5"/>
              </g>
            </g>
          </g>
        </g>
        <g id="Grupo_1072795-3" data-name="Grupo 1072795" transform="translate(503.729 805.769)">
          <g id="Grupo_875625-3" data-name="Grupo 875625" transform="translate(0 0)">
            <g transform="matrix(1, 0, 0, 1, -285, -399.56)" filter="url(#Elipse_180-3)">
              <circle id="Elipse_180-6" data-name="Elipse 180" cx="43.771" cy="43.771" r="43.771" transform="translate(285 399.56)" fill="#fff"/>
            </g>
          </g>
        </g>
      </g>
      <g id="analitica" transform="translate(772.036 1213.435)">
        <g id="Grupo_1072805" data-name="Grupo 1072805" transform="translate(0 0)">
          <g id="Grupo_1072800" data-name="Grupo 1072800" transform="translate(0 0)">
            <circle id="Elipse_7413" data-name="Elipse 7413" cx="10.689" cy="10.689" r="10.689" transform="translate(0 15.114) rotate(-45)" fill="#60b7ff"/>
            <circle id="Elipse_7414" data-name="Elipse 7414" cx="9.361" cy="9.361" r="9.361" transform="translate(1.878 15.114) rotate(-45)" fill="#8ac9fe"/>
            <path id="Trazado_612777" data-name="Trazado 612777" d="M112.608,112.62H123.3a10.685,10.685,0,0,1-5.344,9.258Z" transform="translate(-97.491 -97.506)" fill="#fd4755" fill-rule="evenodd"/>
            <path id="Trazado_612778" data-name="Trazado 612778" d="M112.608,112.62h9.361a9.357,9.357,0,0,1-4.68,8.108Z" transform="translate(-97.491 -97.506)" fill="#fe646f" fill-rule="evenodd"/>
            <path id="Trazado_612779" data-name="Trazado 612779" d="M123.3,18.7H112.608V8.01A10.689,10.689,0,0,1,123.3,18.7Z" transform="translate(-97.491 -3.585)" fill="#ffd064" fill-rule="evenodd"/>
            <path id="Trazado_612780" data-name="Trazado 612780" d="M121.969,30.369h-9.361V21.008A9.361,9.361,0,0,1,121.969,30.369Z" transform="translate(-97.491 -15.255)" fill="#ffe177" fill-rule="evenodd"/>
          </g>
          <g id="Grupo_1072801" data-name="Grupo 1072801" transform="translate(30.868 4.143)">
            <path id="Trazado_612781" data-name="Trazado 612781" d="M267.909,5.247h2.757a1.152,1.152,0,0,1,1.15,1.15V9.154a1.152,1.152,0,0,1-1.15,1.15h-2.757a1.153,1.153,0,0,1-1.15-1.15V6.4a1.152,1.152,0,0,1,1.15-1.15Z" transform="translate(-266.759 -5.247)" fill="#8ac9fe" fill-rule="evenodd"/>
            <path id="Trazado_612782" data-name="Trazado 612782" d="M267.909,87.873h2.757a1.152,1.152,0,0,1,1.15,1.15V91.78a1.152,1.152,0,0,1-1.15,1.15h-2.757a1.153,1.153,0,0,1-1.15-1.15V89.023A1.152,1.152,0,0,1,267.909,87.873Z" transform="translate(-266.759 -79.43)" fill="#ffe177" fill-rule="evenodd"/>
            <path id="Trazado_612783" data-name="Trazado 612783" d="M267.909,170.5h2.757a1.152,1.152,0,0,1,1.15,1.15v2.757a1.152,1.152,0,0,1-1.15,1.15h-2.757a1.153,1.153,0,0,1-1.15-1.15v-2.757A1.152,1.152,0,0,1,267.909,170.5Z" transform="translate(-266.759 -153.612)" fill="#fe646f" fill-rule="evenodd"/>
          </g>
          <g id="Grupo_1072802" data-name="Grupo 1072802" transform="translate(4.428 31.672)">
            <path id="Trazado_612784" data-name="Trazado 612784" d="M198.034,348.361h3.394a1.024,1.024,0,0,1,1.022,1.022v13.861a1.024,1.024,0,0,1-1.022,1.022h-3.394a1.024,1.024,0,0,1-1.022-1.022V349.383A1.024,1.024,0,0,1,198.034,348.361Z" transform="translate(-177.699 -340.83)" fill="#ffe177" fill-rule="evenodd"/>
            <path id="Trazado_612785" data-name="Trazado 612785" d="M201.428,348.361a1.024,1.024,0,0,1,1.022,1.022v13.861a1.024,1.024,0,0,1-1.022,1.022h-3.394a1.024,1.024,0,0,1-1.022-1.022h3.394a1.024,1.024,0,0,0,1.022-1.022Z" transform="translate(-177.699 -340.83)" fill="#ffd064" fill-rule="evenodd"/>
            <path id="Trazado_612786" data-name="Trazado 612786" d="M294.619,348.361h3.394a1.024,1.024,0,0,1,1.022,1.022v13.861a1.024,1.024,0,0,1-1.022,1.022h-3.394a1.024,1.024,0,0,1-1.022-1.022V349.383A1.024,1.024,0,0,1,294.619,348.361Z" transform="translate(-264.415 -340.83)" fill="#fe646f" fill-rule="evenodd"/>
            <path id="Trazado_612787" data-name="Trazado 612787" d="M298.013,348.361a1.024,1.024,0,0,1,1.022,1.022v13.861a1.024,1.024,0,0,1-1.022,1.022h-3.394a1.024,1.024,0,0,1-1.022-1.022h3.394a1.024,1.024,0,0,0,1.022-1.022Z" transform="translate(-264.415 -340.83)" fill="#fd4755" fill-rule="evenodd"/>
            <path id="Trazado_612788" data-name="Trazado 612788" d="M9.022,321.361h3.394a1.024,1.024,0,0,1,1.022,1.022V339a1.024,1.024,0,0,1-1.022,1.022H9.022A1.024,1.024,0,0,1,8,339v-16.62A1.024,1.024,0,0,1,9.022,321.361Z" transform="translate(-8 -316.589)" fill="#6cf5c2" fill-rule="evenodd"/>
            <path id="Trazado_612789" data-name="Trazado 612789" d="M12.416,321.361a1.024,1.024,0,0,1,1.022,1.022V339a1.024,1.024,0,0,1-1.022,1.022H9.022A1.024,1.024,0,0,1,8,339h3.394a1.024,1.024,0,0,0,1.022-1.022Z" transform="translate(-8 -316.589)" fill="#00e499" fill-rule="evenodd"/>
            <path id="Trazado_612790" data-name="Trazado 612790" d="M101.448,274.658h3.394a1.024,1.024,0,0,1,1.022,1.022v21.392a1.024,1.024,0,0,1-1.022,1.022h-3.394a1.024,1.024,0,0,1-1.022-1.022V275.68A1.024,1.024,0,0,1,101.448,274.658Z" transform="translate(-90.982 -274.658)" fill="#8ac9fe" fill-rule="evenodd"/>
            <path id="Trazado_612791" data-name="Trazado 612791" d="M104.842,274.658a1.024,1.024,0,0,1,1.022,1.022v21.392a1.024,1.024,0,0,1-1.022,1.022h-3.394a1.024,1.024,0,0,1-1.022-1.022h3.394a1.024,1.024,0,0,0,1.022-1.022Z" transform="translate(-90.982 -274.658)" fill="#60b7ff" fill-rule="evenodd"/>
          </g>
          <g id="Grupo_1072803" data-name="Grupo 1072803" transform="translate(20.756 19.686)">
            <path id="Trazado_612792" data-name="Trazado 612792" d="M375.007,354.862a10.583,10.583,0,0,1-1.786,1.966l4.857,4.761,1.849-1.906Z" transform="translate(-352.231 -334.681)" fill="#a79ba7" fill-rule="evenodd"/>
            <path id="Trazado_612793" data-name="Trazado 612793" d="M386.378,354.541a1.221,1.221,0,0,1-.529.709l4.825,4.793.591-.647Z" transform="translate(-363.569 -334.393)" fill="#837683" fill-rule="evenodd"/>
            <path id="Trazado_612794" data-name="Trazado 612794" d="M415.728,398.75l2.087-2.151a.96.96,0,0,0-.02-1.353l-5.78-5.609a.96.96,0,0,0-1.353.02l-2.087,2.151a.96.96,0,0,0,.02,1.353l5.78,5.608A.96.96,0,0,0,415.728,398.75Z" transform="translate(-383.731 -365.663)" fill="#f1ba84" fill-rule="evenodd"/>
            <path id="Trazado_612795" data-name="Trazado 612795" d="M434.136,389.637l5.78,5.609a.96.96,0,0,1,.02,1.353l-2.087,2.151a.951.951,0,0,1-.259.189.961.961,0,0,0,1.114-.189l2.087-2.151a.96.96,0,0,0-.02-1.353l-5.78-5.609a.96.96,0,0,0-1.094-.169A.953.953,0,0,1,434.136,389.637Z" transform="translate(-406.707 -365.662)" fill="#e3a76f" fill-rule="evenodd"/>
            <circle id="Elipse_7415" data-name="Elipse 7415" cx="10.525" cy="10.525" r="10.525" transform="translate(0 14.882) rotate(-45)" fill="#eceff1"/>
            <path id="Trazado_612796" data-name="Trazado 612796" d="M309.025,200a10.525,10.525,0,0,1,0,21.05q-.257,0-.511-.013a10.525,10.525,0,0,0,0-21.025Q308.768,200,309.025,200Z" transform="translate(-294.136 -195.647)" fill="#d1d1d6" fill-rule="evenodd"/>
          </g>
          <g id="Grupo_1072804" data-name="Grupo 1072804" transform="translate(27.982 26.905)">
            <ellipse id="Elipse_7416" data-name="Elipse 7416" cx="7.664" cy="7.664" rx="7.664" ry="7.664" transform="translate(0 0)" fill="#837683"/>
            <path id="Trazado_612797" data-name="Trazado 612797" d="M313.827,235.669a7.664,7.664,0,0,1-6.982,7.634q.337.03.681.03a7.734,7.734,0,0,0,1.1-.078l.138-.021a7.664,7.664,0,0,0-1.235-15.228q-.344,0-.681.03A7.665,7.665,0,0,1,313.827,235.669Z" transform="translate(-299.863 -228.005)" fill="#685e68" fill-rule="evenodd"/>
            <path id="Trazado_612798" data-name="Trazado 612798" d="M266.757,310.239a5.354,5.354,0,0,0-5.321,4.776,7.638,7.638,0,0,0,5.321,2.149,7.736,7.736,0,0,0,1.1-.078,7.64,7.64,0,0,0,4.224-2.071A5.352,5.352,0,0,0,266.757,310.239Z" transform="translate(-259.094 -301.836)" fill="#8ac9fe" fill-rule="evenodd"/>
            <path id="Trazado_612799" data-name="Trazado 612799" d="M306.847,310.282c3.186.4,4.469,2.815,4.764,5.7a7.688,7.688,0,0,0,1.237-.971,5.357,5.357,0,0,0-6-4.733Z" transform="translate(-299.865 -301.836)" fill="#60b7ff" fill-rule="evenodd"/>
            <ellipse id="Elipse_7417" data-name="Elipse 7417" cx="2.706" cy="2.706" rx="2.706" ry="2.706" transform="translate(4.958 2.587)" fill="#f6dccd"/>
            <path id="Trazado_612800" data-name="Trazado 612800" d="M312.546,256.024a2.706,2.706,0,0,1-2.365,2.685,2.739,2.739,0,0,0,.341.021,2.706,2.706,0,0,0,0-5.412,2.735,2.735,0,0,0-.341.021A2.706,2.706,0,0,1,312.546,256.024Z" transform="translate(-302.858 -250.732)" fill="#f1cbbc" fill-rule="evenodd"/>
          </g>
        </g>
        <path id="Trazado_612801" data-name="Trazado 612801" d="M25.186,30.97a6.8,6.8,0,0,0,1.13,3.761,6.152,6.152,0,0,1,3.173-3.294,3.523,3.523,0,1,1,5.088,0,6.157,6.157,0,0,1,3.173,3.294A6.845,6.845,0,1,0,25.186,30.97Zm6.846-.079A1.889,1.889,0,1,1,33.92,29,1.89,1.89,0,0,1,32.032,30.891Zm0,6.925a6.814,6.814,0,0,1-4.446-1.647,4.535,4.535,0,0,1,8.893,0A6.817,6.817,0,0,1,32.032,37.816ZM23.551,30.97a8.481,8.481,0,1,1,8.481,8.481A8.491,8.491,0,0,1,23.551,30.97ZM14.88,28.89h-3.8v21.8h3.8Zm1.635-.818V51.508a.818.818,0,0,1-.817.818H10.259a.818.818,0,0,1-.818-.818V28.073a.817.817,0,0,1,.818-.818H15.7a.818.818,0,0,1,.817.818ZM50.638,46.258l-5.78-5.608a.134.134,0,0,0-.1-.038h0a.137.137,0,0,0-.1.041L42.574,42.8a.143.143,0,0,0,0,.2l5.779,5.609a.144.144,0,0,0,.2,0l2.087-2.151A.143.143,0,0,0,50.638,46.258Zm-16.02-4.244a11.368,11.368,0,0,1-3.8.232v8.444h3.8Zm-9.87-2.357a11.424,11.424,0,0,1-2.66-3.236H20.945V50.691h3.8ZM22.325,30.97a9.708,9.708,0,1,1,9.707,9.707A9.719,9.719,0,0,1,22.325,30.97Zm6.029-10.73a11.265,11.265,0,0,1,2.858-.583V18.53H28.354ZM40.742,38.227c-.218.261-.448.513-.688.754l2.035,1.975.711-.732Zm11.072,9.367-2.086,2.151a1.777,1.777,0,0,1-2.51.038l-5.779-5.608a1.778,1.778,0,0,1-.4-1.959l-2.224-2.159A11.337,11.337,0,0,1,36.253,41.5V51.508a.818.818,0,0,1-.817.818H30a.818.818,0,0,1-.818-.818v-9.56a11.255,11.255,0,0,1-2.8-1.146V51.508a.818.818,0,0,1-.818.818H20.128a.818.818,0,0,1-.817-.818V35.6a.817.817,0,0,1,.817-.818h1.223A11.342,11.342,0,0,1,26.72,20.95V17.712a.818.818,0,0,1,.818-.818H32.03a.818.818,0,0,1,.818.818v1.945a11.255,11.255,0,0,1,4.309,1.2H43.59a.817.817,0,1,1,0,1.635H39.554a11.324,11.324,0,0,1,2.153,14.4l2.319,2.251A1.779,1.779,0,0,1,46,39.476l5.78,5.609a1.776,1.776,0,0,1,.038,2.509ZM5.435,33.662h-3.8V50.691h3.8Zm1.635-.817V51.508a.818.818,0,0,1-.818.818H.815A.818.818,0,0,1,0,51.508V32.845a.817.817,0,0,1,.818-.818H6.253a.817.817,0,0,1,.818.818Zm21.284-19.9h2.858V10.087H28.354Zm-1.635.818V9.269a.817.817,0,0,1,.818-.817H32.03a.817.817,0,0,1,.818.817v4.493a.818.818,0,0,1-.818.818H27.537A.818.818,0,0,1,26.719,13.762Zm8.963.283h7.907a.818.818,0,0,0,0-1.635H35.683a.818.818,0,0,0,0,1.635Zm0-3.423H51.5a.818.818,0,0,0,0-1.635H35.683a.818.818,0,0,0,0,1.635ZM28.354,4.5h2.858V1.644H28.354Zm-1.635.818V.827a.817.817,0,0,1,.818-.818H32.03a.817.817,0,0,1,.818.818V5.319a.817.817,0,0,1-.818.818H27.537A.817.817,0,0,1,26.719,5.319Zm8.963.282h7.907a.817.817,0,1,0,0-1.635H35.683a.817.817,0,0,0,0,1.635Zm0-3.422H51.5a.818.818,0,0,0,0-1.635H35.683a.818.818,0,0,0,0,1.635ZM1.632,11.515A9.871,9.871,0,0,0,15.784,20.41L10.8,11.93a.824.824,0,0,1-.112-.415V1.678a9.885,9.885,0,0,0-9.054,9.838ZM12.321,1.678A9.89,9.89,0,0,1,21.342,10.7l-9.021,0Zm9.02,10.66-8.408,0,4.26,7.245a9.873,9.873,0,0,0,4.148-7.242ZM0,11.515A11.507,11.507,0,1,0,11.5.009,11.52,11.52,0,0,0,0,11.515Zm34.868,6.732a.817.817,0,0,0,.817.817H51.5a.817.817,0,1,0,0-1.635H35.683A.817.817,0,0,0,34.866,18.247Z" transform="translate(3.613 3.598)" fill-rule="evenodd"/>
      </g>
    </g>
  </g>
</svg>
