<svg xmlns="http://www.w3.org/2000/svg" width="400" height="255.448" viewBox="0 0 400 255.448">
  <g id="Grupo_875942" data-name="Grupo 875942" transform="translate(-195.45 -9029.848)">
    <ellipse id="Floor" cx="200" cy="15.918" rx="200" ry="15.918" transform="translate(195.45 9253.461)" fill="#f5f5f5"/>
    <g id="Grupo_875941" data-name="Grupo 875941" transform="translate(206.367 9029.848)">
      <path id="Rectángulo_296378" data-name="Rectángulo 296378" d="M11.168,0H32.677A11.169,11.169,0,0,1,43.846,11.169v0A11.169,11.169,0,0,1,32.677,22.337H11.168A11.168,11.168,0,0,1,0,11.169v0A11.168,11.168,0,0,1,11.168,0Z" transform="translate(157.651 0)" fill="#5184ce"/>
      <path id="Trazado_587151" data-name="Trazado 587151" d="M1157.32,1780.812l-33.881,15.617v3.459H1244.1v-3.459l-34.187-15.617Z" transform="translate(-1004.13 -1560.624)" fill="#466eb6"/>
      <rect id="Rectángulo_296379" data-name="Rectángulo 296379" width="52.616" height="66.965" transform="translate(153.19 153.251)" fill="#466eb6"/>
      <path id="Trazado_587152" data-name="Trazado 587152" d="M894.025,786.689V635.683a12.991,12.991,0,0,0-12.992-12.991H588.247a12.991,12.991,0,0,0-12.991,12.991V786.689Z" transform="translate(-555.313 -612.43)" fill="#466eb6"/>
      <rect id="Rectángulo_296380" data-name="Rectángulo 296380" width="120.663" height="3.459" transform="translate(119.309 235.805)" fill="#184655" opacity="0.3" style="mix-blend-mode: multiply;isolation: isolate"/>
      <rect id="Rectángulo_296381" data-name="Rectángulo 296381" width="52.594" height="7.858" transform="translate(153.19 212.33)" fill="#184655" opacity="0.3" style="mix-blend-mode: multiply;isolation: isolate"/>
      <path id="Trazado_587153" data-name="Trazado 587153" d="M575.256,1527.43v24.2c0,5.033,3.327,9.114,7.431,9.114H886.593c4.1,0,7.431-4.08,7.431-9.114v-24.2Z" transform="translate(-555.313 -1353.171)" fill="#5184ce"/>
      <path id="Trazado_587154" data-name="Trazado 587154" d="M1446.914,585.438a2.959,2.959,0,1,1-2.959-2.959A2.959,2.959,0,0,1,1446.914,585.438Z" transform="translate(-1264.125 -579.506)" fill="#184655"/>
      <path id="Trazado_587155" data-name="Trazado 587155" d="M920.266,809.75V665.706a6.963,6.963,0,0,0-7.083-6.837H623.5a6.963,6.963,0,0,0-7.083,6.837V809.75Z" transform="translate(-589.017 -642.049)" fill="#e1fbff"/>
      <rect id="Rectángulo_296382" data-name="Rectángulo 296382" width="182.625" height="127.432" transform="translate(40.748 28.448)" fill="#e9ffff"/>
      <rect id="Rectángulo_296383" data-name="Rectángulo 296383" width="182.625" height="14.92" transform="translate(40.748 28.448)" fill="#5184ce"/>
      <rect id="Rectángulo_296384" data-name="Rectángulo 296384" width="12.466" height="96.488" transform="translate(288.365 60.33)" fill="#9bc1f9" opacity="0.6"/>
      <rect id="Rectángulo_296385" data-name="Rectángulo 296385" width="12.466" height="67.057" transform="translate(270.956 89.761)" fill="#9bc1f9" opacity="0.6"/>
      <rect id="Rectángulo_296386" data-name="Rectángulo 296386" width="12.466" height="75.583" transform="translate(306.025 81.235)" fill="#9bc1f9" opacity="0.6"/>
      <rect id="Rectángulo_296387" data-name="Rectángulo 296387" width="12.466" height="78.556" transform="translate(253.547 78.262)" fill="#9bc1f9" opacity="0.6"/>
      <rect id="Rectángulo_296388" data-name="Rectángulo 296388" width="12.466" height="55.264" transform="translate(236.138 101.554)" fill="#9bc1f9" opacity="0.6"/>
      <g id="Grupo_875934" data-name="Grupo 875934" transform="translate(236.138 82.568)">
        <rect id="Rectángulo_296389" data-name="Rectángulo 296389" width="12.466" height="74.251" transform="translate(52.227 0)" fill="#9bc1f9" opacity="0.3" style="mix-blend-mode: multiply;isolation: isolate"/>
        <rect id="Rectángulo_296390" data-name="Rectángulo 296390" width="12.466" height="51.602" transform="translate(34.818 22.648)" fill="#9bc1f9" opacity="0.3" style="mix-blend-mode: multiply;isolation: isolate"/>
        <rect id="Rectángulo_296391" data-name="Rectángulo 296391" width="12.466" height="58.164" transform="translate(69.887 16.087)" fill="#9bc1f9" opacity="0.3" style="mix-blend-mode: multiply;isolation: isolate"/>
        <rect id="Rectángulo_296392" data-name="Rectángulo 296392" width="12.466" height="60.451" transform="translate(17.409 13.8)" fill="#9bc1f9" opacity="0.3" style="mix-blend-mode: multiply;isolation: isolate"/>
        <rect id="Rectángulo_296393" data-name="Rectángulo 296393" width="12.466" height="42.528" transform="translate(0 31.723)" fill="#9bc1f9" opacity="0.3" style="mix-blend-mode: multiply;isolation: isolate"/>
      </g>
      <rect id="Rectángulo_296394" data-name="Rectángulo 296394" width="168.563" height="21.635" transform="translate(47.049 49.512)" fill="#9bc1f9" opacity="0.6"/>
      <rect id="Rectángulo_296395" data-name="Rectángulo 296395" width="108.494" height="5.545" transform="translate(107.119 77.292)" fill="#9bc1f9" opacity="0.6"/>
      <rect id="Rectángulo_296396" data-name="Rectángulo 296396" width="53.373" height="63.994" transform="translate(47.049 77.292)" fill="#5184ce"/>
      <rect id="Rectángulo_296397" data-name="Rectángulo 296397" width="108.494" height="5.545" transform="translate(107.119 88.981)" fill="#9bc1f9" opacity="0.6"/>
      <rect id="Rectángulo_296398" data-name="Rectángulo 296398" width="108.494" height="5.546" transform="translate(107.119 124.05)" fill="#9bc1f9" opacity="0.6"/>
      <rect id="Rectángulo_296399" data-name="Rectángulo 296399" width="108.494" height="5.545" transform="translate(107.119 135.74)" fill="#9bc1f9" opacity="0.6"/>
      <g id="Grupo_875935" data-name="Grupo 875935" transform="translate(0 97.279)">
        <path id="Trazado_587156" data-name="Trazado 587156" d="M466.852,1102.746h0a1.062,1.062,0,0,0-.881.47A1.062,1.062,0,0,1,466.852,1102.746Z" transform="translate(-465.838 -1102.746)" fill="#9bc1f9"/>
        <path id="Trazado_587157" data-name="Trazado 587157" d="M465.236,1106.015a1.048,1.048,0,0,1,.08-.191A1.048,1.048,0,0,0,465.236,1106.015Z" transform="translate(-465.236 -1105.266)" fill="#9bc1f9"/>
      </g>
      <rect id="Rectángulo_296400" data-name="Rectángulo 296400" width="26.295" height="26.295" transform="translate(238.002 28.435)" fill="#9bc1f9" opacity="0.6"/>
      <rect id="Rectángulo_296401" data-name="Rectángulo 296401" width="51.297" height="3.573" transform="translate(268.949 28.435)" fill="#9bc1f9" opacity="0.6"/>
      <rect id="Rectángulo_296402" data-name="Rectángulo 296402" width="34.619" height="3.573" transform="translate(268.949 36.009)" fill="#9bc1f9" opacity="0.6"/>
      <rect id="Rectángulo_296403" data-name="Rectángulo 296403" width="46.078" height="3.573" transform="translate(268.949 43.583)" fill="#9bc1f9" opacity="0.6"/>
      <g id="Grupo_875940" data-name="Grupo 875940" transform="translate(231.837 35.888)">
        <path id="Trazado_587158" data-name="Trazado 587158" d="M2176.834,1203.92c-1.074-.874-9.387,2.774-9.282,4.043s-5.8,13.579-5.8,13.579l-10.206-8.138,0,0c-.09-.294-1.057-3.459-1.1-4.025-.049-.594-1.773-1.633-2.574-1.48s.685,1.158.782,1.343c.266.5-.761.69-.761.69s-2.915-.934-2.977-1.886-2.055,1.664-1.821,2.028,4.991,4.193,5.677,5.025c0,0,13.2,15.091,14.141,15.485.825.346,3.765-4.854,6.543-8.307S2180.193,1206.651,2176.834,1203.92Z" transform="translate(-2070.773 -1124.08)" fill="#f7a491"/>
        <path id="Trazado_587159" data-name="Trazado 587159" d="M2471.433,1794.306s1.814,1.77,1.855,2.419.161,7.609-.58,8.258-2.915,1.11-2.216,1.841c.528.552,4.595.434,7.289.286.787-.043,1.773-6.32,2.085-7.242.453-1.34,1.553-4.358,1.142-5.292a7.856,7.856,0,0,0-2.511-2.263,12.35,12.35,0,0,1-2.781-2.962Z" transform="translate(-2338.736 -1603.504)" fill="#f48c7f"/>
        <path id="Trazado_587160" data-name="Trazado 587160" d="M2341.8,1838.978s1.624,4.586,1.625,4.6c.121.727.6,2.522.6,3.182,0,2.481-11.191-2.106-8.682-3.206a2.651,2.651,0,0,0,1.014-1.739,5.812,5.812,0,0,0-.943-2.933Z" transform="translate(-2227.892 -1644.054)" fill="#f7a491"/>
        <g id="Grupo_875936" data-name="Grupo 875936" transform="translate(93.338 109.53)">
          <path id="Trazado_587161" data-name="Trazado 587161" d="M2262.178,1368.321s-.816,8.221-.816,8.343c0,13.3-2.636,39.275-2.135,41.775,1.223,6.1,14.386,37.208,14.386,37.208l7.115-.851-7.636-37.593,1.777-14.646,4.828-29.634Z" transform="translate(-2259.164 -1368.321)" fill="#063125"/>
          <path id="Trazado_587162" data-name="Trazado 587162" d="M2308.956,1380.891l1.35,7.792,3.652,32.068,13.909,31.341s-1.956,4.561-4.843,5.2l-22.138-32.178-13.751-41.175.483-9.147Z" transform="translate(-2282.065 -1373.62)" fill="#0c5e46"/>
        </g>
        <path id="Trazado_587163" data-name="Trazado 587163" d="M2260.138,1163.136l9.866,1.007s.452-8.088.452-11.945c0-4.68-.4-10.709-.964-10.579a8.6,8.6,0,0,0-4.994,2.987C2260.1,1150.654,2260.138,1163.136,2260.138,1163.136Z" transform="translate(-2166.624 -1073.18)" fill="#03386e"/>
        <path id="Trazado_587164" data-name="Trazado 587164" d="M2268.814,1149.966c-.207,1.427-4,40.222-4,40.222,17.962,8.675,27.874,1.545,27.874,1.545s-.588-27.243.116-30.951c.466-2.453,1.047-18.755-.543-19.212a39.812,39.812,0,0,0-6.929-1.473c-2.177-.226-10.631-.357-12.144.151A19.262,19.262,0,0,0,2268.814,1149.966Z" transform="translate(-2170.453 -1071.774)" fill="#03386e"/>
        <path id="Trazado_587165" data-name="Trazado 587165" d="M2475.116,1805.449s-4.181,11.771-5.818,12.34c-.434.151-2.52.534-2.913,1.456a3.985,3.985,0,0,0,0,1.206h8.714s1.1-5.187,1.538-7.465c0,0,2.307-5.568,2.051-6.074S2475.116,1805.449,2475.116,1805.449Z" transform="translate(-2335.443 -1616.683)" fill="#12263f"/>
        <path id="Trazado_587166" data-name="Trazado 587166" d="M2305.491,1868.573l-1.281-4.048s-2.691,1.138-4.037.949a40.776,40.776,0,0,1-3.973-.949c-5.371,1.768-9.771,2.626-8.97,4.048h18.261Z" transform="translate(-2188.727 -1665.05)" fill="#12263f"/>
        <g id="Grupo_875937" data-name="Grupo 875937" transform="translate(90.928 96.388)">
          <path id="Trazado_587167" data-name="Trazado 587167" d="M2247.071,1305.936a2.391,2.391,0,0,1-.271-.2c.32-3.8.262-7.484-.931-8.729.029-.06.29-.614.562-1.189,1.382,1.069,2.039,3.91,1.781,8.521a7.829,7.829,0,0,1-.183.955C2247.629,1305.733,2247.266,1306.018,2247.071,1305.936Z" transform="translate(-2245.869 -1295.817)" fill="#f7a491"/>
        </g>
        <path id="Trazado_587168" data-name="Trazado 587168" d="M2334.024,1097.588l1.157,7.631s-4.228,9.086-6.752,8.3c-2.118-.661-.815-8.7-.815-8.7s1.155-4.318.808-6.478S2334.024,1097.588,2334.024,1097.588Z" transform="translate(-2221.544 -1036.761)" fill="#f7a491"/>
        <path id="Trazado_587169" data-name="Trazado 587169" d="M2333.2,1098.338c-.346-2.161,5.6-.75,5.6-.75l.1.633a3.506,3.506,0,0,1-.645,1.064,7.83,7.83,0,0,1-5.2,2.353A11.784,11.784,0,0,0,2333.2,1098.338Z" transform="translate(-2226.318 -1036.761)" fill="#f47458"/>
        <g id="Grupo_875938" data-name="Grupo 875938" transform="translate(103.299 43.711)">
          <path id="Trazado_587170" data-name="Trazado 587170" d="M2324.277,1029.3c.168-.061,1.348,8.692-.891,11.1s-6.6,3.2-8.162,1.3c-1.73-2.1-1.643-11.5,1.836-13.982S2324.277,1029.3,2324.277,1029.3Z" transform="translate(-2314.121 -1022.983)" fill="#f7a491"/>
          <path id="Trazado_587171" data-name="Trazado 587171" d="M2324,1005.264a9.666,9.666,0,0,1,5.072,2.892c1.221.144,2.88.819,4.594,3.657a7.1,7.1,0,0,1-1.9,9.252,5.529,5.529,0,0,0-2.419,4.087l-.388-1.133a6.34,6.34,0,0,1-.307-2.669,5.209,5.209,0,0,1,.4-1.6c.59-1.267-1.268-2.108-1.788-3.162-.4-.812-.421-2.668-1.052-4.009l-.755-1.024a4.8,4.8,0,0,0-3.444-.973C2320.3,1010.96,2320.546,1004.56,2324,1005.264Z" transform="translate(-2319.733 -1005.209)" fill="#0e2e35"/>
          <path id="Trazado_587172" data-name="Trazado 587172" d="M2356.252,1067.9c-.018,1.068.468,1.942,1.084,1.953s1.131-.846,1.148-1.915-.468-1.942-1.084-1.953S2356.27,1066.832,2356.252,1067.9Z" transform="translate(-2348.615 -1054.969)" fill="#f7a491"/>
        </g>
        <path id="Trazado_587173" data-name="Trazado 587173" d="M2320.967,1089.371l-3.373-.174a1.477,1.477,0,0,0,1.493,1.4C2320.892,1090.748,2320.967,1089.371,2320.967,1089.371Z" transform="translate(-2213.665 -1030.262)" fill="#fff"/>
        <g id="Grupo_875939" data-name="Grupo 875939" transform="translate(0 0)">
          <path id="Trazado_587174" data-name="Trazado 587174" d="M2172.854,1188.938q1.189-1.217,2.219-2.5l14.724,14.379c.9.884.593,2.67-.7,3.99s-3.068,1.674-3.973.791l-14.724-14.379Q2171.663,1190.154,2172.854,1188.938Z" transform="translate(-2093.156 -1109.874)" fill="#0e2e35"/>
          <ellipse id="Elipse_7406" data-name="Elipse 7406" cx="37.137" cy="37.367" rx="37.137" ry="37.367" transform="matrix(0.699, -0.715, 0.715, 0.699, 0, 53.128)" fill="#c5ddf9" opacity="0.6"/>
          <path id="Trazado_587175" data-name="Trazado 587175" d="M1893.847,956.935a37.107,37.107,0,0,1-23.645,11.572l-40.281-40.944c.008-.077.013-.154.022-.231a37.356,37.356,0,0,1,11.716-23.444Z" transform="translate(-1814.39 -878.543)" fill="#fff" style="mix-blend-mode: soft-light;isolation: isolate"/>
          <path id="Trazado_587176" data-name="Trazado 587176" d="M1952.052,848.938,1989.3,886.8c-.018,1.146-.085,2.3-.21,3.462a37.439,37.439,0,0,1-4.678,14.548l-50.308-51.136A36.792,36.792,0,0,1,1952.052,848.938Z" transform="translate(-1899.691 -833.553)" fill="#fff" style="mix-blend-mode: soft-light;isolation: isolate"/>
          <path id="Trazado_587177" data-name="Trazado 587177" d="M1815.3,894.5a41.985,41.985,0,1,0-.889-59.552A42.115,42.115,0,0,0,1815.3,894.5Zm3.387-3.468a37.137,37.137,0,1,1,52.681-.46A37.252,37.252,0,0,1,1818.684,891.031Z" transform="translate(-1791.95 -811.786)" fill="#184655"/>
          <path id="Trazado_587178" data-name="Trazado 587178" d="M1828.621,904.219a39.437,39.437,0,1,0-.835-55.938A39.559,39.559,0,0,0,1828.621,904.219Zm1.607-1.645a37.137,37.137,0,1,1,52.681-.46A37.253,37.253,0,0,1,1830.228,902.574Z" transform="translate(-1803.494 -823.329)" fill="#50bfa5" opacity="0.5" style="mix-blend-mode: multiply;isolation: isolate"/>
          <path id="Trazado_587179" data-name="Trazado 587179" d="M2291.322,1305.836l2.288-2.373a5.965,5.965,0,0,0-.154-8.435l-42.509-41.213a5.965,5.965,0,0,0-8.435.154l-2.288,2.374a5.965,5.965,0,0,0,.155,8.435l42.508,41.213A5.965,5.965,0,0,0,2291.322,1305.836Z" transform="translate(-2148.952 -1163.672)" fill="#184655"/>
        </g>
        <path id="Trazado_587180" data-name="Trazado 587180" d="M2434.856,1231.565a1.043,1.043,0,0,0,0-.25c-.264-2.687-2.5-25.247-2.871-26.206-.339-.866-10.344-15.175-10.344-15.175l-4.917,6.7,9.621,12.834c.216.815,3.687,16.045,3.687,16.045s.712,2.776,1.03,4.439c-.145.4-.288.779-.414,1.09a10.054,10.054,0,0,1-1.037,1.666,11.438,11.438,0,0,0-1.229,2.173c-.1.392-.285,1.206-.389,1.7s-.247,1.064-.271,1.33a2.568,2.568,0,0,1-.311.714.429.429,0,0,0,.507.619c.35-.116.621-.568.789-.85.474-.8.727-2.249.844-2.172s.533,2.542.6,2.821a30.391,30.391,0,0,0,.844,3.665c.281.523.653.436.751.108.085-.282-.31-4.287-.31-4.287s-.049-.511.175-.351.589,3.8.745,4.328.51.814.811.386c.366-.52-.263-4.377-.263-4.377s-.07-.485.137-.44.467,3.144.628,3.412a.408.408,0,0,0,.762-.083c.229-.526-.364-3.964-.364-3.964s.029-.274.159-.183.539,2.717.806,2.96a.284.284,0,0,0,.411.006c.49-.335-.261-2.832-.254-4.075s-.568-2.638-.4-4.116C2434.807,1231.936,2434.837,1231.708,2434.856,1231.565Z" transform="translate(-2294.83 -1112.739)" fill="#f8a492"/>
        <path id="Trazado_587181" data-name="Trazado 587181" d="M2409.748,1165.678l-8.546,5.738s-4.817-7.168-7.4-9.719c-3.239-3.2,1.18-12.989,3.267-12.435C2401.734,1150.5,2409.748,1165.678,2409.748,1165.678Z" transform="translate(-2275.117 -1079.42)" fill="#03386e"/>
      </g>
    </g>
  </g>
</svg>
