<svg xmlns="http://www.w3.org/2000/svg" width="295" height="265.912" viewBox="0 0 295 265.912">
  <g id="Grupo_875973" data-name="Grupo 875973" transform="translate(-358.963 -13252.175)">
    <ellipse id="Floor" cx="147.5" cy="15.536" rx="147.5" ry="15.536" transform="translate(358.963 13487.016)" fill="#f5f5f5"/>
    <g id="Grupo_875972" data-name="Grupo 875972" transform="translate(380.679 13252.176)">
      <g id="Grupo_875967" data-name="Grupo 875967" transform="translate(71.222 42.522)">
        <g id="Grupo_875943" data-name="Grupo 875943" transform="translate(0 66.373)">
          <path id="Trazado_587182" data-name="Trazado 587182" d="M3746.749,1343.209l32.316-134.125-2.258-5.28-32.014,139.39a.57.57,0,0,0,.556.7h.534A.891.891,0,0,0,3746.749,1343.209Z" transform="translate(-3744.779 -1203.804)" fill="#77a4e5"/>
        </g>
        <g id="Grupo_875966" data-name="Grupo 875966" transform="translate(10.82 0)">
          <g id="Grupo_875944" data-name="Grupo 875944" transform="translate(124.457 147.52)">
            <path id="Trazado_587183" data-name="Trazado 587183" d="M4250.493,1558.58h0a1.076,1.076,0,0,0,1.062-1.251l-9.518-57.69h-4.079l11.35,57.967A1.208,1.208,0,0,0,4250.493,1558.58Z" transform="translate(-4237.958 -1499.639)" fill="#77a4e5"/>
          </g>
          <g id="Grupo_875945" data-name="Grupo 875945" transform="translate(33.154 147.52)">
            <path id="Trazado_587184" data-name="Trazado 587184" d="M3917.631,1558.58h0a1.076,1.076,0,0,0,1.061-1.251l-9.517-57.69H3905.1l11.35,57.967A1.206,1.206,0,0,0,3917.631,1558.58Z" transform="translate(-3905.096 -1499.639)" fill="#77a4e5"/>
          </g>
          <path id="Trazado_587185" data-name="Trazado 587185" d="M3807.777,1109.469h113.67L3897.9,961.828h-113.67Z" transform="translate(-3784.226 -961.828)" fill="#f5fbff"/>
          <rect id="Rectángulo_296404" data-name="Rectángulo 296404" width="130.547" height="4.343" transform="translate(145.593 150.858) rotate(-180)" fill="#77a4e5"/>
          <g id="Grupo_875946" data-name="Grupo 875946" transform="translate(68.431 8.875)">
            <path id="Trazado_587186" data-name="Trazado 587186" d="M4034.356,1016.2a23.728,23.728,0,0,0,.509,3.436c2.369,10.551,11.765,18.636,22.382,18.654,11.747.02,20.542-9.837,19.645-22.017s-11.146-22.07-22.893-22.09a19.727,19.727,0,0,0-6.936,1.223,19.009,19.009,0,0,0-7.792,5.4,20.131,20.131,0,0,0-3.117,4.876,20.935,20.935,0,0,0-1.671,5.9,22.359,22.359,0,0,0-.188,3.228Q4034.3,1015.5,4034.356,1016.2Z" transform="translate(-4034.132 -994.182)" fill="#bdd1f9"/>
            <path id="Trazado_587187" data-name="Trazado 587187" d="M4041.08,1012.314l19.468,10.556s-8.032-14.145-11.33-19.546a19.206,19.206,0,0,0-5.021,4.114,20.053,20.053,0,0,0-3.116,4.876Z" transform="translate(-4039.057 -1000.816)" fill="#fff"/>
            <path id="Trazado_587188" data-name="Trazado 587188" d="M4033.706,1004.641l17.782,9.642s-7.337-12.921-10.349-17.854a17.512,17.512,0,0,0-4.587,3.758,18.065,18.065,0,0,0-1.945,2.712A17.788,17.788,0,0,0,4033.706,1004.641Z" transform="translate(-4033.706 -995.813)" fill="#3ae3fe"/>
          </g>
          <g id="Grupo_875952" data-name="Grupo 875952" transform="translate(23.129 82.429)">
            <g id="Grupo_875947" data-name="Grupo 875947">
              <path id="Trazado_587189" data-name="Trazado 587189" d="M3868.549,1262.345l93.56-.006,9.471,53.982-93.56.007Zm92.995.537-92.239.007,9.281,52.895,92.239-.006Z" transform="translate(-3868.549 -1262.339)" fill="#bdd1f9"/>
            </g>
            <g id="Grupo_875949" data-name="Grupo 875949" transform="translate(15.051 29.879)">
              <path id="Trazado_587190" data-name="Trazado 587190" d="M3923.421,1394.291l82.977-.006s-14.719-7.893-18.758-7.479-9.84,3.609-13.572,3.734-7.772-11.079-11.926-10.551-5.717,10.438-7.868,9.47-8.609-1.387-12.328,0-9.139-4.41-12.41-4.229S3923.421,1394.291,3923.421,1394.291Z" transform="translate(-3923.421 -1377.583)" fill="#0c5e46"/>
              <g id="Grupo_875948" data-name="Grupo 875948" transform="translate(62.877)">
                <path id="Trazado_587191" data-name="Trazado 587191" d="M4152.8,1372.11h15.848l-.147-.841h-15.849Z" transform="translate(-4152.652 -1371.268)" fill="#0c5e46"/>
                <path id="Trazado_587192" data-name="Trazado 587192" d="M4153.948,1378.655H4169.8l-.148-.841H4153.8Z" transform="translate(-4153.485 -1376.018)" fill="#0c5e46"/>
              </g>
            </g>
            <g id="Grupo_875951" data-name="Grupo 875951" transform="translate(10.303 4.363)">
              <path id="Trazado_587193" data-name="Trazado 587193" d="M3989.089,1295.635l-82.977.006s11.948-7.9,16.132-7.482,11.107,3.608,14.882,3.731,3.884-11.08,8.223-10.552,9.379,10.436,11.191,9.468,8.122-1.388,12.329,0,7.591-4.412,10.925-4.23S3989.089,1295.635,3989.089,1295.635Z" transform="translate(-3906.112 -1280.477)" fill="#bdd1f9"/>
              <g id="Grupo_875950" data-name="Grupo 875950" transform="translate(63.148)">
                <path id="Trazado_587194" data-name="Trazado 587194" d="M4136.478,1279.087h15.848l-.147-.841H4136.33Z" transform="translate(-4136.33 -1278.245)" fill="#bdd1f9"/>
                <path id="Trazado_587195" data-name="Trazado 587195" d="M4137.626,1285.632h15.848l-.147-.841h-15.849Z" transform="translate(-4137.163 -1282.995)" fill="#bdd1f9"/>
              </g>
            </g>
          </g>
          <g id="Grupo_875953" data-name="Grupo 875953" transform="translate(84.625 57.846)">
            <path id="Trazado_587196" data-name="Trazado 587196" d="M4180.643,1189.771h3.64l-3.162-17.054h-3.64Z" transform="translate(-4154.237 -1172.717)" fill="#bdd1f9"/>
            <path id="Trazado_587197" data-name="Trazado 587197" d="M4164.453,1199.939h3.64l-2.45-13.211H4162Z" transform="translate(-4143.005 -1182.885)" fill="#bdd1f9"/>
            <path id="Trazado_587198" data-name="Trazado 587198" d="M4146.1,1198.441h3.639l-2.554-13.777h-3.64Z" transform="translate(-4129.61 -1181.387)" fill="#bdd1f9"/>
            <path id="Trazado_587199" data-name="Trazado 587199" d="M4129.645,1207.165h3.639l-1.943-10.48h-3.64Z" transform="translate(-4118.112 -1190.111)" fill="#bdd1f9"/>
            <path id="Trazado_587200" data-name="Trazado 587200" d="M4111.194,1205.147h3.64l-2.085-11.243h-3.639Z" transform="translate(-4104.62 -1188.093)" fill="#bdd1f9"/>
            <path id="Trazado_587201" data-name="Trazado 587201" d="M4094.359,1211.824H4098l-1.617-8.719h-3.64Z" transform="translate(-4092.742 -1194.77)" fill="#bdd1f9"/>
          </g>
          <g id="Grupo_875954" data-name="Grupo 875954" transform="translate(35.939 57.846)">
            <path id="Trazado_587202" data-name="Trazado 587202" d="M4003.15,1189.771h3.639l-3.162-17.054h-3.639Z" transform="translate(-3976.744 -1172.717)" fill="#0c5e46"/>
            <path id="Trazado_587203" data-name="Trazado 587203" d="M3986.961,1199.939h3.639l-2.449-13.211h-3.64Z" transform="translate(-3965.513 -1182.885)" fill="#0c5e46"/>
            <path id="Trazado_587204" data-name="Trazado 587204" d="M3968.609,1198.441h3.639l-2.555-13.777h-3.639Z" transform="translate(-3952.119 -1181.387)" fill="#0c5e46"/>
            <path id="Trazado_587205" data-name="Trazado 587205" d="M3952.152,1207.165h3.639l-1.943-10.48h-3.639Z" transform="translate(-3940.62 -1190.111)" fill="#0c5e46"/>
            <path id="Trazado_587206" data-name="Trazado 587206" d="M3933.7,1205.147h3.64l-2.085-11.243h-3.64Z" transform="translate(-3927.128 -1188.093)" fill="#0c5e46"/>
            <path id="Trazado_587207" data-name="Trazado 587207" d="M3916.867,1211.824h3.639l-1.617-8.719h-3.639Z" transform="translate(-3915.25 -1194.77)" fill="#0c5e46"/>
          </g>
          <g id="Grupo_875963" data-name="Grupo 875963" transform="translate(12.155 13.819)">
            <g id="Grupo_875955" data-name="Grupo 875955" transform="translate(0.719 3.787)">
              <path id="Trazado_587208" data-name="Trazado 587208" d="M3946.829,1027.637h11.847l-.3-1.623h-11.847Z" transform="translate(-3914.881 -1026.014)" fill="#bdd1f9"/>
              <path id="Trazado_587209" data-name="Trazado 587209" d="M3893.844,1027.637h13.082l-.3-1.623H3893.54Z" transform="translate(-3876.43 -1026.014)" fill="#bdd1f9"/>
              <path id="Trazado_587210" data-name="Trazado 587210" d="M3859.854,1027.637h8.339l-.3-1.623h-8.34Z" transform="translate(-3851.762 -1026.014)" fill="#bdd1f9"/>
              <path id="Trazado_587211" data-name="Trazado 587211" d="M3831.467,1027.637h6.436l-.3-1.623h-6.436Z" transform="translate(-3831.161 -1026.014)" fill="#bdd1f9"/>
            </g>
            <g id="Grupo_875956" data-name="Grupo 875956" transform="translate(2.02 10.711)">
              <path id="Trazado_587212" data-name="Trazado 587212" d="M3951.569,1052.882h11.847l-.3-1.623h-11.847Z" transform="translate(-3919.621 -1051.259)" fill="#bdd1f9"/>
              <path id="Trazado_587213" data-name="Trazado 587213" d="M3898.585,1052.882h13.081l-.3-1.623H3898.28Z" transform="translate(-3881.17 -1051.259)" fill="#bdd1f9"/>
              <path id="Trazado_587214" data-name="Trazado 587214" d="M3864.594,1052.882h8.339l-.3-1.623h-8.34Z" transform="translate(-3856.502 -1051.259)" fill="#bdd1f9"/>
              <path id="Trazado_587215" data-name="Trazado 587215" d="M3836.207,1052.882h6.436l-.3-1.623H3835.9Z" transform="translate(-3835.902 -1051.259)" fill="#bdd1f9"/>
            </g>
            <g id="Grupo_875957" data-name="Grupo 875957">
              <path id="Trazado_587216" data-name="Trazado 587216" d="M3921.161,1013.832h18.176l-.3-1.623h-18.177Z" transform="translate(-3895.533 -1012.209)" fill="#bdd1f9"/>
              <path id="Trazado_587217" data-name="Trazado 587217" d="M3876.651,1013.832h10.478l-.3-1.623h-10.478Z" transform="translate(-3863.233 -1012.209)" fill="#bdd1f9"/>
              <path id="Trazado_587218" data-name="Trazado 587218" d="M3828.843,1013.832h11.636l-.305-1.623h-11.635Z" transform="translate(-3828.539 -1012.209)" fill="#bdd1f9"/>
            </g>
            <g id="Grupo_875958" data-name="Grupo 875958" transform="translate(1.383 7.363)">
              <path id="Trazado_587219" data-name="Trazado 587219" d="M3926.2,1040.674h18.177l-.3-1.623H3925.9Z" transform="translate(-3900.574 -1039.051)" fill="#bdd1f9"/>
              <path id="Trazado_587220" data-name="Trazado 587220" d="M3881.693,1040.674h10.477l-.3-1.623h-10.478Z" transform="translate(-3868.274 -1039.051)" fill="#bdd1f9"/>
              <path id="Trazado_587221" data-name="Trazado 587221" d="M3833.884,1040.674h11.635l-.3-1.623H3833.58Z" transform="translate(-3833.58 -1039.051)" fill="#bdd1f9"/>
            </g>
            <g id="Grupo_875959" data-name="Grupo 875959" transform="translate(3.32 17.636)">
              <path id="Trazado_587222" data-name="Trazado 587222" d="M3956.309,1078.126h11.847l-.3-1.623H3956Z" transform="translate(-3924.362 -1076.503)" fill="#bdd1f9"/>
              <path id="Trazado_587223" data-name="Trazado 587223" d="M3903.326,1078.126h13.081l-.3-1.623h-13.081Z" transform="translate(-3885.911 -1076.503)" fill="#bdd1f9"/>
              <path id="Trazado_587224" data-name="Trazado 587224" d="M3869.334,1078.126h8.339l-.3-1.623h-8.339Z" transform="translate(-3861.243 -1076.503)" fill="#bdd1f9"/>
              <path id="Trazado_587225" data-name="Trazado 587225" d="M3840.948,1078.126h6.436l-.3-1.623h-6.436Z" transform="translate(-3840.643 -1076.503)" fill="#bdd1f9"/>
            </g>
            <g id="Grupo_875960" data-name="Grupo 875960" transform="translate(2.683 14.287)">
              <path id="Trazado_587226" data-name="Trazado 587226" d="M3930.942,1065.919h18.177l-.3-1.623h-18.177Z" transform="translate(-3905.315 -1064.296)" fill="#bdd1f9"/>
              <path id="Trazado_587227" data-name="Trazado 587227" d="M3886.433,1065.919h10.478l-.305-1.623h-10.477Z" transform="translate(-3873.014 -1064.296)" fill="#bdd1f9"/>
              <path id="Trazado_587228" data-name="Trazado 587228" d="M3838.625,1065.919h11.636l-.305-1.623H3838.32Z" transform="translate(-3838.32 -1064.296)" fill="#bdd1f9"/>
            </g>
            <g id="Grupo_875961" data-name="Grupo 875961" transform="translate(4.539 24.127)">
              <path id="Trazado_587229" data-name="Trazado 587229" d="M3960.754,1101.793H3972.6l-.3-1.623h-11.848Z" transform="translate(-3928.805 -1100.17)" fill="#bdd1f9"/>
              <path id="Trazado_587230" data-name="Trazado 587230" d="M3907.771,1101.793h13.081l-.3-1.623h-13.081Z" transform="translate(-3890.355 -1100.17)" fill="#bdd1f9"/>
              <path id="Trazado_587231" data-name="Trazado 587231" d="M3873.778,1101.793h8.34l-.3-1.623h-8.34Z" transform="translate(-3865.687 -1100.17)" fill="#bdd1f9"/>
              <path id="Trazado_587232" data-name="Trazado 587232" d="M3845.391,1101.793h6.436l-.3-1.623h-6.436Z" transform="translate(-3845.086 -1100.17)" fill="#bdd1f9"/>
            </g>
            <g id="Grupo_875962" data-name="Grupo 875962" transform="translate(3.902 20.779)">
              <path id="Trazado_587233" data-name="Trazado 587233" d="M3935.387,1089.585h18.177l-.305-1.623h-18.177Z" transform="translate(-3909.759 -1087.962)" fill="#bdd1f9"/>
              <path id="Trazado_587234" data-name="Trazado 587234" d="M3890.876,1089.585h10.478l-.3-1.623h-10.478Z" transform="translate(-3877.458 -1087.962)" fill="#bdd1f9"/>
              <path id="Trazado_587235" data-name="Trazado 587235" d="M3843.069,1089.585h11.636l-.3-1.623h-11.636Z" transform="translate(-3842.764 -1087.962)" fill="#bdd1f9"/>
            </g>
          </g>
          <g id="Grupo_875964" data-name="Grupo 875964" transform="translate(66.032 57.735)">
            <path id="Trazado_587236" data-name="Trazado 587236" d="M4059.456,1179.862h5.8l-.149-.795h-5.8Z" transform="translate(-4049.885 -1177.214)" fill="#bdd1f9"/>
            <path id="Trazado_587237" data-name="Trazado 587237" d="M4033.523,1179.862h6.4l-.149-.795h-6.4Z" transform="translate(-4031.065 -1177.214)" fill="#bdd1f9"/>
            <path id="Trazado_587238" data-name="Trazado 587238" d="M4061.777,1192.218h5.8l-.149-.795h-5.8Z" transform="translate(-4051.569 -1186.181)" fill="#bdd1f9"/>
            <path id="Trazado_587239" data-name="Trazado 587239" d="M4035.843,1192.218h6.4l-.149-.795h-6.4Z" transform="translate(-4032.749 -1186.181)" fill="#bdd1f9"/>
            <path id="Trazado_587240" data-name="Trazado 587240" d="M4046.893,1173.1h8.9l-.149-.794h-8.9Z" transform="translate(-4040.768 -1172.31)" fill="#bdd1f9"/>
            <path id="Trazado_587241" data-name="Trazado 587241" d="M4025.107,1173.1h5.128l-.149-.794h-5.129Z" transform="translate(-4024.958 -1172.31)" fill="#bdd1f9"/>
            <path id="Trazado_587242" data-name="Trazado 587242" d="M4049.36,1186.243h8.9l-.149-.794h-8.9Z" transform="translate(-4042.558 -1181.845)" fill="#bdd1f9"/>
            <path id="Trazado_587243" data-name="Trazado 587243" d="M4027.575,1186.243h5.128l-.149-.794h-5.128Z" transform="translate(-4026.749 -1181.845)" fill="#bdd1f9"/>
          </g>
          <g id="Grupo_875965" data-name="Grupo 875965" transform="translate(19.58 57.735)">
            <path id="Trazado_587244" data-name="Trazado 587244" d="M3890.107,1179.862h5.8l-.149-.795h-5.8Z" transform="translate(-3880.537 -1177.214)" fill="#bdd1f9"/>
            <path id="Trazado_587245" data-name="Trazado 587245" d="M3864.174,1179.862h6.4l-.149-.795h-6.4Z" transform="translate(-3861.717 -1177.214)" fill="#bdd1f9"/>
            <path id="Trazado_587246" data-name="Trazado 587246" d="M3892.428,1192.218h5.8l-.149-.795h-5.8Z" transform="translate(-3882.221 -1186.181)" fill="#bdd1f9"/>
            <path id="Trazado_587247" data-name="Trazado 587247" d="M3866.495,1192.218h6.4l-.149-.795h-6.4Z" transform="translate(-3863.401 -1186.181)" fill="#bdd1f9"/>
            <path id="Trazado_587248" data-name="Trazado 587248" d="M3877.544,1173.1h8.9l-.149-.794h-8.9Z" transform="translate(-3871.419 -1172.31)" fill="#bdd1f9"/>
            <path id="Trazado_587249" data-name="Trazado 587249" d="M3855.759,1173.1h5.128l-.149-.794h-5.128Z" transform="translate(-3855.61 -1172.31)" fill="#bdd1f9"/>
            <path id="Trazado_587250" data-name="Trazado 587250" d="M3880.013,1186.243h8.9l-.149-.794h-8.9Z" transform="translate(-3873.211 -1181.845)" fill="#bdd1f9"/>
            <path id="Trazado_587251" data-name="Trazado 587251" d="M3858.226,1186.243h5.128l-.149-.794h-5.128Z" transform="translate(-3857.4 -1181.845)" fill="#bdd1f9"/>
          </g>
        </g>
      </g>
      <g id="Grupo_875971" data-name="Grupo 875971" transform="translate(0 0)">
        <g id="Grupo_875968" data-name="Grupo 875968" transform="translate(75.603 227.681)">
          <path id="Trazado_587252" data-name="Trazado 587252" d="M3765.491,1655.975c.2,2.775,4.119,2.8,8.562,2.29s3.262.609,9.483.7,8.365-1.97,8.667-2.859c.269-.789-2.728-1.453-5.933-2.233-.4-.1-.808-.2-1.212-.3-3.614-.919-6.008-3.624-9.1-5.986-2.929-2.237-6.707-10.335-6.707-10.335l-8.5-.384s3.58,7.258,4.924,10.388c.791,1.841.454,4.1.11,5.838A10.871,10.871,0,0,0,3765.491,1655.975Z" transform="translate(-3760.751 -1636.862)" fill="#ffb27d"/>
          <path id="Trazado_587253" data-name="Trazado 587253" d="M3786.548,1701.193c4.444-.516,3.262.609,9.484.7s8.365-1.97,8.667-2.859c.269-.789-2.728-1.453-5.933-2.233l-.038.059a17.432,17.432,0,0,1-9.129,1.635c-4.176-.418-8.437-2.161-11.317-2.474a10.861,10.861,0,0,0-.294,2.887C3778.19,1701.678,3782.1,1701.708,3786.548,1701.193Z" transform="translate(-3773.247 -1679.79)" fill="#233862"/>
        </g>
        <g id="Grupo_875969" data-name="Grupo 875969" transform="translate(21.632 222.572)">
          <path id="Trazado_587254" data-name="Trazado 587254" d="M3564,1643.033c.2,2.775,4.116,2.809,8.56,2.3s3.262.613,9.482.706,8.368-1.961,8.669-2.85c.27-.789-2.726-1.455-5.931-2.239-.4-.1-.807-.2-1.212-.3-3.613-.923-6-3.63-9.094-6-2.927-2.24,0-15.5,0-15.5l-9.348-.91s.448,11.168.443,16.246c0,2-.924,3.93-1.27,5.665A10.887,10.887,0,0,0,3564,1643.033Z" transform="translate(-3563.988 -1618.236)" fill="#ffb27d"/>
          <path id="Trazado_587255" data-name="Trazado 587255" d="M3572.563,1703.3c4.443-.511,3.262.612,9.482.705s8.368-1.961,8.669-2.85c.27-.789-2.726-1.455-5.931-2.239l-.038.059a17.435,17.435,0,0,1-9.131,1.626c-4.175-.423-8.434-2.17-11.315-2.485a10.888,10.888,0,0,0-.3,2.886C3564.2,1703.778,3568.12,1703.812,3572.563,1703.3Z" transform="translate(-3563.988 -1676.205)" fill="#233862"/>
        </g>
        <path id="Trazado_587256" data-name="Trazado 587256" d="M3542.783,824.93c1.609-6.619-.723-9.7-2.828-11.342-1-2.436-2.137-4.192-3.3-4.854a11.923,11.923,0,0,0-6.451-1.234,3.019,3.019,0,0,1,1.36-.646c-1.1-.164-3.569.931-3.569.931-15.36-5.919-17.774,16.7-17.451,21.952s.278,11.442-7.714,15.581c-15.247,7.9,5.068,37.665,5.068,37.665-.388-4.246,19.2-26.653,29.424-33.363,2.488-3.663,3.372-10.134,3.439-10.643-.429,5.131-1.308,8.009-2.092,9.629C3543.326,844.318,3544.016,834.023,3542.783,824.93Z" transform="translate(-3493.855 -806.806)" fill="#03386e"/>
        <path id="Trazado_587257" data-name="Trazado 587257" d="M3603.093,924.075c.051.023-4.935,2.612-8.686,1.586-3.528-.962-5.833-5.536-5.784-5.547,1.495-.3,1.925-2.35,1.894-11.172l.676.133,11.356,2.249s-.259,3.574-.267,6.941C3602.274,921.092,3602.446,923.774,3603.093,924.075Z" transform="translate(-3560.233 -880.927)" fill="#ffb27d"/>
        <path id="Trazado_587258" data-name="Trazado 587258" d="M3609.347,911.677s-.258,3.574-.267,6.941c-6.355-.179-9.713-5.976-11.09-9.189Z" transform="translate(-3567.032 -881.279)" fill="#ed975d"/>
        <path id="Trazado_587259" data-name="Trazado 587259" d="M3634.8,1319.715a2.787,2.787,0,0,1-2.525,3.63l-4.437.208-4.694.144a3.77,3.77,0,0,1-3.038-1.387,131.993,131.993,0,0,1-22.277-42.177q-.3-.936-.624-1.9c-4.62-13.472-14.2-30.383-19.246-45.689-.8-2.438-1.525-4.733-2.172-6.9-.207-.7-.409-1.379-.6-2.052a162.392,162.392,0,0,1-5.79-30.477l36.449.292A802.847,802.847,0,0,0,3634.8,1319.715Z" transform="translate(-3546.283 -1087.151)" fill="#2a4e96"/>
        <path id="Trazado_587260" data-name="Trazado 587260" d="M3564.94,992.851c-.092,17.345,2.544,24.786,2.544,24.786a48.978,48.978,0,0,1-34.154,2.092c-.218-.069-13.27-3.764-13.27-3.764.311-.7,2.889-12.307,3.192-12.951,3.916-8.409,4.983-11.94,5.448-14.526a55.011,55.011,0,0,0,.451-14.531,116.6,116.6,0,0,0-4.5-22.82c5.054-1.15,9.787-3.17,15.047-5.143,1.209,1.507,4.908,3.083,8.117,3.011,3.695-.081,4.893-1.663,4.7-3.39,3.937,2.191,7.079,4.26,7.079,4.26,3.346,5.813,10.133,11.457,10.624,20.373C3570.343,972.441,3564.943,992.365,3564.94,992.851Z" transform="translate(-3510.478 -907.54)" fill="#fff"/>
        <path id="Trazado_587261" data-name="Trazado 587261" d="M3537,1045.124c-1.594,2.255-4.648,15.961-12.248,17.684,3.916-9.768,6.889-14.052,7.354-17.055a74.084,74.084,0,0,0,.451-16.879c2.544-4.459,4.443-7.516,4.443-7.516.2-.721,4.042-12.6,5.274-1.982S3538.775,1042.6,3537,1045.124Z" transform="translate(-3513.879 -957.88)" fill="#5f9aa8"/>
        <path id="Trazado_587262" data-name="Trazado 587262" d="M3606.875,862.125s-15.036.248-15.046-9.118-1.958-15.641,7.641-16.2,11.469,3.017,12.233,6.143S3610.787,861.819,3606.875,862.125Z" transform="translate(-3562.438 -828.539)" fill="#ffb27d"/>
        <path id="Trazado_587263" data-name="Trazado 587263" d="M3593.529,831.091s-4.117,10.988-10.434,12.612-9.058-.068-9.058-.068a17.89,17.89,0,0,0,5.851-10.57S3590.423,825.861,3593.529,831.091Z" transform="translate(-3549.648 -823.048)" fill="#03386e"/>
        <path id="Trazado_587264" data-name="Trazado 587264" d="M3641.38,834.639s3.074,2.453,3.824,4.838,1.086,7.295,2.517,7.128c0,0,3.1-7.468-.384-11.693C3643.642,830.431,3641.38,834.639,3641.38,834.639Z" transform="translate(-3598.52 -825.704)" fill="#03386e"/>
        <path id="Trazado_587265" data-name="Trazado 587265" d="M3710.385,1161.711l7.1,21.651-4.051,1.624-11.742-19.129Z" transform="translate(-3642.29 -1064.361)" fill="#ffb27d"/>
        <path id="Trazado_587266" data-name="Trazado 587266" d="M3663.577,956.5s8.374,3.323,10.8,8.5,6.093,39.93,7.554,43.5,2.561,6.394,2.561,6.394-4.222,3.557-8.468,3.819S3663.577,956.5,3663.577,956.5Z" transform="translate(-3614.628 -915.437)" fill="#0c5e46"/>
        <path id="Trazado_587267" data-name="Trazado 587267" d="M3638.392,945.615s8.7,21.49,8.954,25.839,1.024,71.122,1.024,71.122-.512,3.07,5.373,1.791,7.419-2.558,7.419-2.558-5.629-41.189-4.094-55.516S3645.3,948.6,3645.3,948.6Z" transform="translate(-3596.351 -907.54)" fill="#0c5e46"/>
        <path id="Trazado_587268" data-name="Trazado 587268" d="M3643.16,1393.411l-5.1.156a2.944,2.944,0,0,1-2.363-1.067,131.529,131.529,0,0,1-22.549-42.509q-.3-.936-.624-1.9c-4.621-13.472-14.2-30.383-19.247-45.689-.8-2.438-1.525-4.733-2.172-6.9-.208-.7-.41-1.379-.6-2.052l5.368-4.073s16.115,26.1,21.1,50.652C3621.311,1361.36,3638.667,1387.028,3643.16,1393.411Z" transform="translate(-3561.601 -1157.009)" fill="#1e3d70"/>
        <path id="Trazado_587269" data-name="Trazado 587269" d="M3538.263,1323.993c.087,11.3-.448,36.479-1.824,48.788a2.224,2.224,0,0,1-2.212,1.976h-3.8c-1.6,0-2.8-.012-3.6-.023a1.463,1.463,0,0,1-1.411-1.181c-3.782-19.245-6.489-35.234-8.47-49.048-1.658-11.564-3.131-21.478-4.265-30.012-1.141-8.589-1.934-15.78-2.218-21.856-.043-.957-.077-1.888-.095-2.791s-.023-1.791-.015-2.648l31.493-3.07C3541.448,1285.053,3538.212,1317.052,3538.263,1323.993Z" transform="translate(-3503.429 -1138.686)" fill="#2a4e96"/>
        <path id="Trazado_587270" data-name="Trazado 587270" d="M3530.724,1397.27c-1.44,0-2.554-.009-3.343-.02a1.775,1.775,0,0,1-1.715-1.433c-3.756-19.135-6.449-35.045-8.421-48.8-1.658-11.564-3.131-21.477-4.265-30.012-1.141-8.589-1.934-15.78-2.218-21.856l11.556,6.8s-7.376,2.6-4.562,22.3S3526.807,1394.481,3530.724,1397.27Z" transform="translate(-3503.729 -1161.198)" fill="#1e3d70"/>
        <path id="Trazado_587271" data-name="Trazado 587271" d="M3513.606,1042.455s-2.218,8.015-9.893,6.992-18.589-5.629-18.589-5.629,3.28-10.364,7.358-23.979c4.937-16.483,11.049-37.733,13.93-51.136a82.909,82.909,0,0,0,1.566-9.138l6.368-12.354s9.494,21.308,10.006,26.681S3513.606,1042.455,3513.606,1042.455Z" transform="translate(-3485.124 -908.698)" fill="#0c5e46"/>
        <path id="Trazado_587272" data-name="Trazado 587272" d="M3525.531,973.091l8.4-25.88c-.023.011-10.614,3.152-15.942,5.843,0,0-3.33,4.293-5.39,14.2,0,0-2.177,23.78,2.684,32.478,0,0,15.35,3.07,39.911-5.372V988.73s-26.863,1.407-32.363,2.047Z" transform="translate(-3504.713 -908.698)" fill="#ffb27d"/>
        <path id="Trazado_587273" data-name="Trazado 587273" d="M3532.734,1042.011c-.343,8.7-2.39,25.583-20.638,34.622-.049.023-.1.049-.146.069,4.937-16.483,11.049-37.733,13.93-51.136C3529.232,1030.575,3532.921,1037.222,3532.734,1042.011Z" transform="translate(-3504.592 -965.561)" fill="#042b20"/>
        <path id="Trazado_587274" data-name="Trazado 587274" d="M3531.777,947.211s-15.579,1.1-19.331,9.455-4.946,36.158-.171,44.345c0,0,6.575,1.872,18.2-.3l.429-.082s3.71-9.082.384-10.873c0,0-9.807.512-8.784-2.729S3531.777,947.211,3531.777,947.211Z" transform="translate(-3502.555 -908.698)" fill="#0c5e46"/>
        <g id="Grupo_875970" data-name="Grupo 875970" transform="translate(42.041 75.557)">
          <path id="Trazado_587275" data-name="Trazado 587275" d="M3664.632,1090.216l-.459,1.475-25.562-7.952a.982.982,0,0,1-.173-.9.724.724,0,0,1,.632-.571Z" transform="translate(-3638.391 -1082.264)" fill="#a9453d"/>
          <path id="Trazado_587276" data-name="Trazado 587276" d="M3734.693,1112.649l-1.849-1.394-.458,1.475Z" transform="translate(-3706.603 -1103.303)" fill="#a9453d"/>
        </g>
        <path id="Trazado_587277" data-name="Trazado 587277" d="M3746.158,1238.486s6.485,3.584,7.338,6.314.267,8.447-.762,8.362-2.565-6.143-3.418-6.57-2.048-1.706-2.048-.768.853,2.645.427,2.9-1.792-2.388-2.73-2.9-1.333-4.731-2.245-5.864S3746.158,1238.486,3746.158,1238.486Z" transform="translate(-3671.97 -1120.078)" fill="#ffb27d"/>
        <path id="Trazado_587278" data-name="Trazado 587278" d="M3662.887,1090.429s5.8-3.572,8.232-3.022,8.633,5.04,5.651,6.012-5.4-.047-6.544.659-1.994,2-7.339,1.98S3662.887,1090.429,3662.887,1090.429Z" transform="translate(-3612.404 -1010.397)" fill="#ffb27d"/>
      </g>
    </g>
  </g>
</svg>
