<svg xmlns="http://www.w3.org/2000/svg" xmlns:xlink="http://www.w3.org/1999/xlink" width="715" height="402" viewBox="0 0 715 402">
  <defs>
    <clipPath id="clip-path">
      <rect id="Rectángulo_296854" data-name="Rectángulo 296854" width="167.731" height="257.212" fill="none"/>
    </clipPath>
  </defs>
  <g id="Grupo_877119" data-name="Grupo 877119" transform="translate(5218 8687)">
    <path id="Trazado_588589" data-name="Trazado 588589" d="M17,0H698a17,17,0,0,1,17,17V385a17,17,0,0,1-17,17H17A17,17,0,0,1,0,385V17A17,17,0,0,1,17,0Z" transform="translate(-5218 -8687)" fill="#fff"/>
    <path id="Trazado_588590" data-name="Trazado 588590" d="M5,0H447a5,5,0,0,1,5,5V276a5,5,0,0,1-5,5H5a5,5,0,0,1-5-5V5A5,5,0,0,1,5,0Z" transform="translate(-5032 -8641)" fill="#f6f6f6"/>
    <path id="Trazado_588591" data-name="Trazado 588591" d="M0,0H236V98.5H0Z" transform="translate(-4918.5 -8522.5)" fill="#fcc15a"/>
    <path id="Trazado_588592" data-name="Trazado 588592" d="M6.886,15.827,9.787,6.2h2.936L8.266,19H5.515L1.077,6.2H4ZM18.866,19a2.821,2.821,0,0,1-.255-.853,3.073,3.073,0,0,1-2.4,1.028,3.376,3.376,0,0,1-2.316-.809,2.6,2.6,0,0,1-.918-2.039,2.687,2.687,0,0,1,1.121-2.32,5.529,5.529,0,0,1,3.239-.817h1.169v-.545a1.567,1.567,0,0,0-.338-1.055,1.331,1.331,0,0,0-1.068-.4,1.513,1.513,0,0,0-1.006.308,1.045,1.045,0,0,0-.365.844h-2.54a2.551,2.551,0,0,1,.51-1.529,3.37,3.37,0,0,1,1.441-1.1,5.253,5.253,0,0,1,2.092-.4,4.15,4.15,0,0,1,2.791.883,3.09,3.09,0,0,1,1.033,2.483V16.8a4.546,4.546,0,0,0,.378,2.048V19Zm-2.1-1.767a2.188,2.188,0,0,0,1.037-.25,1.645,1.645,0,0,0,.7-.672V14.676h-.949q-1.907,0-2.03,1.318l-.009.149a1.017,1.017,0,0,0,.334.782A1.3,1.3,0,0,0,16.765,17.233ZM25.686,19H23.137V5.5h2.549Zm1.7-4.843a5.64,5.64,0,0,1,.545-2.522A3.989,3.989,0,0,1,29.5,9.921a4.577,4.577,0,0,1,2.377-.606,4.33,4.33,0,0,1,3.142,1.178,4.727,4.727,0,0,1,1.358,3.2l.018.65a4.97,4.97,0,0,1-1.222,3.511,4.247,4.247,0,0,1-3.278,1.323,4.268,4.268,0,0,1-3.283-1.318,5.058,5.058,0,0,1-1.226-3.586Zm2.54.18a3.555,3.555,0,0,0,.51,2.073,1.831,1.831,0,0,0,2.9.009,3.89,3.89,0,0,0,.519-2.267,3.519,3.519,0,0,0-.519-2.06,1.686,1.686,0,0,0-1.459-.731,1.658,1.658,0,0,0-1.441.726A3.955,3.955,0,0,0,29.922,14.338ZM43.3,11.872a6.9,6.9,0,0,0-.914-.07,1.86,1.86,0,0,0-1.89.976V19h-2.54V9.49h2.4l.07,1.134a2.354,2.354,0,0,1,2.118-1.31,2.662,2.662,0,0,1,.791.114Zm8.508,2.619V19H49.17V6.2h4.992A5.776,5.776,0,0,1,56.7,6.73a3.886,3.886,0,0,1,1.683,1.5,4.178,4.178,0,0,1,.589,2.21,3.674,3.674,0,0,1-1.288,2.966,5.363,5.363,0,0,1-3.564,1.085Zm0-2.136h2.355a2.316,2.316,0,0,0,1.6-.492,1.79,1.79,0,0,0,.549-1.406,2.111,2.111,0,0,0-.554-1.521,2.068,2.068,0,0,0-1.529-.6H51.807Zm14.15-.483a6.9,6.9,0,0,0-.914-.07,1.86,1.86,0,0,0-1.89.976V19h-2.54V9.49h2.4l.07,1.134A2.354,2.354,0,0,1,65.2,9.314a2.662,2.662,0,0,1,.791.114Zm5.6,7.3a4.668,4.668,0,0,1-3.406-1.283,4.561,4.561,0,0,1-1.314-3.419v-.246a5.745,5.745,0,0,1,.554-2.562,4.064,4.064,0,0,1,1.569-1.74,4.4,4.4,0,0,1,2.316-.611,3.947,3.947,0,0,1,3.072,1.23,5,5,0,0,1,1.121,3.489v1.037H69.412a2.36,2.36,0,0,0,.743,1.494,2.245,2.245,0,0,0,1.569.563,2.742,2.742,0,0,0,2.294-1.063l1.248,1.4a3.813,3.813,0,0,1-1.547,1.261A5.075,5.075,0,0,1,71.556,19.176Zm-.29-7.813a1.587,1.587,0,0,0-1.226.512,2.651,2.651,0,0,0-.6,1.466h3.533v-.2a1.891,1.891,0,0,0-.457-1.311A1.638,1.638,0,0,0,71.266,11.362Zm10.793,5.01a.818.818,0,0,0-.461-.734,5.241,5.241,0,0,0-1.481-.479q-3.393-.712-3.393-2.883a2.613,2.613,0,0,1,1.05-2.114,4.237,4.237,0,0,1,2.747-.848,4.56,4.56,0,0,1,2.9.853A2.687,2.687,0,0,1,84.5,12.382h-2.54a1.229,1.229,0,0,0-.352-.9,1.488,1.488,0,0,0-1.1-.356,1.52,1.52,0,0,0-.993.29.916.916,0,0,0-.352.738.783.783,0,0,0,.4.681,4.114,4.114,0,0,0,1.349.448,11.019,11.019,0,0,1,1.6.426,2.628,2.628,0,0,1,2.013,2.558,2.481,2.481,0,0,1-1.116,2.1,4.815,4.815,0,0,1-2.883.8,5.029,5.029,0,0,1-2.123-.426,3.561,3.561,0,0,1-1.455-1.169,2.716,2.716,0,0,1-.527-1.6h2.408a1.326,1.326,0,0,0,.5,1.037,1.987,1.987,0,0,0,1.248.36,1.839,1.839,0,0,0,1.1-.277A.861.861,0,0,0,82.059,16.372Zm8.481,2.8a4.668,4.668,0,0,1-3.406-1.283,4.561,4.561,0,0,1-1.314-3.419v-.246a5.745,5.745,0,0,1,.554-2.562,4.064,4.064,0,0,1,1.569-1.74,4.4,4.4,0,0,1,2.316-.611,3.947,3.947,0,0,1,3.072,1.23,5,5,0,0,1,1.121,3.489v1.037H88.4a2.36,2.36,0,0,0,.743,1.494,2.245,2.245,0,0,0,1.569.563A2.742,2.742,0,0,0,93,16.064l1.248,1.4A3.813,3.813,0,0,1,92.7,18.723,5.075,5.075,0,0,1,90.541,19.176Zm-.29-7.813a1.587,1.587,0,0,0-1.226.512,2.651,2.651,0,0,0-.6,1.466h3.533v-.2a1.891,1.891,0,0,0-.457-1.311A1.638,1.638,0,0,0,90.25,11.362Zm7.98-1.872.079,1.1a3.32,3.32,0,0,1,2.733-1.274,2.759,2.759,0,0,1,2.25.888,4.142,4.142,0,0,1,.756,2.654V19h-2.54V12.918a1.648,1.648,0,0,0-.352-1.173,1.574,1.574,0,0,0-1.169-.365,1.747,1.747,0,0,0-1.608.914V19H95.84V9.49Zm10.784-2.338V9.49h1.626v1.863h-1.626V16.1a1.133,1.133,0,0,0,.2.756,1.015,1.015,0,0,0,.773.229,4.051,4.051,0,0,0,.747-.062v1.925a5.229,5.229,0,0,1-1.538.229,2.425,2.425,0,0,1-2.725-2.7V11.354h-1.389V9.49h1.389V7.152Zm7.418,12.023a4.668,4.668,0,0,1-3.406-1.283,4.561,4.561,0,0,1-1.314-3.419v-.246a5.745,5.745,0,0,1,.554-2.562,4.064,4.064,0,0,1,1.569-1.74,4.4,4.4,0,0,1,2.316-.611,3.947,3.947,0,0,1,3.072,1.23,5,5,0,0,1,1.121,3.489v1.037h-6.056a2.36,2.36,0,0,0,.743,1.494,2.245,2.245,0,0,0,1.569.563,2.742,2.742,0,0,0,2.294-1.063l1.248,1.4a3.813,3.813,0,0,1-1.547,1.261A5.075,5.075,0,0,1,116.433,19.176Zm-.29-7.813a1.587,1.587,0,0,0-1.226.512,2.651,2.651,0,0,0-.6,1.466h3.533v-.2a1.891,1.891,0,0,0-.457-1.311A1.638,1.638,0,0,0,116.143,11.362Zm9.729,2.813a5.731,5.731,0,0,1,1-3.542A3.237,3.237,0,0,1,129.6,9.314a2.913,2.913,0,0,1,2.294,1.037V5.5h2.549V19h-2.294l-.123-1.011a2.989,2.989,0,0,1-2.443,1.187,3.228,3.228,0,0,1-2.694-1.323A5.916,5.916,0,0,1,125.873,14.175Zm2.54.189a3.754,3.754,0,0,0,.466,2.051,1.517,1.517,0,0,0,1.354.713,1.7,1.7,0,0,0,1.661-.995V12.375a1.675,1.675,0,0,0-1.644-.995Q128.413,11.38,128.413,14.364Zm12.375,4.812a4.668,4.668,0,0,1-3.406-1.283,4.561,4.561,0,0,1-1.314-3.419v-.246a5.745,5.745,0,0,1,.554-2.562,4.064,4.064,0,0,1,1.569-1.74,4.4,4.4,0,0,1,2.316-.611,3.947,3.947,0,0,1,3.072,1.23,5,5,0,0,1,1.121,3.489v1.037h-6.056a2.36,2.36,0,0,0,.743,1.494,2.245,2.245,0,0,0,1.569.563,2.742,2.742,0,0,0,2.294-1.063l1.248,1.4a3.813,3.813,0,0,1-1.547,1.261A5.075,5.075,0,0,1,140.788,19.176Zm-.29-7.813a1.587,1.587,0,0,0-1.226.512,2.651,2.651,0,0,0-.6,1.466H142.2v-.2a1.891,1.891,0,0,0-.457-1.311A1.638,1.638,0,0,0,140.5,11.362Zm15.82,6.671a3.185,3.185,0,0,1-2.6,1.143,3,3,0,0,1-2.333-.879,3.752,3.752,0,0,1-.822-2.575V9.49h2.54v6.151q0,1.487,1.354,1.487a1.834,1.834,0,0,0,1.775-.9V9.49h2.549V19h-2.391Zm6.715-8.543.079,1.1a3.32,3.32,0,0,1,2.733-1.274,2.759,2.759,0,0,1,2.25.888,4.142,4.142,0,0,1,.756,2.654V19h-2.54V12.918a1.648,1.648,0,0,0-.352-1.173,1.574,1.574,0,0,0-1.169-.365,1.747,1.747,0,0,0-1.608.914V19h-2.54V9.49ZM176.287,19a2.821,2.821,0,0,1-.255-.853,3.073,3.073,0,0,1-2.4,1.028,3.376,3.376,0,0,1-2.316-.809,2.6,2.6,0,0,1-.918-2.039,2.687,2.687,0,0,1,1.121-2.32,5.529,5.529,0,0,1,3.239-.817h1.169v-.545a1.567,1.567,0,0,0-.338-1.055,1.331,1.331,0,0,0-1.068-.4,1.513,1.513,0,0,0-1.006.308,1.045,1.045,0,0,0-.365.844h-2.54a2.551,2.551,0,0,1,.51-1.529,3.37,3.37,0,0,1,1.441-1.1,5.253,5.253,0,0,1,2.092-.4,4.15,4.15,0,0,1,2.791.883,3.09,3.09,0,0,1,1.033,2.483V16.8a4.546,4.546,0,0,0,.378,2.048V19Zm-2.1-1.767a2.188,2.188,0,0,0,1.037-.25,1.645,1.645,0,0,0,.7-.672V14.676h-.949q-1.907,0-2.03,1.318l-.009.149a1.017,1.017,0,0,0,.334.782A1.3,1.3,0,0,0,174.186,17.233Zm15.873-.861a.818.818,0,0,0-.461-.734,5.241,5.241,0,0,0-1.481-.479q-3.393-.712-3.393-2.883a2.613,2.613,0,0,1,1.05-2.114,4.237,4.237,0,0,1,2.747-.848,4.56,4.56,0,0,1,2.9.853,2.687,2.687,0,0,1,1.085,2.215h-2.54a1.229,1.229,0,0,0-.352-.9,1.488,1.488,0,0,0-1.1-.356,1.52,1.52,0,0,0-.993.29.916.916,0,0,0-.352.738.783.783,0,0,0,.4.681,4.114,4.114,0,0,0,1.349.448,11.019,11.019,0,0,1,1.6.426,2.628,2.628,0,0,1,2.013,2.558,2.481,2.481,0,0,1-1.116,2.1,4.815,4.815,0,0,1-2.883.8,5.029,5.029,0,0,1-2.123-.426,3.561,3.561,0,0,1-1.455-1.169,2.716,2.716,0,0,1-.527-1.6h2.408a1.326,1.326,0,0,0,.5,1.037,1.987,1.987,0,0,0,1.248.36,1.839,1.839,0,0,0,1.1-.277A.861.861,0,0,0,190.059,16.372Zm8.481,2.8a4.668,4.668,0,0,1-3.406-1.283,4.561,4.561,0,0,1-1.314-3.419v-.246a5.745,5.745,0,0,1,.554-2.562,4.064,4.064,0,0,1,1.569-1.74,4.4,4.4,0,0,1,2.316-.611,3.947,3.947,0,0,1,3.072,1.23,5,5,0,0,1,1.121,3.489v1.037H196.4a2.36,2.36,0,0,0,.743,1.494,2.245,2.245,0,0,0,1.569.563A2.742,2.742,0,0,0,201,16.064l1.248,1.4a3.813,3.813,0,0,1-1.547,1.261A5.075,5.075,0,0,1,198.541,19.176Zm-.29-7.813a1.587,1.587,0,0,0-1.226.512,2.651,2.651,0,0,0-.6,1.466h3.533v-.2a1.891,1.891,0,0,0-.457-1.311A1.638,1.638,0,0,0,198.25,11.362Zm10.986.51a6.9,6.9,0,0,0-.914-.07,1.86,1.86,0,0,0-1.89.976V19h-2.54V9.49h2.4l.07,1.134a2.354,2.354,0,0,1,2.118-1.31,2.662,2.662,0,0,1,.791.114Zm3.9,7.128H210.59V9.49h2.549Zm-2.7-11.971a1.251,1.251,0,0,1,.382-.94,1.648,1.648,0,0,1,2.079,0,1.244,1.244,0,0,1,.387.94,1.247,1.247,0,0,1-.391.949,1.629,1.629,0,0,1-2.065,0A1.247,1.247,0,0,1,210.441,7.029Zm9.167,12.146a4.668,4.668,0,0,1-3.406-1.283,4.561,4.561,0,0,1-1.314-3.419v-.246a5.745,5.745,0,0,1,.554-2.562,4.064,4.064,0,0,1,1.569-1.74,4.4,4.4,0,0,1,2.316-.611,3.947,3.947,0,0,1,3.072,1.23,5,5,0,0,1,1.121,3.489v1.037h-6.056a2.36,2.36,0,0,0,.743,1.494,2.245,2.245,0,0,0,1.569.563,2.742,2.742,0,0,0,2.294-1.063l1.248,1.4a3.813,3.813,0,0,1-1.547,1.261A5.075,5.075,0,0,1,219.608,19.176Zm-.29-7.813a1.587,1.587,0,0,0-1.226.512,2.651,2.651,0,0,0-.6,1.466h3.533v-.2a1.891,1.891,0,0,0-.457-1.311A1.638,1.638,0,0,0,219.318,11.362ZM15.06,38.175a5.731,5.731,0,0,1,1-3.542,3.237,3.237,0,0,1,2.729-1.318,2.913,2.913,0,0,1,2.294,1.037V29.5h2.549V43H21.335l-.123-1.011a2.989,2.989,0,0,1-2.443,1.187,3.228,3.228,0,0,1-2.694-1.323A5.916,5.916,0,0,1,15.06,38.175Zm2.54.189a3.754,3.754,0,0,0,.466,2.051,1.517,1.517,0,0,0,1.354.713,1.7,1.7,0,0,0,1.661-.995V36.375a1.675,1.675,0,0,0-1.644-.995Q17.6,35.38,17.6,38.364Zm12.375,4.812a4.668,4.668,0,0,1-3.406-1.283,4.561,4.561,0,0,1-1.314-3.419v-.246a5.745,5.745,0,0,1,.554-2.562,4.064,4.064,0,0,1,1.569-1.74,4.4,4.4,0,0,1,2.316-.611,3.947,3.947,0,0,1,3.072,1.23,5,5,0,0,1,1.121,3.489v1.037H27.831a2.36,2.36,0,0,0,.743,1.494,2.245,2.245,0,0,0,1.569.563,2.742,2.742,0,0,0,2.294-1.063l1.248,1.4a3.813,3.813,0,0,1-1.547,1.261A5.075,5.075,0,0,1,29.975,43.176Zm-.29-7.813a1.587,1.587,0,0,0-1.226.512,2.651,2.651,0,0,0-.6,1.466H31.39v-.2a1.891,1.891,0,0,0-.457-1.311A1.638,1.638,0,0,0,29.685,35.362Zm14.08,5.766a1.666,1.666,0,0,0,1.143-.387,1.355,1.355,0,0,0,.457-1.028h2.382a3.258,3.258,0,0,1-.527,1.771A3.48,3.48,0,0,1,45.8,42.732a4.442,4.442,0,0,1-1.991.444,4.129,4.129,0,0,1-3.217-1.3A5.13,5.13,0,0,1,39.415,38.3v-.167a5.071,5.071,0,0,1,1.169-3.507,4.08,4.08,0,0,1,3.208-1.31,4,4,0,0,1,2.861,1.015,3.594,3.594,0,0,1,1.094,2.7H45.365a1.745,1.745,0,0,0-.457-1.206,1.7,1.7,0,0,0-2.5.183,3.749,3.749,0,0,0-.453,2.1v.264a3.8,3.8,0,0,0,.448,2.113A1.549,1.549,0,0,0,43.765,41.128Zm11.127.905a3.185,3.185,0,0,1-2.6,1.143,3,3,0,0,1-2.333-.879,3.752,3.752,0,0,1-.822-2.575V33.49h2.54v6.151q0,1.487,1.354,1.487a1.834,1.834,0,0,0,1.775-.9V33.49h2.549V43H54.962Zm3.981-3.876a5.64,5.64,0,0,1,.545-2.522,3.989,3.989,0,0,1,1.569-1.714,4.577,4.577,0,0,1,2.377-.606,4.33,4.33,0,0,1,3.142,1.178,4.727,4.727,0,0,1,1.358,3.2l.018.65a4.97,4.97,0,0,1-1.222,3.511,4.735,4.735,0,0,1-6.561,0,5.058,5.058,0,0,1-1.226-3.586Zm2.54.18a3.555,3.555,0,0,0,.51,2.073,1.831,1.831,0,0,0,2.9.009,3.89,3.89,0,0,0,.519-2.267,3.519,3.519,0,0,0-.519-2.06,1.686,1.686,0,0,0-1.459-.731,1.658,1.658,0,0,0-1.441.726A3.955,3.955,0,0,0,61.414,38.338Zm11.074-7.185V33.49h1.626v1.863H72.488V40.1a1.133,1.133,0,0,0,.2.756,1.015,1.015,0,0,0,.773.229,4.051,4.051,0,0,0,.747-.062v1.925a5.229,5.229,0,0,1-1.538.229,2.425,2.425,0,0,1-2.725-2.7V35.354H68.559V33.49h1.389V31.152ZM81.04,43a2.821,2.821,0,0,1-.255-.853,3.073,3.073,0,0,1-2.4,1.028,3.376,3.376,0,0,1-2.316-.809,2.6,2.6,0,0,1-.918-2.039,2.687,2.687,0,0,1,1.121-2.32,5.529,5.529,0,0,1,3.239-.817h1.169v-.545a1.567,1.567,0,0,0-.338-1.055,1.331,1.331,0,0,0-1.068-.4,1.513,1.513,0,0,0-1.006.308,1.045,1.045,0,0,0-.365.844h-2.54a2.551,2.551,0,0,1,.51-1.529,3.37,3.37,0,0,1,1.441-1.1,5.253,5.253,0,0,1,2.092-.4A4.15,4.15,0,0,1,82.2,34.2a3.09,3.09,0,0,1,1.033,2.483V40.8a4.546,4.546,0,0,0,.378,2.048V43Zm-2.1-1.767a2.188,2.188,0,0,0,1.037-.25,1.645,1.645,0,0,0,.7-.672V38.676H79.73q-1.907,0-2.03,1.318l-.009.149a1.017,1.017,0,0,0,.334.782A1.3,1.3,0,0,0,78.939,41.233Zm11.391-.861a.818.818,0,0,0-.461-.734,5.241,5.241,0,0,0-1.481-.479q-3.393-.712-3.393-2.883a2.613,2.613,0,0,1,1.05-2.114,4.237,4.237,0,0,1,2.747-.848,4.56,4.56,0,0,1,2.9.853,2.687,2.687,0,0,1,1.085,2.215h-2.54a1.229,1.229,0,0,0-.352-.9,1.488,1.488,0,0,0-1.1-.356,1.52,1.52,0,0,0-.993.29.916.916,0,0,0-.352.738.783.783,0,0,0,.4.681,4.114,4.114,0,0,0,1.349.448,11.019,11.019,0,0,1,1.6.426A2.628,2.628,0,0,1,92.8,40.267a2.481,2.481,0,0,1-1.116,2.1,4.815,4.815,0,0,1-2.883.8,5.029,5.029,0,0,1-2.123-.426,3.561,3.561,0,0,1-1.455-1.169,2.716,2.716,0,0,1-.527-1.6H87.1a1.326,1.326,0,0,0,.5,1.037,1.987,1.987,0,0,0,1.248.36,1.839,1.839,0,0,0,1.1-.277A.861.861,0,0,0,90.33,40.372Zm8.191-2.215a5.64,5.64,0,0,1,.545-2.522,3.989,3.989,0,0,1,1.569-1.714,4.577,4.577,0,0,1,2.377-.606,4.33,4.33,0,0,1,3.142,1.178,4.727,4.727,0,0,1,1.358,3.2l.018.65a4.97,4.97,0,0,1-1.222,3.511,4.735,4.735,0,0,1-6.561,0,5.058,5.058,0,0,1-1.226-3.586Zm2.54.18a3.555,3.555,0,0,0,.51,2.073,1.831,1.831,0,0,0,2.9.009,3.89,3.89,0,0,0,.519-2.267,3.519,3.519,0,0,0-.519-2.06,1.686,1.686,0,0,0-1.459-.731,1.658,1.658,0,0,0-1.441.726A3.955,3.955,0,0,0,101.061,38.338ZM119.087,43a2.821,2.821,0,0,1-.255-.853,3.073,3.073,0,0,1-2.4,1.028,3.376,3.376,0,0,1-2.316-.809,2.6,2.6,0,0,1-.918-2.039,2.687,2.687,0,0,1,1.121-2.32,5.529,5.529,0,0,1,3.239-.817h1.169v-.545a1.567,1.567,0,0,0-.338-1.055,1.331,1.331,0,0,0-1.068-.4,1.513,1.513,0,0,0-1.006.308,1.045,1.045,0,0,0-.365.844h-2.54a2.551,2.551,0,0,1,.51-1.529,3.37,3.37,0,0,1,1.441-1.1,5.253,5.253,0,0,1,2.092-.4,4.15,4.15,0,0,1,2.791.883,3.09,3.09,0,0,1,1.033,2.483V40.8a4.546,4.546,0,0,0,.378,2.048V43Zm-2.1-1.767a2.188,2.188,0,0,0,1.037-.25,1.645,1.645,0,0,0,.7-.672V38.676h-.949q-1.907,0-2.03,1.318l-.009.149a1.017,1.017,0,0,0,.334.782A1.3,1.3,0,0,0,116.987,41.233Zm8.578-7.743.079,1.1a3.32,3.32,0,0,1,2.733-1.274,2.759,2.759,0,0,1,2.25.888,4.142,4.142,0,0,1,.756,2.654V43h-2.54V36.918a1.648,1.648,0,0,0-.352-1.173,1.574,1.574,0,0,0-1.169-.365,1.747,1.747,0,0,0-1.608.914V43h-2.54V33.49ZM139,42.033a3.185,3.185,0,0,1-2.6,1.143,3,3,0,0,1-2.333-.879,3.752,3.752,0,0,1-.822-2.575V33.49h2.54v6.151q0,1.487,1.354,1.487a1.834,1.834,0,0,0,1.775-.9V33.49h2.549V43h-2.391Zm9.888.967a2.821,2.821,0,0,1-.255-.853,3.073,3.073,0,0,1-2.4,1.028,3.376,3.376,0,0,1-2.316-.809A2.6,2.6,0,0,1,143,40.328a2.687,2.687,0,0,1,1.121-2.32,5.529,5.529,0,0,1,3.239-.817h1.169v-.545a1.567,1.567,0,0,0-.338-1.055,1.331,1.331,0,0,0-1.068-.4,1.513,1.513,0,0,0-1.006.308,1.045,1.045,0,0,0-.365.844h-2.54a2.551,2.551,0,0,1,.51-1.529,3.37,3.37,0,0,1,1.441-1.1,5.253,5.253,0,0,1,2.092-.4,4.15,4.15,0,0,1,2.791.883,3.09,3.09,0,0,1,1.033,2.483V40.8a4.546,4.546,0,0,0,.378,2.048V43Zm-2.1-1.767a2.188,2.188,0,0,0,1.037-.25,1.645,1.645,0,0,0,.7-.672V38.676h-.949q-1.907,0-2.03,1.318l-.009.149a1.017,1.017,0,0,0,.334.782A1.3,1.3,0,0,0,146.791,41.233ZM155.711,43h-2.549V29.5h2.549Zm4.772,0h-2.549V33.49h2.549Zm-2.7-11.971a1.251,1.251,0,0,1,.382-.94,1.648,1.648,0,0,1,2.079,0,1.342,1.342,0,0,1,0,1.89,1.629,1.629,0,0,1-2.065,0A1.247,1.247,0,0,1,157.786,31.029Zm4.395,7.146a5.731,5.731,0,0,1,1-3.542,3.237,3.237,0,0,1,2.729-1.318,2.913,2.913,0,0,1,2.294,1.037V29.5h2.549V43h-2.294l-.123-1.011a2.989,2.989,0,0,1-2.443,1.187,3.228,3.228,0,0,1-2.694-1.323A5.916,5.916,0,0,1,162.18,38.175Zm2.54.189a3.754,3.754,0,0,0,.466,2.051,1.517,1.517,0,0,0,1.354.713,1.7,1.7,0,0,0,1.661-.995V36.375a1.675,1.675,0,0,0-1.644-.995Q164.72,35.38,164.72,38.364ZM178.229,43a2.821,2.821,0,0,1-.255-.853,3.073,3.073,0,0,1-2.4,1.028,3.376,3.376,0,0,1-2.316-.809,2.6,2.6,0,0,1-.918-2.039,2.687,2.687,0,0,1,1.121-2.32,5.529,5.529,0,0,1,3.239-.817h1.169v-.545a1.567,1.567,0,0,0-.338-1.055,1.331,1.331,0,0,0-1.068-.4,1.513,1.513,0,0,0-1.006.308,1.045,1.045,0,0,0-.365.844h-2.54a2.551,2.551,0,0,1,.51-1.529,3.37,3.37,0,0,1,1.441-1.1,5.253,5.253,0,0,1,2.092-.4,4.15,4.15,0,0,1,2.791.883,3.09,3.09,0,0,1,1.033,2.483V40.8a4.546,4.546,0,0,0,.378,2.048V43Zm-2.1-1.767a2.188,2.188,0,0,0,1.037-.25,1.645,1.645,0,0,0,.7-.672V38.676h-.949q-1.907,0-2.03,1.318l-.009.149a1.017,1.017,0,0,0,.334.782A1.3,1.3,0,0,0,176.128,41.233Zm5.845-3.059a5.731,5.731,0,0,1,1-3.542,3.237,3.237,0,0,1,2.729-1.318,2.913,2.913,0,0,1,2.294,1.037V29.5h2.549V43h-2.294l-.123-1.011a2.989,2.989,0,0,1-2.443,1.187,3.228,3.228,0,0,1-2.694-1.323A5.916,5.916,0,0,1,181.973,38.175Zm2.54.189a3.754,3.754,0,0,0,.466,2.051,1.517,1.517,0,0,0,1.354.713,1.7,1.7,0,0,0,1.661-.995V36.375a1.675,1.675,0,0,0-1.644-.995Q184.513,35.38,184.513,38.364Zm12.375,4.812a4.668,4.668,0,0,1-3.406-1.283,4.561,4.561,0,0,1-1.314-3.419v-.246a5.745,5.745,0,0,1,.554-2.562,4.064,4.064,0,0,1,1.569-1.74,4.4,4.4,0,0,1,2.316-.611,3.947,3.947,0,0,1,3.072,1.23,5,5,0,0,1,1.121,3.489v1.037h-6.056a2.36,2.36,0,0,0,.743,1.494,2.245,2.245,0,0,0,1.569.563,2.742,2.742,0,0,0,2.294-1.063l1.248,1.4a3.813,3.813,0,0,1-1.547,1.261A5.075,5.075,0,0,1,196.888,43.176Zm-.29-7.813a1.587,1.587,0,0,0-1.226.512,2.651,2.651,0,0,0-.6,1.466H198.3v-.2a1.891,1.891,0,0,0-.457-1.311A1.638,1.638,0,0,0,196.6,35.362Zm10.793,5.01a.818.818,0,0,0-.461-.734,5.241,5.241,0,0,0-1.481-.479q-3.393-.712-3.393-2.883a2.613,2.613,0,0,1,1.05-2.114,4.237,4.237,0,0,1,2.747-.848,4.56,4.56,0,0,1,2.9.853,2.687,2.687,0,0,1,1.085,2.215h-2.54a1.229,1.229,0,0,0-.352-.9,1.488,1.488,0,0,0-1.1-.356,1.52,1.52,0,0,0-.993.29.916.916,0,0,0-.352.738.783.783,0,0,0,.4.681,4.114,4.114,0,0,0,1.349.448,11.019,11.019,0,0,1,1.6.426,2.628,2.628,0,0,1,2.013,2.558,2.481,2.481,0,0,1-1.116,2.1,4.815,4.815,0,0,1-2.883.8,5.029,5.029,0,0,1-2.123-.426,3.561,3.561,0,0,1-1.455-1.169,2.716,2.716,0,0,1-.527-1.6h2.408a1.326,1.326,0,0,0,.5,1.037,1.987,1.987,0,0,0,1.248.36,1.839,1.839,0,0,0,1.1-.277A.861.861,0,0,0,207.391,40.372Z" transform="translate(-4913 -8587.105)" fill="#12263f"/>
    <g id="Grupo_877084" data-name="Grupo 877084" transform="translate(-5170.106 -8568.105)">
      <g id="Grupo_877083" data-name="Grupo 877083" clip-path="url(#clip-path)">
        <path id="Trazado_588363" data-name="Trazado 588363" d="M100.942,278.828l.672,11.136,28.414-.371s4.408-5.474-9.343-5.474c-2.758,0-3.19-5.844-3.19-5.844Z" transform="translate(-11.881 -32.753)" fill="#afafaf"/>
        <path id="Trazado_588364" data-name="Trazado 588364" d="M48.15,278.828l-.672,11.136-28.414-.371s-4.408-5.474,9.343-5.474c2.758,0,3.19-5.844,3.19-5.844Z" transform="translate(-2.165 -32.753)" fill="#afafaf"/>
        <path id="Trazado_588365" data-name="Trazado 588365" d="M36.4,133.184,28.928,264.433H51.674L62.311,156.85l2.3-.125L91.707,264.433h20.5L86.475,128.2Z" transform="translate(-3.405 -15.089)" fill="#0076be"/>
        <path id="Trazado_588366" data-name="Trazado 588366" d="M70.066,155.925H65.824l-.7-10.912.4-.026.672,10.542h3.87Z" transform="translate(-7.665 -17.065)" fill="#f2f2f2"/>
        <path id="Trazado_588367" data-name="Trazado 588367" d="M114.769,258.521H100.8v-.4h13.493c-1.293-6.748-19.466-101.6-20.208-107.447-10.328,2.51-14.349-5.132-14.389-5.211l.354-.18c.039.076,3.987,7.545,14.161,4.951l.248-.063v.255c0,2.1,20.066,106.8,20.269,107.855Z" transform="translate(-9.38 -17.1)" fill="#f2f2f2"/>
        <path id="Trazado_588368" data-name="Trazado 588368" d="M51.2,258.417H32.406l.011-.208c.228-4.25,5.588-104.105,6.38-107.784l.04-.186.187.032c5.565.941,11.966-5.792,12.029-5.86l.289.273c-.265.281-6.479,6.8-12.189,6.008-.873,5.907-6.051,102.147-6.329,107.329H51.2Z" transform="translate(-3.814 -16.997)" fill="#f2f2f2"/>
        <path id="Trazado_588369" data-name="Trazado 588369" d="M71.324,29.63l.936,13.287S61,45.591,58.049,42.614c-.671-.678.844-15.84.844-15.84Z" transform="translate(-6.812 -3.151)" fill="#f29b89"/>
        <path id="Trazado_588370" data-name="Trazado 588370" d="M72.4,33.606c-2.148-.019-7.6-2.716-7.6-2.716a11.274,11.274,0,0,0,7.719,5.146c-.029-.661-.091-1.464-.121-2.431" transform="translate(-7.628 -3.636)" fill="#222753"/>
        <path id="Trazado_588371" data-name="Trazado 588371" d="M76.077,9.3s4.729,18.084-1.191,21.046-16.559-4.142-16.559-4.142L55.108,11.134Z" transform="translate(-6.486 -1.095)" fill="#f29b89"/>
        <path id="Trazado_588372" data-name="Trazado 588372" d="M77.9,18.171a.836.836,0,0,0,.681.937c.384.005.7-.4.708-.916s-.3-.932-.681-.937-.7.4-.708.916" transform="translate(-9.169 -2.031)" fill="#222753"/>
        <path id="Trazado_588373" data-name="Trazado 588373" d="M70.726,18.672a.836.836,0,0,0,.68.937c.384.005.7-.4.708-.916s-.3-.932-.681-.937-.7.4-.708.916" transform="translate(-8.324 -2.09)" fill="#222753"/>
        <path id="Trazado_588374" data-name="Trazado 588374" d="M75.068,23.636a.2.2,0,0,1-.008-.4,3.873,3.873,0,0,0,1.641-.445c.268-.18-.264-1.885-1.139-3.648a.2.2,0,1,1,.356-.176c.541,1.089,1.721,3.675,1,4.155a4.21,4.21,0,0,1-1.846.512h-.008" transform="translate(-8.812 -2.22)" fill="#222753"/>
        <path id="Trazado_588375" data-name="Trazado 588375" d="M75.107,26.975a2.636,2.636,0,0,1-2.471-1.558.2.2,0,0,1,.354-.181c1.095,2.141,3.374,1.112,3.47,1.066a.2.2,0,0,1,.169.36,4.037,4.037,0,0,1-1.521.313" transform="translate(-8.547 -2.958)" fill="#222753"/>
        <path id="Trazado_588376" data-name="Trazado 588376" d="M55.558,5.913c1.262-3.784,5.056-2.532,5.289-2.889A4.8,4.8,0,0,1,66.4,1.3c1.233.389,2.544,1.041,3.619.324,1.434-.956,7.874-3.174,8.972.122,2.4,7.2-.977,9.033-3.867,9.758-1.645.413-3.378-.174-5.074-.23s-3.571.321-4.6,1.668a14.849,14.849,0,0,1-1.5,2.3c-1.1.986-2.923.753-4.051,1.713a4.442,4.442,0,0,0-1.106,3.508,27.674,27.674,0,0,0,.278,3.743,5.031,5.031,0,0,1,.051,1.885,1.532,1.532,0,0,1-1.27,1.234c-.948.054-1.513-1.036-1.722-1.962a12.924,12.924,0,0,1-.318-2.6c-.023-1.1-6.437-16-.252-16.85" transform="translate(-6.223 0)" fill="#222753"/>
        <path id="Trazado_588377" data-name="Trazado 588377" d="M62.317,19.925c-.1-.017-.866-1.951-2.822-1.608-1.742.305-1.828,3.175-1.252,3.8a4.894,4.894,0,0,0,3.579,1.836Z" transform="translate(-6.818 -2.151)" fill="#f29b89"/>
        <path id="Trazado_588378" data-name="Trazado 588378" d="M59.186,21.669a.2.2,0,0,1-.2-.175,1.182,1.182,0,0,1,.354-1.147c.626-.495,1.8-.062,1.854-.044a.2.2,0,0,1,.116.256.2.2,0,0,1-.255.116c-.281-.1-1.094-.311-1.47-.016a.823.823,0,0,0-.2.787.2.2,0,0,1-.174.221.1.1,0,0,1-.024,0" transform="translate(-6.941 -2.367)" fill="#222753"/>
        <path id="Trazado_588379" data-name="Trazado 588379" d="M60.612,22.14h-.019a.2.2,0,0,1-.177-.169,2.71,2.71,0,0,0-.158-.222,3.83,3.83,0,0,1-.71-1.3.2.2,0,0,1,.386-.1,3.508,3.508,0,0,0,.642,1.158c.169.224.246.327.235.45a.2.2,0,0,1-.2.179" transform="translate(-7.008 -2.378)" fill="#222753"/>
        <path id="Trazado_588380" data-name="Trazado 588380" d="M90.871,46.364s0,54.575,0,80.378c-21.31,11.854-55.179,0-55.179,0L32,78.767l.915-32.4,16.3-2.585,6.335-1.006,6.826.549,8.508-.125,8.691,1.376Z" transform="translate(-3.766 -5.034)" fill="#222753"/>
        <path id="Trazado_588381" data-name="Trazado 588381" d="M81.865,44.573c-2.382,5.664-7.914,18.484-11.893,24.96-1.421,2.312-2.638,3.82-3.45,3.9-.785.079-2-1.429-3.432-3.873a.027.027,0,0,1-.009-.018c-3.635-6.2-8.655-18.378-11.576-25.763l6.335-1.006,6.826.549,8.508-.125Z" transform="translate(-6.062 -5.034)" fill="#f2f2f2"/>
        <path id="Trazado_588382" data-name="Trazado 588382" d="M54.1,43.3c.07-.311,3.114-3.986,3.114-3.986s6.478,2.74,8.16,2.679,8.033-2.679,8.033-2.679l2.74,4.546S70.971,48.884,65.5,49.213c-5.177.311-11.4-5.917-11.4-5.917" transform="translate(-6.367 -4.627)" fill="#f2f2f2"/>
        <path id="Trazado_588383" data-name="Trazado 588383" d="M62.352,50a.193.193,0,0,1-.1-.026c-.23-.129-5.669-3.175-6.943-5.017a.2.2,0,0,1,.05-.276.2.2,0,0,1,.276.05c1.115,1.611,5.821,4.334,6.677,4.821l3.42-3.574a.2.2,0,0,1,.277-.01l3.963,3.589c.806-.463,5.3-3.118,6.122-5.2a.2.2,0,0,1,.37.146c-.95,2.405-6.2,5.344-6.422,5.468a.2.2,0,0,1-.229-.026L65.889,46.4,62.5,49.942a.2.2,0,0,1-.144.061" transform="translate(-6.506 -5.207)" fill="#3ae3fe"/>
        <path id="Trazado_588384" data-name="Trazado 588384" d="M71.589,69.136s-.079.326-.229.821c-1.421,2.312-2.638,3.82-3.45,3.9-.785.079-2-1.429-3.432-3.873a.027.027,0,0,1-.009-.018l1.588-16.437-2.762-3.476,3.529-3.679,4.067,3.679-2.056,3.476Z" transform="translate(-7.45 -5.458)" fill="#3ae3fe"/>
        <path id="Trazado_588385" data-name="Trazado 588385" d="M168.9,29.461s9.981-9.69,13.854-12.372c.585-.406,2.814-1.163,2.724.832s-2.887,3.729-4.644,5.448c1.616-.3,7.15,5.595,6.753,6.943s-10.2,7.625-10.2,7.625Z" transform="translate(-19.88 -1.954)" fill="#f29b89"/>
        <path id="Trazado_588386" data-name="Trazado 588386" d="M183.793,35.109a1.215,1.215,0,0,1-.749-.233c-.281-.215-.789-.854.006-2.387-1.251.517-1.883.282-2.2-.034a1.988,1.988,0,0,1-.129-2.1,1.809,1.809,0,0,1-2.093-.4c-.245-.311-.89-1.49,1.136-3.533a.2.2,0,1,1,.281.278c-1.428,1.441-1.507,2.5-1.1,3.01a1.606,1.606,0,0,0,2.086.056.2.2,0,0,1,.239.026.2.2,0,0,1,.039.236c-.478.9-.548,1.764-.173,2.141s1.2.272,2.314-.31a.2.2,0,0,1,.259.282c-.865,1.357-.784,2.137-.422,2.414a1.626,1.626,0,0,0,1.955-.577.2.2,0,0,1,.293.267,2.482,2.482,0,0,1-1.741.858" transform="translate(-20.99 -3.103)" fill="#222753"/>
        <path id="Trazado_588387" data-name="Trazado 588387" d="M172.721,27.157a.2.2,0,0,1-.117-.358,41.718,41.718,0,0,1,5.236-3.391l.288-.1c1.191-.439,2.316-.853,2.656.042.31.82-1.119,2.584-1.408,2.93a.2.2,0,0,1-.3-.255c.658-.785,1.509-2.091,1.341-2.535-.186-.492-.935-.258-2.147.19l-.289.106a43.009,43.009,0,0,0-5.138,3.337.2.2,0,0,1-.117.039" transform="translate(-20.306 -2.685)" fill="#222753"/>
        <path id="Trazado_588388" data-name="Trazado 588388" d="M181.424,30.1a.2.2,0,0,1-.1-.368c1.881-1.143,2.63-4.344,2.638-4.376a.2.2,0,1,1,.386.088c-.032.138-.792,3.4-2.818,4.627a.2.2,0,0,1-.1.029" transform="translate(-21.33 -2.966)" fill="#222753"/>
        <path id="Trazado_588389" data-name="Trazado 588389" d="M184.208,32.433a.2.2,0,0,1-.1-.368,7.916,7.916,0,0,0,3.054-3.908.2.2,0,0,1,.378.119,8.172,8.172,0,0,1-3.225,4.128.2.2,0,0,1-.1.028" transform="translate(-21.658 -3.298)" fill="#222753"/>
        <path id="Trazado_588390" data-name="Trazado 588390" d="M96.744,45.021c9.113,5.622,21.448,6.521,32.588,3.13A44.321,44.321,0,0,0,143.4,41.021c9.443-5.7,12.258-9.49,15.191-12.155,3.835,3.022,12.816,10.259,12.909,10.333-8.92,13.029-20.361,23.067-33.091,29.142a64.187,64.187,0,0,1-55.32.652Z" transform="translate(-9.78 -3.398)" fill="#222753"/>
        <path id="Trazado_588391" data-name="Trazado 588391" d="M95.676,60.656l-.4-.026a49.125,49.125,0,0,1,2.713-13.538l.369.146a48.72,48.72,0,0,0-2.686,13.417" transform="translate(-11.214 -5.543)" fill="#f2f2f2"/>
        <path id="Trazado_588392" data-name="Trazado 588392" d="M19.75,140.14s2.515,8.051,5.359,12.146c1.276,1.837,3.7,4.335,4.629,3.452a2.211,2.211,0,0,0,.472-1.4s2,1.692,2.694,1.137c.9-.717.527-2.242.527-2.242s1.756,1.026,2.189.571c.837-.881-.543-3.039-.543-3.039s1.489.742,2.029-.237c.316-.573-3.943-8.343-3.943-8.343s5.141,2.145,5.008.569-11.177-9.593-11.177-9.593Z" transform="translate(-2.325 -15.673)" fill="#f29b89"/>
        <path id="Trazado_588393" data-name="Trazado 588393" d="M30.91,156.62a.2.2,0,0,1-.123-.041c-.1-.076-2.371-1.853-2.584-2.035s-2.1-2.815-2.469-3.34a.2.2,0,1,1,.323-.23c.843,1.184,2.24,3.119,2.4,3.268.206.175,2.548,2,2.572,2.023a.2.2,0,0,1,.034.279.2.2,0,0,1-.156.076" transform="translate(-3.024 -17.76)" fill="#222753"/>
        <path id="Trazado_588394" data-name="Trazado 588394" d="M34.471,155.247a.2.2,0,0,1-.119-.04l-3.235-2.436a.191.191,0,0,1-.049-.051l-2.44-3.8a.2.2,0,0,1,.334-.214l2.421,3.771,3.207,2.415a.2.2,0,0,1,.04.278.2.2,0,0,1-.159.079" transform="translate(-3.366 -17.492)" fill="#222753"/>
        <path id="Trazado_588395" data-name="Trazado 588395" d="M36.465,152.54a.2.2,0,0,1-.141-.058l-2.4-2.419-2.334-3.172a.2.2,0,1,1,.319-.235l2.315,3.15,2.38,2.4a.2.2,0,0,1,0,.281.2.2,0,0,1-.139.056" transform="translate(-3.714 -17.252)" fill="#222753"/>
        <path id="Trazado_588396" data-name="Trazado 588396" d="M42.719,71.449c-12.656,7.634-18.6,14.822-20.407,22.987-2.141,9.692,1.553,19.847,6.791,30.678l-13.527,10.15C3.264,120.778-1.282,105.54.3,91.242,2.179,74.321,12.465,58.082,28.8,46.586Z" transform="translate(0 -5.483)" fill="#222753"/>
        <path id="Trazado_588397" data-name="Trazado 588397" d="M37.784,64.866c-.092-9.275-5.281-18.1-5.333-18.192l.341-.2c.053.089,5.3,9.01,5.389,18.391Z" transform="translate(-3.819 -5.47)" fill="#f2f2f2"/>
      </g>
    </g>
    <g id="Grupo_875560" data-name="Grupo 875560" transform="translate(1497.306 5227.415)">
      <text id="P_A" data-name="P = A" transform="translate(-6386.963 -13715.99)" fill="#12263f" font-size="20" font-family="Roboto-Bold, Roboto" font-weight="700"><tspan x="1.118" y="21">P = A</tspan></text>
      <text id="_1_i_n_-_1_i_1_I_n" data-name="(1 + i)n - 1     
i(1 + I)n" transform="translate(-6316.963 -13729.99)" fill="#12263f" font-size="20" font-family="Roboto-Bold, Roboto" font-weight="700"><tspan x="4.274" y="21">(1 + i)</tspan><tspan y="21" font-size="11.666" baseline-shift="6.666000209254424">n</tspan><tspan y="21" xml:space="preserve"> - 1     </tspan><tspan x="15.954" y="51">i(1 + I)</tspan><tspan y="51" font-size="11.666" baseline-shift="6.666000209254424">n</tspan></text>
      <path id="Trazado_585926" data-name="Trazado 585926" d="M-6338.762-12773.541h90.566" transform="translate(23 -925.955)" fill="none" stroke="#12263f" stroke-width="2"/>
    </g>
    <path id="Trazado_588593" data-name="Trazado 588593" d="M33.193-48.727H27.038V5.156h6.155v4.9H21.044v-63.68H33.193Z" transform="translate(-4854.194 -8450.551)" fill="#12263f"/>
    <path id="Trazado_588594" data-name="Trazado 588594" d="M.29-53.625H12.472v63.68H.29v-4.9H6.51V-48.727H.29Z" transform="translate(-4725.194 -8450.551)" fill="#12263f"/>
  </g>
</svg>
