<svg xmlns="http://www.w3.org/2000/svg" width="410.947" height="400.249" viewBox="0 0 410.947 400.249">
  <g id="Grupo_877125" data-name="Grupo 877125" transform="translate(-896.256 -149.036)">
    <path id="Trazado_262351" data-name="Trazado 262351" d="M-9552.136-13070.99a5.212,5.212,0,0,0-4.384,3.477,15.093,15.093,0,0,0-1.231,4.964s-.688.287-.978-.726.288-5.687-2.9-6.773-3.839-1.414-3.4-1.812,4.273-1.339,5-2.717a22.511,22.511,0,0,0,1.595-5.615c0-.652.978-1.232,1.123-.255s.616,5.508,2.21,6.558,3.912,1.269,4.166,1.7S-9551.3-13071.027-9552.136-13070.99Z" transform="translate(10858.086 13252.625)" fill="#fff"/>
    <path id="Trazado_588351" data-name="Trazado 588351" d="M-9552.136-13070.99a5.212,5.212,0,0,0-4.384,3.477,15.093,15.093,0,0,0-1.231,4.964s-.688.287-.978-.726.288-5.687-2.9-6.773-3.839-1.414-3.4-1.812,4.273-1.339,5-2.717a22.511,22.511,0,0,0,1.595-5.615c0-.652.978-1.232,1.123-.255s.616,5.508,2.21,6.558,3.912,1.269,4.166,1.7S-9551.3-13071.027-9552.136-13070.99Z" transform="translate(10621.086 13611.798)" fill="#fff"/>
    <path id="Trazado_262350" data-name="Trazado 262350" d="M-9549.2-13068.74a6.387,6.387,0,0,0-5.372,4.261,18.5,18.5,0,0,0-1.509,6.084s-.845.352-1.2-.89.354-6.969-3.554-8.3-4.7-1.733-4.172-2.221,5.237-1.642,6.126-3.329a27.606,27.606,0,0,0,1.954-6.882c0-.8,1.2-1.512,1.377-.312s.754,6.75,2.708,8.037,4.795,1.554,5.106,2.087S-9548.18-13068.785-9549.2-13068.74Z" transform="translate(10649.455 13230.006)" fill="#fcc15a"/>
    <path id="Trazado_262349" data-name="Trazado 262349" d="M-9546.745-13066.858a7.372,7.372,0,0,0-6.2,4.916,21.34,21.34,0,0,0-1.741,7.02s-.974.406-1.383-1.026.408-8.041-4.1-9.578-5.429-2-4.814-2.562,6.043-1.894,7.068-3.842a31.856,31.856,0,0,0,2.255-7.94c0-.923,1.383-1.743,1.588-.36s.871,7.789,3.125,9.273,5.532,1.794,5.892,2.408S-9545.567-13066.91-9546.745-13066.858Z" transform="translate(10461.409 13462.712)" fill="#fcc15a"/>
  </g>
</svg>
