<svg xmlns="http://www.w3.org/2000/svg" width="51.536" height="51.729" viewBox="0 0 51.536 51.729">
  <path id="Trazado_262348" data-name="Trazado 262348" d="M52.429,7.511a1.01,1.01,0,0,0-.872-.656l-5.508-.412L45.637.936A1.01,1.01,0,0,0,43.915.3l-4.4,4.4a4.056,4.056,0,0,0-1.189,2.729q0,.027,0,.055l.06,3.373a23.016,23.016,0,1,0,3.294,3.26l3.334.054h.053a4.057,4.057,0,0,0,2.729-1.189l4.4-4.4a1.01,1.01,0,0,0,.233-1.066ZM40.941,6.128l2.845-2.845L44.065,7,40.4,10.669l-.057-3.192A2.042,2.042,0,0,1,40.941,6.128ZM23.948,49.709A20.97,20.97,0,1,1,37.94,13.132l-2.34,2.34a17.65,17.65,0,0,0-17.64-3.354,1.01,1.01,0,0,0,.687,1.9A15.632,15.632,0,0,1,34.169,16.9l-2.344,2.344a12.337,12.337,0,1,0-2.27,20.483,1.01,1.01,0,1,0-.921-1.8,10.186,10.186,0,0,1-4.686,1.127,10.319,10.319,0,1,1,6.441-18.375L28.032,23.04a7.023,7.023,0,1,0,1.456,1.4l2.348-2.348a10.309,10.309,0,0,1,1.909,9.891,1.01,1.01,0,0,0,1.918.637,12.33,12.33,0,0,0-2.393-11.961l2.341-2.34a15.645,15.645,0,1,1-24.3,1.212,1.01,1.01,0,0,0-1.632-1.192A17.667,17.667,0,1,0,37.04,16.89l2.338-2.338a20.959,20.959,0,0,1-15.43,35.157Zm4.994-20.97A5,5,0,1,1,26.577,24.5l-3.223,3.222a1.01,1.01,0,1,0,1.429,1.429l3.261-3.261A4.965,4.965,0,0,1,28.942,28.739ZM46.365,11.551a2.043,2.043,0,0,1-1.35.6L41.833,12.1l1.941-1.941c.022-.022.042-.044.061-.067l1.659-1.661,3.716.278Z" transform="translate(-0.956 -0.001)" fill="#fff"/>
</svg>
