<svg xmlns="http://www.w3.org/2000/svg" xmlns:xlink="http://www.w3.org/1999/xlink" width="715" height="402" viewBox="0 0 715 402">
  <defs>
    <clipPath id="clip-path">
      <rect id="Rectángulo_296854" data-name="Rectángulo 296854" width="167.731" height="257.212" fill="none"/>
    </clipPath>
  </defs>
  <g id="Grupo_877113" data-name="Grupo 877113" transform="translate(5218 10209)">
    <path id="Trazado_588517" data-name="Trazado 588517" d="M17,0H698a17,17,0,0,1,17,17V385a17,17,0,0,1-17,17H17A17,17,0,0,1,0,385V17A17,17,0,0,1,17,0Z" transform="translate(-5218 -10209)" fill="#fff"/>
    <path id="Trazado_588518" data-name="Trazado 588518" d="M5,0H447a5,5,0,0,1,5,5V276a5,5,0,0,1-5,5H5a5,5,0,0,1-5-5V5A5,5,0,0,1,5,0Z" transform="translate(-5032 -10163)" fill="#f6f6f6"/>
    <path id="Trazado_588519" data-name="Trazado 588519" d="M0,0H236V98.5H0Z" transform="translate(-4918.5 -10022.5)" fill="#fcc15a"/>
    <path id="Trazado_588520" data-name="Trazado 588520" d="M39.277,15.99V21h-2.93V6.781h5.547a6.417,6.417,0,0,1,2.817.586,4.318,4.318,0,0,1,1.87,1.665,4.643,4.643,0,0,1,.654,2.456,4.083,4.083,0,0,1-1.431,3.3,5.959,5.959,0,0,1-3.96,1.206Zm0-2.373h2.617a2.573,2.573,0,0,0,1.772-.547,1.989,1.989,0,0,0,.61-1.562,2.345,2.345,0,0,0-.615-1.689,2.3,2.3,0,0,0-1.7-.664H39.277Zm9.922,6a1.421,1.421,0,0,1,.454-1.094,1.764,1.764,0,0,1,2.285,0,1.421,1.421,0,0,1,.454,1.094,1.4,1.4,0,0,1-.449,1.079,1.794,1.794,0,0,1-2.295,0A1.4,1.4,0,0,1,49.2,19.613Zm0-8a1.421,1.421,0,0,1,.454-1.094,1.764,1.764,0,0,1,2.285,0,1.421,1.421,0,0,1,.454,1.094,1.4,1.4,0,0,1-.449,1.079,1.794,1.794,0,0,1-2.295,0A1.4,1.4,0,0,1,49.2,11.615Zm14.258,6.934,2.617-8.115H67.92L64.131,21H62.754L58.926,10.434h1.846ZM76.035,21a3.8,3.8,0,0,1-.254-1.113A4.031,4.031,0,0,1,72.773,21.2a3.73,3.73,0,0,1-2.563-.884,2.859,2.859,0,0,1-1-2.241,2.987,2.987,0,0,1,1.255-2.563,5.916,5.916,0,0,1,3.53-.913h1.758v-.83a2.029,2.029,0,0,0-.566-1.509,2.276,2.276,0,0,0-1.67-.562,2.634,2.634,0,0,0-1.621.488,1.439,1.439,0,0,0-.654,1.182H69.424a2.493,2.493,0,0,1,.562-1.528,3.832,3.832,0,0,1,1.523-1.167,5.125,5.125,0,0,1,2.114-.43,4.177,4.177,0,0,1,2.861.913,3.294,3.294,0,0,1,1.074,2.515v4.863a5.946,5.946,0,0,0,.371,2.314V21Zm-3-1.377a3.175,3.175,0,0,0,1.611-.439,2.658,2.658,0,0,0,1.1-1.143V15.873H74.336q-3.32,0-3.32,1.943a1.645,1.645,0,0,0,.566,1.328A2.177,2.177,0,0,0,73.037,19.623ZM82.354,21H80.547V6h1.807Zm2.412-5.381a6.241,6.241,0,0,1,.61-2.793,4.553,4.553,0,0,1,1.7-1.914,4.626,4.626,0,0,1,2.485-.674,4.456,4.456,0,0,1,3.491,1.494,5.748,5.748,0,0,1,1.333,3.975v.127a6.3,6.3,0,0,1-.591,2.769A4.486,4.486,0,0,1,92.1,20.512a4.679,4.679,0,0,1-2.524.684A4.445,4.445,0,0,1,86.1,19.7a5.719,5.719,0,0,1-1.333-3.955Zm1.816.215a4.52,4.52,0,0,0,.815,2.822,2.763,2.763,0,0,0,4.37-.015,4.943,4.943,0,0,0,.811-3.022,4.513,4.513,0,0,0-.825-2.817,2.623,2.623,0,0,0-2.192-1.079A2.594,2.594,0,0,0,87.4,12.787,4.906,4.906,0,0,0,86.582,15.834Zm15.176-3.779a5.414,5.414,0,0,0-.889-.068A2.381,2.381,0,0,0,98.457,13.5V21H96.65V10.434h1.758l.029,1.221a2.813,2.813,0,0,1,2.52-1.416,1.846,1.846,0,0,1,.8.137Zm15.537,3.779a6.327,6.327,0,0,1-1.1,3.887A3.537,3.537,0,0,1,113.2,21.2a3.875,3.875,0,0,1-3.027-1.221v5.088h-1.807V10.434h1.65l.088,1.172a3.722,3.722,0,0,1,3.066-1.367,3.6,3.6,0,0,1,3.013,1.436,6.4,6.4,0,0,1,1.108,3.994Zm-1.807-.205a4.669,4.669,0,0,0-.762-2.822,2.454,2.454,0,0,0-2.09-1.035,2.656,2.656,0,0,0-2.461,1.455v5.049a2.661,2.661,0,0,0,2.48,1.445,2.442,2.442,0,0,0,2.065-1.03A5.1,5.1,0,0,0,115.488,15.629Zm9.209-3.574a5.414,5.414,0,0,0-.889-.068A2.381,2.381,0,0,0,121.4,13.5V21H119.59V10.434h1.758l.029,1.221a2.813,2.813,0,0,1,2.52-1.416,1.846,1.846,0,0,1,.8.137Zm6.045,9.141a4.617,4.617,0,0,1-3.5-1.411A5.237,5.237,0,0,1,125.9,16.01v-.332a6.341,6.341,0,0,1,.6-2.808,4.685,4.685,0,0,1,1.68-1.934,4.223,4.223,0,0,1,2.339-.7,3.957,3.957,0,0,1,3.2,1.357,5.877,5.877,0,0,1,1.143,3.887v.752h-7.158a3.756,3.756,0,0,0,.913,2.524,2.87,2.87,0,0,0,2.222.962,3.147,3.147,0,0,0,1.621-.391,4.073,4.073,0,0,0,1.162-1.035l1.1.859A4.437,4.437,0,0,1,130.742,21.2Zm-.225-9.473a2.41,2.41,0,0,0-1.836.8,3.868,3.868,0,0,0-.918,2.231h5.293v-.137a3.441,3.441,0,0,0-.742-2.134A2.269,2.269,0,0,0,130.518,11.723ZM143.105,18.2a1.33,1.33,0,0,0-.552-1.138,5.311,5.311,0,0,0-1.924-.7,9.1,9.1,0,0,1-2.178-.7,3.1,3.1,0,0,1-1.191-.977,2.336,2.336,0,0,1-.386-1.348,2.741,2.741,0,0,1,1.1-2.2,4.291,4.291,0,0,1,2.808-.9,4.415,4.415,0,0,1,2.915.928,2.947,2.947,0,0,1,1.118,2.373H143a1.631,1.631,0,0,0-.63-1.279,2.36,2.36,0,0,0-1.587-.537,2.47,2.47,0,0,0-1.543.43,1.353,1.353,0,0,0-.557,1.123,1.1,1.1,0,0,0,.518.986,6.368,6.368,0,0,0,1.87.635,9.744,9.744,0,0,1,2.192.723,3.2,3.2,0,0,1,1.245,1.011,2.485,2.485,0,0,1,.405,1.44,2.7,2.7,0,0,1-1.133,2.271,4.752,4.752,0,0,1-2.939.854,5.321,5.321,0,0,1-2.246-.449,3.653,3.653,0,0,1-1.528-1.255,3.025,3.025,0,0,1-.552-1.743h1.807a1.87,1.87,0,0,0,.728,1.44,2.822,2.822,0,0,0,1.792.532,2.913,2.913,0,0,0,1.646-.415A1.275,1.275,0,0,0,143.105,18.2Zm8.545,3a4.617,4.617,0,0,1-3.5-1.411,5.237,5.237,0,0,1-1.348-3.774v-.332a6.341,6.341,0,0,1,.6-2.808,4.685,4.685,0,0,1,1.68-1.934,4.223,4.223,0,0,1,2.339-.7,3.957,3.957,0,0,1,3.2,1.357,5.877,5.877,0,0,1,1.143,3.887v.752h-7.158a3.756,3.756,0,0,0,.913,2.524,2.87,2.87,0,0,0,2.222.962,3.147,3.147,0,0,0,1.621-.391,4.073,4.073,0,0,0,1.162-1.035l1.1.859A4.437,4.437,0,0,1,151.65,21.2Zm-.225-9.473a2.41,2.41,0,0,0-1.836.8,3.868,3.868,0,0,0-.918,2.231h5.293v-.137a3.441,3.441,0,0,0-.742-2.134A2.269,2.269,0,0,0,151.426,11.723Zm8.145-1.289.059,1.328a3.851,3.851,0,0,1,3.164-1.523q3.35,0,3.379,3.779V21h-1.807V14.008a2.433,2.433,0,0,0-.522-1.689,2.094,2.094,0,0,0-1.6-.547,2.607,2.607,0,0,0-1.543.469,3.183,3.183,0,0,0-1.035,1.23V21h-1.807V10.434Zm11.777-2.559v2.559h1.973v1.4h-1.973v6.561a1.467,1.467,0,0,0,.264.953,1.11,1.11,0,0,0,.9.318,4.374,4.374,0,0,0,.859-.117V21a5.268,5.268,0,0,1-1.387.194,2.25,2.25,0,0,1-1.826-.732,3.147,3.147,0,0,1-.615-2.08V11.83h-1.924v-1.4h1.924V7.875Zm8.467,13.32a4.617,4.617,0,0,1-3.5-1.411,5.237,5.237,0,0,1-1.348-3.774v-.332a6.341,6.341,0,0,1,.6-2.808,4.685,4.685,0,0,1,1.68-1.934,4.223,4.223,0,0,1,2.339-.7,3.957,3.957,0,0,1,3.2,1.357,5.877,5.877,0,0,1,1.143,3.887v.752h-7.158a3.756,3.756,0,0,0,.913,2.524,2.87,2.87,0,0,0,2.222.962,3.147,3.147,0,0,0,1.621-.391,4.073,4.073,0,0,0,1.162-1.035l1.1.859A4.437,4.437,0,0,1,179.814,21.2Zm-.225-9.473a2.41,2.41,0,0,0-1.836.8,3.868,3.868,0,0,0-.918,2.231h5.293v-.137a3.441,3.441,0,0,0-.742-2.134A2.269,2.269,0,0,0,179.59,11.723Zm6.475,8.33a1.131,1.131,0,0,1,.278-.781,1.061,1.061,0,0,1,.835-.312,1.092,1.092,0,0,1,.845.313,1.109,1.109,0,0,1,.288.781,1.048,1.048,0,0,1-.288.752,1.112,1.112,0,0,1-.845.3,1,1,0,0,1-1.113-1.055ZM40.43,51H37.6V40.434H40.43Zm-3-13.3a1.39,1.39,0,0,1,.425-1.045,1.831,1.831,0,0,1,2.31,0,1.491,1.491,0,0,1,0,2.1,1.81,1.81,0,0,1-2.295,0A1.386,1.386,0,0,1,37.432,37.7Zm5.459,11.914a1.421,1.421,0,0,1,.454-1.094,1.764,1.764,0,0,1,2.285,0,1.421,1.421,0,0,1,.454,1.094,1.4,1.4,0,0,1-.449,1.079,1.794,1.794,0,0,1-2.295,0A1.4,1.4,0,0,1,42.891,49.613Zm0-8a1.421,1.421,0,0,1,.454-1.094,1.764,1.764,0,0,1,2.285,0,1.421,1.421,0,0,1,.454,1.094,1.4,1.4,0,0,1-.449,1.079,1.794,1.794,0,0,1-2.295,0A1.4,1.4,0,0,1,42.891,41.615Zm13.223-3.74v2.559h1.973v1.4H56.113v6.561a1.467,1.467,0,0,0,.264.953,1.11,1.11,0,0,0,.9.318,4.374,4.374,0,0,0,.859-.117V51a5.268,5.268,0,0,1-1.387.194,2.25,2.25,0,0,1-1.826-.732,3.147,3.147,0,0,1-.615-2.08V41.83H52.383v-1.4h1.924V37.875ZM66.719,51a3.8,3.8,0,0,1-.254-1.113A4.031,4.031,0,0,1,63.457,51.2a3.73,3.73,0,0,1-2.563-.884,2.859,2.859,0,0,1-1-2.241,2.987,2.987,0,0,1,1.255-2.563,5.916,5.916,0,0,1,3.53-.913h1.758v-.83a2.029,2.029,0,0,0-.566-1.509,2.276,2.276,0,0,0-1.67-.562,2.634,2.634,0,0,0-1.621.488,1.439,1.439,0,0,0-.654,1.182H60.107a2.493,2.493,0,0,1,.562-1.528,3.832,3.832,0,0,1,1.523-1.167,5.125,5.125,0,0,1,2.114-.43,4.177,4.177,0,0,1,2.861.913,3.294,3.294,0,0,1,1.074,2.515v4.863a5.946,5.946,0,0,0,.371,2.314V51Zm-3-1.377a3.175,3.175,0,0,0,1.611-.439,2.658,2.658,0,0,0,1.1-1.143V45.873H65.02q-3.32,0-3.32,1.943a1.645,1.645,0,0,0,.566,1.328A2.177,2.177,0,0,0,63.721,49.623ZM77.227,48.2a1.33,1.33,0,0,0-.552-1.138,5.311,5.311,0,0,0-1.924-.7,9.1,9.1,0,0,1-2.178-.7,3.1,3.1,0,0,1-1.191-.977A2.336,2.336,0,0,1,71,43.334a2.741,2.741,0,0,1,1.1-2.2,4.291,4.291,0,0,1,2.808-.9,4.415,4.415,0,0,1,2.915.928,2.947,2.947,0,0,1,1.118,2.373H77.119a1.631,1.631,0,0,0-.63-1.279,2.36,2.36,0,0,0-1.587-.537,2.47,2.47,0,0,0-1.543.43,1.353,1.353,0,0,0-.557,1.123,1.1,1.1,0,0,0,.518.986,6.368,6.368,0,0,0,1.87.635,9.744,9.744,0,0,1,2.192.723,3.2,3.2,0,0,1,1.245,1.011,2.485,2.485,0,0,1,.405,1.44A2.7,2.7,0,0,1,77.9,50.341a4.752,4.752,0,0,1-2.939.854,5.321,5.321,0,0,1-2.246-.449,3.653,3.653,0,0,1-1.528-1.255,3.025,3.025,0,0,1-.552-1.743h1.807a1.87,1.87,0,0,0,.728,1.44,2.822,2.822,0,0,0,1.792.532,2.913,2.913,0,0,0,1.646-.415A1.275,1.275,0,0,0,77.227,48.2ZM87.91,51a3.8,3.8,0,0,1-.254-1.113A4.031,4.031,0,0,1,84.648,51.2a3.73,3.73,0,0,1-2.563-.884,2.859,2.859,0,0,1-1-2.241,2.987,2.987,0,0,1,1.255-2.563,5.916,5.916,0,0,1,3.53-.913h1.758v-.83a2.029,2.029,0,0,0-.566-1.509,2.276,2.276,0,0,0-1.67-.562,2.634,2.634,0,0,0-1.621.488,1.439,1.439,0,0,0-.654,1.182H81.3a2.493,2.493,0,0,1,.562-1.528,3.832,3.832,0,0,1,1.523-1.167,5.125,5.125,0,0,1,2.114-.43,4.177,4.177,0,0,1,2.861.913,3.294,3.294,0,0,1,1.074,2.515v4.863a5.946,5.946,0,0,0,.371,2.314V51Zm-3-1.377a3.175,3.175,0,0,0,1.611-.439,2.658,2.658,0,0,0,1.1-1.143V45.873H86.211q-3.32,0-3.32,1.943a1.645,1.645,0,0,0,.566,1.328A2.177,2.177,0,0,0,84.912,49.623Zm11.865-3.994a6.19,6.19,0,0,1,1.152-3.911,3.921,3.921,0,0,1,5.957-.21V36h1.807V51h-1.66l-.088-1.133a3.679,3.679,0,0,1-3.018,1.328,3.609,3.609,0,0,1-2.993-1.5,6.26,6.26,0,0,1-1.157-3.926Zm1.807.205a4.687,4.687,0,0,0,.742,2.813,2.4,2.4,0,0,0,2.051,1.016,2.636,2.636,0,0,0,2.51-1.543V43.266a2.656,2.656,0,0,0-2.49-1.494,2.411,2.411,0,0,0-2.07,1.025A5.16,5.16,0,0,0,98.584,45.834Zm14.3,5.361a4.617,4.617,0,0,1-3.5-1.411,5.237,5.237,0,0,1-1.348-3.774v-.332a6.341,6.341,0,0,1,.6-2.808,4.685,4.685,0,0,1,1.68-1.934,4.223,4.223,0,0,1,2.339-.7,3.957,3.957,0,0,1,3.2,1.357A5.877,5.877,0,0,1,117,45.482v.752h-7.158a3.756,3.756,0,0,0,.913,2.524,2.87,2.87,0,0,0,2.222.962,3.147,3.147,0,0,0,1.621-.391,4.073,4.073,0,0,0,1.162-1.035l1.1.859A4.437,4.437,0,0,1,112.881,51.2Zm-.225-9.473a2.41,2.41,0,0,0-1.836.8,3.869,3.869,0,0,0-.918,2.231H115.2v-.137a3.441,3.441,0,0,0-.742-2.134A2.269,2.269,0,0,0,112.656,41.723ZM126.006,51H124.2V40.434h1.807Zm-1.953-13.369a1.078,1.078,0,0,1,.269-.742,1.008,1.008,0,0,1,.8-.3,1.024,1.024,0,0,1,.8.3,1.067,1.067,0,0,1,.273.742,1.032,1.032,0,0,1-.273.732,1.043,1.043,0,0,1-.8.293,1.026,1.026,0,0,1-.8-.293A1.043,1.043,0,0,1,124.053,37.631Zm6.553,2.8.059,1.328a3.851,3.851,0,0,1,3.164-1.523q3.35,0,3.379,3.779V51H135.4V44.008a2.433,2.433,0,0,0-.522-1.689,2.094,2.094,0,0,0-1.6-.547,2.607,2.607,0,0,0-1.543.469,3.183,3.183,0,0,0-1.035,1.23V51H128.9V40.434Zm11.777-2.559v2.559h1.973v1.4h-1.973v6.561a1.467,1.467,0,0,0,.264.953,1.11,1.11,0,0,0,.9.318,4.374,4.374,0,0,0,.859-.117V51a5.268,5.268,0,0,1-1.387.194,2.25,2.25,0,0,1-1.826-.732,3.147,3.147,0,0,1-.615-2.08V41.83h-1.924v-1.4h1.924V37.875ZM150.85,51.2a4.617,4.617,0,0,1-3.5-1.411,5.237,5.237,0,0,1-1.348-3.774v-.332a6.341,6.341,0,0,1,.6-2.808,4.685,4.685,0,0,1,1.68-1.934,4.223,4.223,0,0,1,2.339-.7,3.957,3.957,0,0,1,3.2,1.357,5.877,5.877,0,0,1,1.143,3.887v.752h-7.158a3.756,3.756,0,0,0,.913,2.524,2.87,2.87,0,0,0,2.222.962,3.147,3.147,0,0,0,1.621-.391,4.073,4.073,0,0,0,1.162-1.035l1.1.859A4.437,4.437,0,0,1,150.85,51.2Zm-.225-9.473a2.41,2.41,0,0,0-1.836.8,3.868,3.868,0,0,0-.918,2.231h5.293v-.137a3.441,3.441,0,0,0-.742-2.134A2.269,2.269,0,0,0,150.625,41.723Zm11.543.332a5.414,5.414,0,0,0-.889-.068,2.381,2.381,0,0,0-2.412,1.514V51h-1.807V40.434h1.758l.029,1.221a2.813,2.813,0,0,1,2.52-1.416,1.846,1.846,0,0,1,.8.137Zm6.045,9.141a4.617,4.617,0,0,1-3.5-1.411,5.237,5.237,0,0,1-1.348-3.774v-.332a6.341,6.341,0,0,1,.6-2.808,4.685,4.685,0,0,1,1.68-1.934,4.223,4.223,0,0,1,2.339-.7,3.957,3.957,0,0,1,3.2,1.357,5.877,5.877,0,0,1,1.143,3.887v.752h-7.158a3.756,3.756,0,0,0,.913,2.524,2.87,2.87,0,0,0,2.222.962,3.147,3.147,0,0,0,1.621-.391,4.073,4.073,0,0,0,1.162-1.035l1.1.859A4.437,4.437,0,0,1,168.213,51.2Zm-.225-9.473a2.41,2.41,0,0,0-1.836.8,3.868,3.868,0,0,0-.918,2.231h5.293v-.137a3.441,3.441,0,0,0-.742-2.134A2.269,2.269,0,0,0,167.988,41.723ZM168.867,36h2.188l-2.617,2.871-1.455,0Zm11.709,12.2a1.33,1.33,0,0,0-.552-1.138,5.311,5.311,0,0,0-1.924-.7,9.1,9.1,0,0,1-2.178-.7,3.1,3.1,0,0,1-1.191-.977,2.336,2.336,0,0,1-.386-1.348,2.741,2.741,0,0,1,1.1-2.2,4.291,4.291,0,0,1,2.808-.9,4.415,4.415,0,0,1,2.915.928,2.947,2.947,0,0,1,1.118,2.373h-1.816a1.631,1.631,0,0,0-.63-1.279,2.36,2.36,0,0,0-1.587-.537,2.47,2.47,0,0,0-1.543.43,1.353,1.353,0,0,0-.557,1.123,1.1,1.1,0,0,0,.518.986,6.368,6.368,0,0,0,1.87.635,9.744,9.744,0,0,1,2.192.723,3.2,3.2,0,0,1,1.245,1.011,2.485,2.485,0,0,1,.405,1.44,2.7,2.7,0,0,1-1.133,2.271,4.752,4.752,0,0,1-2.939.854,5.321,5.321,0,0,1-2.246-.449,3.653,3.653,0,0,1-1.528-1.255,3.025,3.025,0,0,1-.552-1.743h1.807a1.87,1.87,0,0,0,.728,1.44,2.822,2.822,0,0,0,1.792.532,2.913,2.913,0,0,0,1.646-.415A1.275,1.275,0,0,0,180.576,48.2Zm4.2,1.855a1.131,1.131,0,0,1,.278-.781,1.061,1.061,0,0,1,.835-.312,1.092,1.092,0,0,1,.845.313,1.109,1.109,0,0,1,.288.781,1.048,1.048,0,0,1-.288.752,1.112,1.112,0,0,1-.845.3,1,1,0,0,1-1.113-1.055ZM13.7,70.434l.088,1.221a3.689,3.689,0,0,1,3.037-1.416,3.066,3.066,0,0,1,2.5.986,4.6,4.6,0,0,1,.84,2.949V81H17.344V74.242a1.831,1.831,0,0,0-.391-1.3,1.749,1.749,0,0,0-1.3-.405,1.942,1.942,0,0,0-1.787,1.016V81H11.045V70.434Zm8.74,9.18A1.421,1.421,0,0,1,22.9,78.52a1.764,1.764,0,0,1,2.285,0,1.421,1.421,0,0,1,.454,1.094,1.4,1.4,0,0,1-.449,1.079,1.794,1.794,0,0,1-2.295,0A1.4,1.4,0,0,1,22.441,79.613Zm0-8a1.421,1.421,0,0,1,.454-1.094,1.764,1.764,0,0,1,2.285,0,1.421,1.421,0,0,1,.454,1.094,1.4,1.4,0,0,1-.449,1.079,1.794,1.794,0,0,1-2.295,0A1.4,1.4,0,0,1,22.441,71.615Zm12.48-1.182.059,1.328a3.851,3.851,0,0,1,3.164-1.523q3.35,0,3.379,3.779V81H39.717V74.008a2.432,2.432,0,0,0-.522-1.689,2.094,2.094,0,0,0-1.6-.547,2.607,2.607,0,0,0-1.543.469,3.183,3.183,0,0,0-1.035,1.23V81H33.213V70.434Zm15.85,9.521a3.837,3.837,0,0,1-3.1,1.24,3.285,3.285,0,0,1-2.573-.981,4.248,4.248,0,0,1-.894-2.905V70.434h1.807V77.26q0,2.4,1.953,2.4a2.7,2.7,0,0,0,2.754-1.543V70.434h1.807V81H50.811ZM49.307,66h2.188l-2.617,2.871-1.455,0Zm7.666,4.434.049,1.172a3.9,3.9,0,0,1,3.135-1.367,3.021,3.021,0,0,1,3.018,1.7,4,4,0,0,1,1.372-1.23,4.052,4.052,0,0,1,2-.469q3.477,0,3.535,3.682V81H68.271V74.027a2.426,2.426,0,0,0-.518-1.694,2.279,2.279,0,0,0-1.738-.562,2.4,2.4,0,0,0-1.67.6,2.436,2.436,0,0,0-.771,1.616V81H61.758V74.076a2.016,2.016,0,0,0-2.256-2.3,2.417,2.417,0,0,0-2.432,1.514V81H55.264V70.434ZM77.188,81.2a4.617,4.617,0,0,1-3.5-1.411,5.237,5.237,0,0,1-1.348-3.774v-.332a6.341,6.341,0,0,1,.6-2.808,4.685,4.685,0,0,1,1.68-1.934,4.223,4.223,0,0,1,2.339-.7,3.957,3.957,0,0,1,3.2,1.357,5.877,5.877,0,0,1,1.143,3.887v.752H74.15a3.756,3.756,0,0,0,.913,2.524,2.87,2.87,0,0,0,2.222.962,3.147,3.147,0,0,0,1.621-.391,4.073,4.073,0,0,0,1.162-1.035l1.1.859A4.437,4.437,0,0,1,77.188,81.2Zm-.225-9.473a2.41,2.41,0,0,0-1.836.8,3.869,3.869,0,0,0-.918,2.231H79.5v-.137a3.441,3.441,0,0,0-.742-2.134A2.269,2.269,0,0,0,76.963,71.723Zm11.543.332a5.414,5.414,0,0,0-.889-.068A2.381,2.381,0,0,0,85.205,73.5V81H83.4V70.434h1.758l.029,1.221a2.813,2.813,0,0,1,2.52-1.416,1.846,1.846,0,0,1,.8.137Zm.986,3.564a6.241,6.241,0,0,1,.61-2.793,4.553,4.553,0,0,1,1.7-1.914,4.626,4.626,0,0,1,2.485-.674,4.456,4.456,0,0,1,3.491,1.494,5.748,5.748,0,0,1,1.333,3.975v.127a6.3,6.3,0,0,1-.591,2.769,4.486,4.486,0,0,1-1.689,1.909,4.679,4.679,0,0,1-2.524.684A4.445,4.445,0,0,1,90.825,79.7a5.719,5.719,0,0,1-1.333-3.955Zm1.816.215a4.52,4.52,0,0,0,.815,2.822,2.763,2.763,0,0,0,4.37-.015,4.943,4.943,0,0,0,.811-3.022,4.513,4.513,0,0,0-.825-2.817,2.623,2.623,0,0,0-2.192-1.079,2.594,2.594,0,0,0-2.158,1.064A4.906,4.906,0,0,0,91.309,75.834Zm14.58-.205a6.19,6.19,0,0,1,1.152-3.911,3.921,3.921,0,0,1,5.957-.21V66H114.8V81h-1.66l-.088-1.133a3.679,3.679,0,0,1-3.018,1.328,3.609,3.609,0,0,1-2.993-1.5,6.26,6.26,0,0,1-1.157-3.926Zm1.807.205a4.687,4.687,0,0,0,.742,2.813,2.4,2.4,0,0,0,2.051,1.016A2.636,2.636,0,0,0,113,78.119V73.266a2.656,2.656,0,0,0-2.49-1.494,2.411,2.411,0,0,0-2.07,1.025A5.16,5.16,0,0,0,107.7,75.834Zm14.3,5.361a4.617,4.617,0,0,1-3.5-1.411,5.237,5.237,0,0,1-1.348-3.774v-.332a6.341,6.341,0,0,1,.6-2.808,4.685,4.685,0,0,1,1.68-1.934,4.223,4.223,0,0,1,2.339-.7,3.957,3.957,0,0,1,3.2,1.357,5.877,5.877,0,0,1,1.143,3.887v.752h-7.158a3.756,3.756,0,0,0,.913,2.524,2.87,2.87,0,0,0,2.222.962,3.147,3.147,0,0,0,1.621-.391,4.073,4.073,0,0,0,1.162-1.035l1.1.859A4.437,4.437,0,0,1,121.992,81.2Zm-.225-9.473a2.41,2.41,0,0,0-1.836.8,3.869,3.869,0,0,0-.918,2.231h5.293v-.137a3.441,3.441,0,0,0-.742-2.134A2.269,2.269,0,0,0,121.768,71.723Zm20.313,4.111a6.327,6.327,0,0,1-1.1,3.887,3.537,3.537,0,0,1-2.988,1.475,3.875,3.875,0,0,1-3.027-1.221v5.088h-1.807V70.434h1.65l.088,1.172a3.722,3.722,0,0,1,3.066-1.367,3.6,3.6,0,0,1,3.013,1.436,6.4,6.4,0,0,1,1.108,3.994Zm-1.807-.205a4.669,4.669,0,0,0-.762-2.822,2.454,2.454,0,0,0-2.09-1.035,2.656,2.656,0,0,0-2.461,1.455v5.049a2.661,2.661,0,0,0,2.48,1.445,2.442,2.442,0,0,0,2.065-1.03A5.1,5.1,0,0,0,140.273,75.629ZM148.76,81.2a4.617,4.617,0,0,1-3.5-1.411,5.237,5.237,0,0,1-1.348-3.774v-.332a6.341,6.341,0,0,1,.6-2.808,4.685,4.685,0,0,1,1.68-1.934,4.223,4.223,0,0,1,2.339-.7,3.957,3.957,0,0,1,3.2,1.357,5.877,5.877,0,0,1,1.143,3.887v.752h-7.158a3.756,3.756,0,0,0,.913,2.524,2.87,2.87,0,0,0,2.222.962,3.147,3.147,0,0,0,1.621-.391,4.073,4.073,0,0,0,1.162-1.035l1.1.859A4.437,4.437,0,0,1,148.76,81.2Zm-.225-9.473a2.41,2.41,0,0,0-1.836.8,3.868,3.868,0,0,0-.918,2.231h5.293v-.137a3.441,3.441,0,0,0-.742-2.134A2.269,2.269,0,0,0,148.535,71.723Zm11.543.332a5.414,5.414,0,0,0-.889-.068,2.381,2.381,0,0,0-2.412,1.514V81h-1.807V70.434h1.758l.029,1.221a2.813,2.813,0,0,1,2.52-1.416,1.846,1.846,0,0,1,.8.137ZM163.7,81h-1.816V70.434H163.7Zm.02-14.99h2.188l-2.617,2.871-1.455,0Zm2.48,9.609a6.241,6.241,0,0,1,.61-2.793,4.553,4.553,0,0,1,1.7-1.914A4.626,4.626,0,0,1,171,70.238a4.456,4.456,0,0,1,3.491,1.494,5.748,5.748,0,0,1,1.333,3.975v.127a6.3,6.3,0,0,1-.591,2.769,4.486,4.486,0,0,1-1.689,1.909,4.679,4.679,0,0,1-2.524.684,4.445,4.445,0,0,1-3.481-1.494,5.719,5.719,0,0,1-1.333-3.955Zm1.816.215a4.52,4.52,0,0,0,.815,2.822,2.763,2.763,0,0,0,4.37-.015,4.943,4.943,0,0,0,.811-3.022,4.513,4.513,0,0,0-.825-2.817A2.623,2.623,0,0,0,171,71.723a2.594,2.594,0,0,0-2.158,1.064A4.906,4.906,0,0,0,168.018,75.834Zm9.629-.205a6.19,6.19,0,0,1,1.152-3.911,3.921,3.921,0,0,1,5.957-.21V66h1.807V81H184.9l-.088-1.133A3.679,3.679,0,0,1,181.8,81.2a3.609,3.609,0,0,1-2.993-1.5,6.26,6.26,0,0,1-1.157-3.926Zm1.807.205a4.687,4.687,0,0,0,.742,2.813,2.4,2.4,0,0,0,2.051,1.016,2.636,2.636,0,0,0,2.51-1.543V73.266a2.656,2.656,0,0,0-2.49-1.494A2.411,2.411,0,0,0,180.2,72.8,5.16,5.16,0,0,0,179.453,75.834Zm9.434-.215a6.241,6.241,0,0,1,.61-2.793,4.553,4.553,0,0,1,1.7-1.914,4.626,4.626,0,0,1,2.485-.674,4.456,4.456,0,0,1,3.491,1.494,5.748,5.748,0,0,1,1.333,3.975v.127a6.3,6.3,0,0,1-.591,2.769,4.486,4.486,0,0,1-1.689,1.909,4.679,4.679,0,0,1-2.524.684A4.445,4.445,0,0,1,190.22,79.7a5.719,5.719,0,0,1-1.333-3.955Zm1.816.215a4.52,4.52,0,0,0,.815,2.822,2.763,2.763,0,0,0,4.37-.015,4.943,4.943,0,0,0,.811-3.022,4.513,4.513,0,0,0-.825-2.817,2.623,2.623,0,0,0-2.192-1.079,2.594,2.594,0,0,0-2.158,1.064A4.906,4.906,0,0,0,190.7,75.834ZM206.924,78.2a1.33,1.33,0,0,0-.552-1.138,5.311,5.311,0,0,0-1.924-.7,9.1,9.1,0,0,1-2.178-.7,3.1,3.1,0,0,1-1.191-.977,2.336,2.336,0,0,1-.386-1.348,2.741,2.741,0,0,1,1.1-2.2,4.29,4.29,0,0,1,2.808-.9,4.415,4.415,0,0,1,2.915.928,2.947,2.947,0,0,1,1.118,2.373h-1.816a1.631,1.631,0,0,0-.63-1.279,2.36,2.36,0,0,0-1.587-.537,2.47,2.47,0,0,0-1.543.43,1.353,1.353,0,0,0-.557,1.123,1.1,1.1,0,0,0,.518.986,6.368,6.368,0,0,0,1.87.635,9.744,9.744,0,0,1,2.192.723,3.2,3.2,0,0,1,1.245,1.011,2.485,2.485,0,0,1,.405,1.44,2.7,2.7,0,0,1-1.133,2.271,4.752,4.752,0,0,1-2.939.854,5.321,5.321,0,0,1-2.246-.449,3.653,3.653,0,0,1-1.528-1.255,3.025,3.025,0,0,1-.552-1.743h1.807a1.87,1.87,0,0,0,.728,1.44,2.822,2.822,0,0,0,1.792.532,2.913,2.913,0,0,0,1.646-.415A1.275,1.275,0,0,0,206.924,78.2Zm4.2,1.855a1.131,1.131,0,0,1,.278-.781,1.061,1.061,0,0,1,.835-.312,1.092,1.092,0,0,1,.845.313,1.109,1.109,0,0,1,.288.781,1.048,1.048,0,0,1-.288.752,1.112,1.112,0,0,1-.845.3,1,1,0,0,1-1.113-1.055Z" transform="translate(-4913 -10128.066)" fill="#12263f"/>
    <g id="Grupo_877084" data-name="Grupo 877084" transform="translate(-5170.106 -10090.105)">
      <g id="Grupo_877083" data-name="Grupo 877083" clip-path="url(#clip-path)">
        <path id="Trazado_588363" data-name="Trazado 588363" d="M100.942,278.828l.672,11.136,28.414-.371s4.408-5.474-9.343-5.474c-2.758,0-3.19-5.844-3.19-5.844Z" transform="translate(-11.881 -32.753)" fill="#afafaf"/>
        <path id="Trazado_588364" data-name="Trazado 588364" d="M48.15,278.828l-.672,11.136-28.414-.371s-4.408-5.474,9.343-5.474c2.758,0,3.19-5.844,3.19-5.844Z" transform="translate(-2.165 -32.753)" fill="#afafaf"/>
        <path id="Trazado_588365" data-name="Trazado 588365" d="M36.4,133.184,28.928,264.433H51.674L62.311,156.85l2.3-.125L91.707,264.433h20.5L86.475,128.2Z" transform="translate(-3.405 -15.089)" fill="#0076be"/>
        <path id="Trazado_588366" data-name="Trazado 588366" d="M70.066,155.925H65.824l-.7-10.912.4-.026.672,10.542h3.87Z" transform="translate(-7.665 -17.065)" fill="#f2f2f2"/>
        <path id="Trazado_588367" data-name="Trazado 588367" d="M114.769,258.521H100.8v-.4h13.493c-1.293-6.748-19.466-101.6-20.208-107.447-10.328,2.51-14.349-5.132-14.389-5.211l.354-.18c.039.076,3.987,7.545,14.161,4.951l.248-.063v.255c0,2.1,20.066,106.8,20.269,107.855Z" transform="translate(-9.38 -17.1)" fill="#f2f2f2"/>
        <path id="Trazado_588368" data-name="Trazado 588368" d="M51.2,258.417H32.406l.011-.208c.228-4.25,5.588-104.105,6.38-107.784l.04-.186.187.032c5.565.941,11.966-5.792,12.029-5.86l.289.273c-.265.281-6.479,6.8-12.189,6.008-.873,5.907-6.051,102.147-6.329,107.329H51.2Z" transform="translate(-3.814 -16.997)" fill="#f2f2f2"/>
        <path id="Trazado_588369" data-name="Trazado 588369" d="M71.324,29.63l.936,13.287S61,45.591,58.049,42.614c-.671-.678.844-15.84.844-15.84Z" transform="translate(-6.812 -3.151)" fill="#f29b89"/>
        <path id="Trazado_588370" data-name="Trazado 588370" d="M72.4,33.606c-2.148-.019-7.6-2.716-7.6-2.716a11.274,11.274,0,0,0,7.719,5.146c-.029-.661-.091-1.464-.121-2.431" transform="translate(-7.628 -3.636)" fill="#222753"/>
        <path id="Trazado_588371" data-name="Trazado 588371" d="M76.077,9.3s4.729,18.084-1.191,21.046-16.559-4.142-16.559-4.142L55.108,11.134Z" transform="translate(-6.486 -1.095)" fill="#f29b89"/>
        <path id="Trazado_588372" data-name="Trazado 588372" d="M77.9,18.171a.836.836,0,0,0,.681.937c.384.005.7-.4.708-.916s-.3-.932-.681-.937-.7.4-.708.916" transform="translate(-9.169 -2.031)" fill="#222753"/>
        <path id="Trazado_588373" data-name="Trazado 588373" d="M70.726,18.672a.836.836,0,0,0,.68.937c.384.005.7-.4.708-.916s-.3-.932-.681-.937-.7.4-.708.916" transform="translate(-8.324 -2.09)" fill="#222753"/>
        <path id="Trazado_588374" data-name="Trazado 588374" d="M75.068,23.636a.2.2,0,0,1-.008-.4,3.873,3.873,0,0,0,1.641-.445c.268-.18-.264-1.885-1.139-3.648a.2.2,0,1,1,.356-.176c.541,1.089,1.721,3.675,1,4.155a4.21,4.21,0,0,1-1.846.512h-.008" transform="translate(-8.812 -2.22)" fill="#222753"/>
        <path id="Trazado_588375" data-name="Trazado 588375" d="M75.107,26.975a2.636,2.636,0,0,1-2.471-1.558.2.2,0,0,1,.354-.181c1.095,2.141,3.374,1.112,3.47,1.066a.2.2,0,0,1,.169.36,4.037,4.037,0,0,1-1.521.313" transform="translate(-8.547 -2.958)" fill="#222753"/>
        <path id="Trazado_588376" data-name="Trazado 588376" d="M55.558,5.913c1.262-3.784,5.056-2.532,5.289-2.889A4.8,4.8,0,0,1,66.4,1.3c1.233.389,2.544,1.041,3.619.324,1.434-.956,7.874-3.174,8.972.122,2.4,7.2-.977,9.033-3.867,9.758-1.645.413-3.378-.174-5.074-.23s-3.571.321-4.6,1.668a14.849,14.849,0,0,1-1.5,2.3c-1.1.986-2.923.753-4.051,1.713a4.442,4.442,0,0,0-1.106,3.508,27.674,27.674,0,0,0,.278,3.743,5.031,5.031,0,0,1,.051,1.885,1.532,1.532,0,0,1-1.27,1.234c-.948.054-1.513-1.036-1.722-1.962a12.924,12.924,0,0,1-.318-2.6c-.023-1.1-6.437-16-.252-16.85" transform="translate(-6.223 0)" fill="#222753"/>
        <path id="Trazado_588377" data-name="Trazado 588377" d="M62.317,19.925c-.1-.017-.866-1.951-2.822-1.608-1.742.305-1.828,3.175-1.252,3.8a4.894,4.894,0,0,0,3.579,1.836Z" transform="translate(-6.818 -2.151)" fill="#f29b89"/>
        <path id="Trazado_588378" data-name="Trazado 588378" d="M59.186,21.669a.2.2,0,0,1-.2-.175,1.182,1.182,0,0,1,.354-1.147c.626-.495,1.8-.062,1.854-.044a.2.2,0,0,1,.116.256.2.2,0,0,1-.255.116c-.281-.1-1.094-.311-1.47-.016a.823.823,0,0,0-.2.787.2.2,0,0,1-.174.221.1.1,0,0,1-.024,0" transform="translate(-6.941 -2.367)" fill="#222753"/>
        <path id="Trazado_588379" data-name="Trazado 588379" d="M60.612,22.14h-.019a.2.2,0,0,1-.177-.169,2.71,2.71,0,0,0-.158-.222,3.83,3.83,0,0,1-.71-1.3.2.2,0,0,1,.386-.1,3.508,3.508,0,0,0,.642,1.158c.169.224.246.327.235.45a.2.2,0,0,1-.2.179" transform="translate(-7.008 -2.378)" fill="#222753"/>
        <path id="Trazado_588380" data-name="Trazado 588380" d="M90.871,46.364s0,54.575,0,80.378c-21.31,11.854-55.179,0-55.179,0L32,78.767l.915-32.4,16.3-2.585,6.335-1.006,6.826.549,8.508-.125,8.691,1.376Z" transform="translate(-3.766 -5.034)" fill="#222753"/>
        <path id="Trazado_588381" data-name="Trazado 588381" d="M81.865,44.573c-2.382,5.664-7.914,18.484-11.893,24.96-1.421,2.312-2.638,3.82-3.45,3.9-.785.079-2-1.429-3.432-3.873a.027.027,0,0,1-.009-.018c-3.635-6.2-8.655-18.378-11.576-25.763l6.335-1.006,6.826.549,8.508-.125Z" transform="translate(-6.062 -5.034)" fill="#f2f2f2"/>
        <path id="Trazado_588382" data-name="Trazado 588382" d="M54.1,43.3c.07-.311,3.114-3.986,3.114-3.986s6.478,2.74,8.16,2.679,8.033-2.679,8.033-2.679l2.74,4.546S70.971,48.884,65.5,49.213c-5.177.311-11.4-5.917-11.4-5.917" transform="translate(-6.367 -4.627)" fill="#f2f2f2"/>
        <path id="Trazado_588383" data-name="Trazado 588383" d="M62.352,50a.193.193,0,0,1-.1-.026c-.23-.129-5.669-3.175-6.943-5.017a.2.2,0,0,1,.05-.276.2.2,0,0,1,.276.05c1.115,1.611,5.821,4.334,6.677,4.821l3.42-3.574a.2.2,0,0,1,.277-.01l3.963,3.589c.806-.463,5.3-3.118,6.122-5.2a.2.2,0,0,1,.37.146c-.95,2.405-6.2,5.344-6.422,5.468a.2.2,0,0,1-.229-.026L65.889,46.4,62.5,49.942a.2.2,0,0,1-.144.061" transform="translate(-6.506 -5.207)" fill="#3ae3fe"/>
        <path id="Trazado_588384" data-name="Trazado 588384" d="M71.589,69.136s-.079.326-.229.821c-1.421,2.312-2.638,3.82-3.45,3.9-.785.079-2-1.429-3.432-3.873a.027.027,0,0,1-.009-.018l1.588-16.437-2.762-3.476,3.529-3.679,4.067,3.679-2.056,3.476Z" transform="translate(-7.45 -5.458)" fill="#3ae3fe"/>
        <path id="Trazado_588385" data-name="Trazado 588385" d="M168.9,29.461s9.981-9.69,13.854-12.372c.585-.406,2.814-1.163,2.724.832s-2.887,3.729-4.644,5.448c1.616-.3,7.15,5.595,6.753,6.943s-10.2,7.625-10.2,7.625Z" transform="translate(-19.88 -1.954)" fill="#f29b89"/>
        <path id="Trazado_588386" data-name="Trazado 588386" d="M183.793,35.109a1.215,1.215,0,0,1-.749-.233c-.281-.215-.789-.854.006-2.387-1.251.517-1.883.282-2.2-.034a1.988,1.988,0,0,1-.129-2.1,1.809,1.809,0,0,1-2.093-.4c-.245-.311-.89-1.49,1.136-3.533a.2.2,0,1,1,.281.278c-1.428,1.441-1.507,2.5-1.1,3.01a1.606,1.606,0,0,0,2.086.056.2.2,0,0,1,.239.026.2.2,0,0,1,.039.236c-.478.9-.548,1.764-.173,2.141s1.2.272,2.314-.31a.2.2,0,0,1,.259.282c-.865,1.357-.784,2.137-.422,2.414a1.626,1.626,0,0,0,1.955-.577.2.2,0,0,1,.293.267,2.482,2.482,0,0,1-1.741.858" transform="translate(-20.99 -3.103)" fill="#222753"/>
        <path id="Trazado_588387" data-name="Trazado 588387" d="M172.721,27.157a.2.2,0,0,1-.117-.358,41.718,41.718,0,0,1,5.236-3.391l.288-.1c1.191-.439,2.316-.853,2.656.042.31.82-1.119,2.584-1.408,2.93a.2.2,0,0,1-.3-.255c.658-.785,1.509-2.091,1.341-2.535-.186-.492-.935-.258-2.147.19l-.289.106a43.009,43.009,0,0,0-5.138,3.337.2.2,0,0,1-.117.039" transform="translate(-20.306 -2.685)" fill="#222753"/>
        <path id="Trazado_588388" data-name="Trazado 588388" d="M181.424,30.1a.2.2,0,0,1-.1-.368c1.881-1.143,2.63-4.344,2.638-4.376a.2.2,0,1,1,.386.088c-.032.138-.792,3.4-2.818,4.627a.2.2,0,0,1-.1.029" transform="translate(-21.33 -2.966)" fill="#222753"/>
        <path id="Trazado_588389" data-name="Trazado 588389" d="M184.208,32.433a.2.2,0,0,1-.1-.368,7.916,7.916,0,0,0,3.054-3.908.2.2,0,0,1,.378.119,8.172,8.172,0,0,1-3.225,4.128.2.2,0,0,1-.1.028" transform="translate(-21.658 -3.298)" fill="#222753"/>
        <path id="Trazado_588390" data-name="Trazado 588390" d="M96.744,45.021c9.113,5.622,21.448,6.521,32.588,3.13A44.321,44.321,0,0,0,143.4,41.021c9.443-5.7,12.258-9.49,15.191-12.155,3.835,3.022,12.816,10.259,12.909,10.333-8.92,13.029-20.361,23.067-33.091,29.142a64.187,64.187,0,0,1-55.32.652Z" transform="translate(-9.78 -3.398)" fill="#222753"/>
        <path id="Trazado_588391" data-name="Trazado 588391" d="M95.676,60.656l-.4-.026a49.125,49.125,0,0,1,2.713-13.538l.369.146a48.72,48.72,0,0,0-2.686,13.417" transform="translate(-11.214 -5.543)" fill="#f2f2f2"/>
        <path id="Trazado_588392" data-name="Trazado 588392" d="M19.75,140.14s2.515,8.051,5.359,12.146c1.276,1.837,3.7,4.335,4.629,3.452a2.211,2.211,0,0,0,.472-1.4s2,1.692,2.694,1.137c.9-.717.527-2.242.527-2.242s1.756,1.026,2.189.571c.837-.881-.543-3.039-.543-3.039s1.489.742,2.029-.237c.316-.573-3.943-8.343-3.943-8.343s5.141,2.145,5.008.569-11.177-9.593-11.177-9.593Z" transform="translate(-2.325 -15.673)" fill="#f29b89"/>
        <path id="Trazado_588393" data-name="Trazado 588393" d="M30.91,156.62a.2.2,0,0,1-.123-.041c-.1-.076-2.371-1.853-2.584-2.035s-2.1-2.815-2.469-3.34a.2.2,0,1,1,.323-.23c.843,1.184,2.24,3.119,2.4,3.268.206.175,2.548,2,2.572,2.023a.2.2,0,0,1,.034.279.2.2,0,0,1-.156.076" transform="translate(-3.024 -17.76)" fill="#222753"/>
        <path id="Trazado_588394" data-name="Trazado 588394" d="M34.471,155.247a.2.2,0,0,1-.119-.04l-3.235-2.436a.191.191,0,0,1-.049-.051l-2.44-3.8a.2.2,0,0,1,.334-.214l2.421,3.771,3.207,2.415a.2.2,0,0,1,.04.278.2.2,0,0,1-.159.079" transform="translate(-3.366 -17.492)" fill="#222753"/>
        <path id="Trazado_588395" data-name="Trazado 588395" d="M36.465,152.54a.2.2,0,0,1-.141-.058l-2.4-2.419-2.334-3.172a.2.2,0,1,1,.319-.235l2.315,3.15,2.38,2.4a.2.2,0,0,1,0,.281.2.2,0,0,1-.139.056" transform="translate(-3.714 -17.252)" fill="#222753"/>
        <path id="Trazado_588396" data-name="Trazado 588396" d="M42.719,71.449c-12.656,7.634-18.6,14.822-20.407,22.987-2.141,9.692,1.553,19.847,6.791,30.678l-13.527,10.15C3.264,120.778-1.282,105.54.3,91.242,2.179,74.321,12.465,58.082,28.8,46.586Z" transform="translate(0 -5.483)" fill="#222753"/>
        <path id="Trazado_588397" data-name="Trazado 588397" d="M37.784,64.866c-.092-9.275-5.281-18.1-5.333-18.192l.341-.2c.053.089,5.3,9.01,5.389,18.391Z" transform="translate(-3.819 -5.47)" fill="#f2f2f2"/>
      </g>
    </g>
    <path id="Trazado_588600" data-name="Trazado 588600" d="M9.3,23.485V31H4.91V9.672h8.32a9.626,9.626,0,0,1,4.226.879,6.477,6.477,0,0,1,2.805,2.5,6.964,6.964,0,0,1,.981,3.684A6.124,6.124,0,0,1,19.1,21.676a8.938,8.938,0,0,1-5.94,1.809Zm0-3.56H13.23a3.86,3.86,0,0,0,2.659-.82,2.984,2.984,0,0,0,.916-2.344,3.518,3.518,0,0,0-.923-2.534,3.447,3.447,0,0,0-2.549-1H9.3Zm35.61.146h-13.1V16.615h13.1Zm0,6.343h-13.1V22.958h13.1Z" transform="translate(-4874.426 -9992.041)" fill="#12263f"/>
    <path id="Trazado_588601" data-name="Trazado 588601" d="M52.627,31H48.394V14.682L43.34,16.249V12.807l8.833-3.164h.454ZM7.62,57.328a22.48,22.48,0,0,1,.894-6.387,16.854,16.854,0,0,1,2.637-5.369,9.845,9.845,0,0,1,3.779-3.245l.82,2.285a10.2,10.2,0,0,0-3.34,4.893,22.654,22.654,0,0,0-1.2,7.734v.454A23.087,23.087,0,0,0,12.4,65.458a10.4,10.4,0,0,0,3.354,4.966l-.82,2.241a9.849,9.849,0,0,1-3.713-3.157,16.572,16.572,0,0,1-2.629-5.222A22.347,22.347,0,0,1,7.62,58.1ZM28.069,66H23.836V49.682l-5.054,1.567V47.807l8.833-3.164h.454ZM51.184,54.062h5.288v3.823H51.184v5.977H47.156V57.885h-5.3V54.062h5.3V48.334h4.028ZM70.96,66H66.712V50.15H70.96Zm-4.5-19.951a2.085,2.085,0,0,1,.637-1.567,2.746,2.746,0,0,1,3.464,0,2.237,2.237,0,0,1-.007,3.149,2.715,2.715,0,0,1-3.442,0A2.078,2.078,0,0,1,66.463,46.049ZM81.741,57.665a21.332,21.332,0,0,1-.952,6.372,17.3,17.3,0,0,1-2.739,5.405,9.869,9.869,0,0,1-3.823,3.223l-.82-2.241a10.3,10.3,0,0,0,3.281-4.834,22.385,22.385,0,0,0,1.245-7.515V57.3a22.891,22.891,0,0,0-1.194-7.72,10.737,10.737,0,0,0-3.333-5.01l.82-2.241a9.872,9.872,0,0,1,3.757,3.135,17.074,17.074,0,0,1,2.739,5.288,21.18,21.18,0,0,1,1.018,6.255Zm4.877-10.91.077,1.068a3.228,3.228,0,0,1,2.657-1.239,2.683,2.683,0,0,1,2.187.863,4.026,4.026,0,0,1,.735,2.58V56H89.8V50.087a1.6,1.6,0,0,0-.342-1.141,1.53,1.53,0,0,0-1.136-.355,1.7,1.7,0,0,0-1.564.889V56H84.293V46.755Z" transform="translate(-4824.426 -10011.174)" fill="#12263f"/>
    <path id="Trazado_588602" data-name="Trazado 588602" d="M0,0H88" transform="translate(-4819.5 -9972.541)" fill="none" stroke="#16263d" stroke-width="2"/>
  </g>
</svg>
